<svg width="1000" height="280" xmlns="http://www.w3.org/2000/svg" version="1.1" enable-background="new 0 0 1000 280" xml:space="preserve">
 <g>
  <title>Layer 1</title>
  <g id="svg_1">
   <path fill="#030303" d="m351.94971,179.56277c-2.2424,-5.54579 -6.5781,-7.25322 -11.68228,-7.45687c-4.49259,-0.17925 -9.00739,-0.2574 -13.49259,-0.01456c-3.26935,0.177 -4.98193,-1.17334 -5.76205,-4.16103c-0.90671,-3.47248 -1.84598,-6.93648 -2.8732,-10.78682c1.9097,-0.15954 3.19485,-0.33903 4.48297,-0.36348c14.44949,-0.27426 28.89972,-0.51205 43.34921,-0.78596c9.2518,-0.17537 18.79898,0.97934 27.68042,-0.93575c11.55472,-2.49156 22.71054,-7.10412 33.78894,-11.44033c7.66336,-2.99953 14.90555,-7.07512 22.94498,-10.96453c-11.97373,-4.66932 -23.27097,-8.90885 -34.4314,-13.48214c-8.19983,-3.36008 -14.89453,-1.42705 -20.67978,4.86342c-1.90319,2.06943 -3.7395,4.20042 -5.77365,6.49163c-4.1217,-2.00915 -8.12442,-3.96029 -12.13031,-5.91297c9.25574,-18.39642 25.92792,-27.51257 44.61694,-18.92514c8.89487,4.0871 17.8086,8.2011 26.96589,11.62951c8.64343,3.236 17.61746,5.58893 26.87323,8.46295c0,3.6214 0,8.0763 0,12.56308c-5.21421,1.70451 -10.47061,3.52277 -15.79102,5.12914c-3.95892,1.19528 -3.69266,3.61184 -2.20468,6.50976c2.31308,4.5047 6.85864,5.41998 11.039,5.65627c11.71997,0.66249 23.48392,1.09694 35.21381,0.84456c8.06955,-0.17362 12.48556,-4.41224 12.65829,-12.57547c0.20856,-9.85708 -0.95276,-19.74311 -1.54297,-29.99374c3.92108,-0.99164 8.54962,-2.16216 13.49121,-3.41187c2.64362,13.52961 4.86286,26.72779 1.47107,40.19755c-3.1734,12.60237 -10.08526,19.77216 -22.97781,20.56433c-13.07297,0.80324 -26.31134,0.45357 -39.37677,-0.61738c-11.72946,-0.96148 -20.29776,-7.00075 -22.06354,-20.42687c-25.51498,14.55834 -51.67493,24.56501 -81.86664,21.29405c3.09632,7.61229 2.68244,14.2896 -0.64053,20.82463c-3.87183,7.61449 -10.03754,12.91045 -17.53738,16.43726c-17.51694,8.23734 -35.8816,9.69923 -54.45585,4.62576c-17.38293,-4.74804 -28.47268,-19.005 -30.22686,-38.0879c-1.21192,-13.18419 -0.25742,-26.24132 4.52951,-39.28479c4.15842,1.51361 8.28125,3.01427 12.78912,4.65509c-0.91022,4.98369 -2.32782,9.7863 -2.54877,14.64336c-0.33782,7.42785 -0.73266,15.04101 0.48404,22.30981c2.07798,12.41411 10.68576,20.15002 23.10328,22.28122c13.23632,2.27174 26.26614,1.43187 38.60491,-4.10901c4.15375,-1.8653 8.13068,-4.64741 11.35691,-7.84854c1.7846,-1.77071 1.84829,-5.27582 2.61435,-8.39823z" id="svg_2"/>
   <path fill="#030303" d="m115.46555,152.6702c3.90595,4.94889 9.36438,3.85959 13.99348,3.83972c11.78592,-0.05057 23.66508,-0.22238 35.32494,-1.74204c11.97291,-1.56042 16.65745,-12.22963 9.49592,-22.15538c-5.1564,-7.14672 -12.27502,-12.99415 -19.01927,-18.84362c-5.89271,-5.1109 -12.59625,-9.27374 -18.74246,-14.10856c-9.93866,-7.81808 -8.3048,-18.9014 3.35039,-23.63896c18.59825,-7.55976 37.19892,-15.11356 55.80169,-22.66223c1.03694,-0.42078 2.10208,-0.77208 3.4764,-1.27324c0,4.99631 0,9.60081 0,14.6171c-17.54015,7.12956 -35.31667,14.3552 -53.82015,21.87632c4.64545,3.31566 9.06378,5.97204 12.89488,9.3037c8.88201,7.72413 17.89107,15.37782 26.05254,23.82888c5.67686,5.87828 8.11794,13.73443 7.41234,22.09008c-1.27918,15.14789 -8.20444,23.74249 -24.15836,25.80126c-15.42517,1.99051 -31.17254,1.67141 -46.78573,1.93948c-7.94249,0.13638 -13.79454,-4.22081 -18.18376,-10.64597c-0.83378,-1.22052 -1.78468,-2.361 -2.70559,-3.57002c-10.96802,12.75087 -30.09942,17.63319 -58.04356,12.22098c0,-4.73393 0,-9.51532 0,-14.7124c3.83847,0.52485 7.60514,1.61671 11.30811,1.43194c9.05841,-0.4519 18.32459,-0.49412 27.06421,-2.56788c9.50743,-2.25597 12.93582,-9.23848 9.63751,-18.41166c-4.25791,-11.84195 -9.61686,-23.28814 -14.50625,-34.90283c-0.82894,-1.96913 -1.68101,-3.9285 -2.74668,-6.41588c4.2556,-2.03966 8.37303,-4.0131 12.90571,-6.18558c5.91945,13.91385 11.52558,27.69597 17.64519,41.24618c3.60521,7.98275 8.02495,15.59764 12.3485,23.64061z" id="svg_3"/>
   <path fill="#FAD670" d="m679.95056,49.14308c-2.67529,3.11718 -5.89636,5.15897 -9.99316,3.25617c-4.04914,-1.88065 -5.40119,-5.46878 -5.08173,-9.88105c0.48053,-6.63869 6.64533,-9.74996 12.69238,-6.59682c2.35938,1.23024 5.19855,2.10507 7.83436,2.14522c13.1173,0.19983 26.24139,0.18336 39.35919,-0.01699c4.01776,-0.06136 7.1557,1.08867 9.41577,4.32985c3.51489,5.04053 7.99982,7.18455 14.35382,6.61715c6.91925,-0.61789 13.93121,-0.19722 21.7027,-0.45716c3.11261,-0.2908 5.42535,-0.35378 8.19836,-0.30562c6.83997,0.06217 13.21948,0.0132 20.04822,0.06897c4.41315,0.04658 8.3772,-0.01159 12.59473,0.11703c1.05712,0.42405 1.86077,0.6613 2.85839,1.19624c1.09559,3.2011 2.76734,6.10072 2.78168,9.00851c0.18243,36.95711 0.12677,73.91538 0.1319,110.87336c0.00146,10.48807 0.13159,20.97852 -0.06116,31.463c-0.07263,3.94896 1.36804,5.3258 5.25177,5.17714c6.98108,-0.2672 13.97528,-0.18959 21.42151,-0.14983c24.09668,0.10278 47.73614,0.13901 71.37475,0.01737c1.8064,-0.0093 4.18519,-0.61248 5.29786,-1.84353c2.91424,-3.22427 5.99945,-3.70564 9.95367,-1.7835c4.69135,3.08834 4.82215,7.59776 4.60584,12.34176c-0.35883,0.54489 -0.49219,0.90239 -0.76752,1.44332c-0.14203,0.18339 -0.24097,0.63664 -0.48792,0.80597c-1.00598,1.09576 -1.76501,2.02221 -2.9046,2.99258c-3.08246,-0.07462 -6.87829,0.88704 -8.27154,-0.52383c-3.50818,-3.55263 -7.43409,-3.08304 -11.51056,-3.09661c-9.15149,-0.03044 -18.30353,-0.09685 -27.45441,-0.02325c-5.45593,0.04387 -10.91003,0.32521 -16.82611,0.4465c-9.4577,0.01584 -18.45429,0.08498 -27.91504,0.07054c-9.00842,-0.11473 -17.55255,-0.14587 -26.27844,-0.39221c-0.53894,-0.30208 -0.89624,-0.38893 -1.44141,-0.59183c-0.18799,-0.11603 -0.62976,-0.11836 -0.58288,-0.12955c0.04693,-0.01118 0.0437,-0.10755 -0.0459,-0.33352c-0.30536,-0.50263 -0.58863,-0.64069 -1.03833,-0.5103c-0.09894,0.12985 0.08905,-0.13188 0.03869,-0.39525c-0.30328,-0.50569 -0.55633,-0.74799 -0.83752,-1.14831c-0.0282,-0.15804 -0.23523,-0.40349 -0.2403,-0.86761c-0.08477,-26.11334 -0.19073,-51.76251 -0.23632,-77.4118c-0.04138,-23.32127 -0.06739,-46.64285 0.02307,-69.96381c0.01678,-4.33693 -1.34625,-6.50328 -6.06604,-6.25411c-5.31561,0.28061 -10.6615,-0.0653 -15.98731,0.09232c-5.26123,0.15572 -10.51391,0.59986 -16.00921,0.92173c-0.23877,0.00426 -0.71503,-0.03242 -0.71503,-0.03242c-7.63013,-0.01671 -15.28577,-0.4292 -22.88306,0.06227c-7.4544,0.48222 -12.87713,-1.96078 -16.56805,-8.44676c-0.44025,-0.77364 -1.53095,-1.1771 -2.7738,-2.36025c-15.42499,-0.73839 -30.39631,-0.87975 -45.36799,-0.95339c-0.52942,-0.0026 -1.06213,0.66635 -1.59332,1.02231z" id="svg_4"/>
   <path fill="#FDDA6B" d="m717.99383,106.42308c1.20679,-0.82949 2.818,-1.39692 3.55335,-2.53185c4.14807,-6.40231 10.13049,-7.24909 17.17096,-6.97948c9.71075,0.37186 19.45788,-0.20681 29.8064,-0.49066c0.82794,-0.11721 1.03881,-0.12208 1.28393,-0.13459c0.03424,-0.00765 0.03656,-0.07787 0.34888,0.21196c5.72992,0.35132 11.17737,0.10634 16.5498,0.63083c2.04078,0.19925 3.90863,2.16862 5.69141,3.809c-0.22632,20.44583 -0.32434,40.41381 -0.34283,60.38185c-0.03089,33.28606 -0.08014,66.57248 0.07635,99.85781c0.01929,4.11422 -1.47992,5.82834 -5.09759,4.54992c-1.14789,-0.40567 -1.95002,-3.39157 -1.95398,-5.19885c-0.10614,-48.59743 -0.07654,-97.19513 -0.1308,-145.79271c-0.00214,-1.88884 -0.60602,-3.77701 -1.16699,-5.97556c-5.04432,-0.75455 -9.85114,-1.19904 -15.12928,-1.72231c-10.67761,-0.08919 -20.88421,-0.13938 -31.08996,-0.06761c-1.5539,0.01093 -3.10382,0.58705 -4.65558,0.90177c-3.40473,2.61132 -6.80945,5.22263 -10.99829,7.9466c-9.84223,0.15342 -18.90033,0.19417 -28.42383,0.22089c-11.11933,-0.02154 -21.77356,-0.07316 -32.42682,0.00784c-1.7334,0.01317 -3.46234,0.61322 -5.1933,0.94201c-6.14081,5.33658 -10.33526,5.72825 -14.12311,1.34882c-2.97338,-3.43785 -2.99517,-7.24754 -1.38665,-11.21405c1.83709,-4.53018 5.78253,-4.31583 10.32843,-3.89162c1.31134,0.43455 1.96795,0.61278 2.62463,0.791c0.16126,0.13558 0.315,0.27918 0.69586,0.95371c2.23261,1.02547 4.22797,1.95151 6.22913,1.96432c17.62903,0.11284 35.25921,0.07835 52.88885,0.03638c1.62409,-0.00386 3.24738,-0.36186 4.87103,-0.55542z" id="svg_5"/>
   <path fill="#7719FB" d="m758.00751,233.06619c11.11548,-0.6841 11.1217,-0.68429 10.75848,-12.19632c-0.02557,-0.80955 -0.24188,-1.61309 -0.89392,-3.05978c-5.62824,-0.78131 -10.73212,-0.92223 -15.79907,-1.38501c1.14819,-1.68343 2.2594,-3.04498 3.35583,-4.38841c-1.13067,-0.948 -2.26355,-1.89789 -2.9342,-2.89025c5.49542,-0.35733 10.52844,-0.67221 15.56152,-0.98709c0.11585,-4.90835 0.23163,-9.81671 -0.11419,-15.33519c-1.59217,-0.76149 -2.72266,-0.91284 -3.88569,-1.48076c-0.01684,-2.66551 -0.00115,-4.91446 0.37159,-7.19137c1.41656,-0.36267 2.47595,-0.69736 3.5354,-1.03204c-0.10022,-6.63695 -0.20044,-13.27393 -0.97022,-20.35036c-4.10815,-0.55957 -7.54669,-0.67968 -10.98907,-1.20754c-0.13928,-2.29899 -0.27478,-4.19024 -0.42774,-6.32576c2.35053,-0.11435 4.46057,-0.21699 6.57062,-0.31962c2.11121,-0.33913 4.22241,-0.67826 6.63843,-1.06633c0.21155,-3.71948 0.47986,-7.32108 0.60443,-10.92765c0.13519,-3.91261 -0.7403,-6.69793 -5.7146,-5.00761c-1.18457,0.40254 -2.63556,0.02084 -4.52869,-0.49322c-0.09582,-3.09252 0.37293,-5.69193 0.84168,-8.29134c8.79767,-0.45778 8.79541,-0.45778 8.79767,-9.24269c0.00061,-2.31805 0.02014,-4.63609 0.57495,-7.42989c1.3764,-0.48159 2.2088,-0.49355 3.04113,-0.49231c7.6189,0.01136 7.6214,0.01203 7.61969,7.70587c-0.01104,48.77889 -0.02331,97.55777 -0.03521,146.33666c0,0 0.06842,0.10544 -0.4303,0.06137c-7.51257,-0.11444 -14.52643,-0.18482 -21.54492,-0.6821c-0.00757,-2.74466 -0.01056,-5.06238 0.43359,-7.38196c3.47272,-0.34192 6.49842,-0.68197 9.52405,-1.02206c0.11334,-4.73859 0.22675,-9.47719 -0.11652,-14.88638c-3.38104,-0.92627 -6.30542,-1.18194 -9.84472,-1.49135c0,-2.6603 0,-5.0999 0,-7.53951z" id="svg_6"/>
   <path fill="#030303" d="m572.64893,90.62808c18.70019,7.88614 35.17993,18.64642 42.018,38.7534c6.78717,19.95724 -4.78412,37.13425 -26.18085,40.68149c-12.74096,2.11225 -25.47491,1.93917 -38.54498,-0.28714c0,-4.91957 0,-9.77623 0,-15.00715c4.22272,0.56474 8.33167,1.72191 12.3775,1.53241c9.21839,-0.4318 18.67939,-0.4211 27.53876,-2.61844c11.91559,-2.95536 15.92682,-13.32418 9.12341,-23.63994c-4.45221,-6.75066 -10.97155,-12.30328 -17.18981,-17.66827c-4.4563,-3.84485 -9.94715,-6.4906 -15.16663,-9.79158c1.97992,-3.99141 3.88275,-7.82735 6.0246,-11.95478z" id="svg_7"/>
   <path fill="#FEE066" d="m838.15247,16.26588c11.36193,-0.36129 22.72198,-0.8544 34.08679,-1.02393c5.08777,-0.07589 10.18811,0.45415 15.27649,0.80114c1.57007,0.10707 3.11938,0.51785 4.46271,1.29121c-1.13465,0.55997 -2.05378,0.6183 -3.42646,0.67264c-3.56372,-0.29328 -6.69732,-0.42927 -9.7796,-0.90049c-9.3609,-1.43108 -12.76916,1.45127 -12.77155,11.00329c-0.00354,13.93112 -0.06475,27.86268 0.03187,41.79313c0.03643,5.25586 0.47064,10.51443 -3.29157,15.0432c-0.24823,0.02665 -0.74634,0.06108 -1.21442,0.05045c-4.45611,-0.0116 -8.49237,-0.40294 -12.42059,0.08161c-5.35767,0.66089 -6.28308,-1.60791 -6.21478,-6.43304c0.26306,-18.60744 0.10699,-37.22082 0.1073,-55.83198c0,-1.77049 0.00006,-3.54099 0.00006,-5.10781c-2.05945,-0.61169 -3.45282,-1.02555 -4.84625,-1.43942z" id="svg_8"/>
   <path fill="#CE45D2" d="m934.91693,214.53297c-0.00921,-4.55662 -0.14001,-9.06604 -4.5357,-12.40474c-0.08503,-4.35111 -0.25049,-8.18572 0.01367,-12.04821c9.15643,0.28589 17.88324,0.59967 26.66131,1.3294c1.08411,11.38304 2.81824,22.37813 -1.2127,31.93901c1.99084,0.67295 3.63696,1.22939 5.28308,1.78585c-5.61542,5.81071 -11.2309,11.62143 -17.37885,17.68031c-0.91485,0.58107 -1.29724,0.914 -1.67962,1.24693c0,0 -0.03791,-0.05682 -0.24811,0.05219c-0.49262,0.2691 -0.67188,0.50696 -0.74793,0.82259c0,0 -0.03851,0.14701 -0.28643,0.21052c-0.46943,0.20015 -0.61994,0.39247 -0.69941,0.64044c0,0 -0.08465,0.2012 -0.52502,0.21457c-1.37616,0.08447 -2.31195,0.15559 -2.56122,0.17453c0,-6.81459 0.34711,-13.44229 -0.14941,-20.00616c-0.24091,-3.18496 -2.06196,-6.25037 -3.16767,-9.36989c0,0 0.09894,-0.45325 0.47467,-0.81123c0.50366,-0.72404 0.63147,-1.09006 0.75934,-1.45611z" id="svg_9"/>
   <path fill="#B93ADC" d="m918.0581,258.05188c-3.64056,1.36765 -7.28112,2.73529 -11.67846,4.05307c-1.62085,0.27399 -2.48493,0.59784 -3.349,0.92169c0,0 -0.01929,-0.01999 -0.47644,-0.01611c-2.09888,-0.0007 -3.745,-0.08545 -5.38135,0.00592c-4.10473,0.22922 -6.80426,-0.94156 -6.20105,-5.76846c0.38458,-3.07732 0.68671,-6.16497 1.07007,-9.62827c-0.03955,-2.48848 -0.12335,-4.59671 -0.28284,-6.82751c-0.07562,-0.12259 0.07825,-0.36611 0.20185,-0.704c-0.31611,-1.19751 -0.7558,-2.05713 -1.18067,-2.95785c0.01483,-0.04113 0.06665,0.02932 0.11725,-0.42633c-0.26184,-5.1896 -0.57434,-9.92354 -0.45795,-14.67339c2.14997,-0.03899 3.8711,-0.06204 6.05817,-0.06659c4.92951,0.024 9.40088,0.19542 13.85431,-0.01375c4.10022,-0.19258 6.86835,1.50896 8.33417,5.03441c-0.98847,1.00439 -2.1626,2.03021 -2.09803,2.97108c0.26624,3.88367 1.16443,7.72931 1.35029,11.61191c0.26245,5.48409 0.10034,10.9885 0.11968,16.48418z" id="svg_10"/>
   <path fill="#791AFA" d="m769.0694,95.00829c-0.09638,-1.62208 -0.46143,-3.28204 -0.23902,-4.85914c0.67627,-4.79387 -1.36493,-6.62615 -6.41229,-6.51064c-0.41675,-2.65506 -0.41675,-4.78187 -0.41675,-6.8031c1.97028,-0.68657 3.4776,-1.21181 4.98487,-1.73704c0.61102,-3.06809 1.22204,-6.13618 2.34192,-9.70362c8.56408,-0.76052 16.6192,-1.0217 24.62176,-0.92276c-1.0166,2.15967 -2.77502,3.94447 -2.80884,5.76135c-0.1571,8.45173 0.16309,16.91234 0.31061,25.26339c-1.586,-0.37161 -3.9361,-1.49149 -6.19946,-1.33738c-5.15833,0.35124 -10.27411,1.32718 -15.40717,2.04928c0,0 -0.00232,0.07022 -0.03876,-0.18788c-0.26995,-0.50955 -0.50341,-0.76101 -0.73687,-1.01246z" id="svg_11"/>
   <path fill="#651CC6" d="m780.37933,266.05145c-0.3811,-48.82216 -0.36883,-97.60104 -0.35779,-146.37993c0.00171,-7.69384 -0.00079,-7.69451 -7.61969,-7.70587c-0.83233,-0.00124 -1.66473,0.01072 -2.95165,0.03351c-0.46448,-1.0045 -0.47437,-2.02595 -0.46058,-3.69342c0.0608,-0.82684 0.0979,-1.00768 0.13507,-1.18851c4.80689,0.44448 9.61371,0.88897 14.60413,2.10143c0.1836,50.57512 0.20337,100.38229 0.11688,150.1893c-0.00372,2.15759 -0.9848,4.31345 -1.51062,6.47009c-0.52093,0.07224 -1.04181,0.14447 -1.95575,0.1734z" id="svg_12"/>
   <path fill="#C540D6" d="m918.42456,258.02161c-0.3858,-5.46541 -0.22369,-10.96982 -0.48614,-16.45391c-0.18586,-3.8826 -1.08405,-7.72824 -1.35029,-11.61191c-0.06457,-0.94087 1.10956,-1.96669 2.4773,-3.00872c5.44128,-0.81647 9.78302,-2.11211 11.84656,-7.02873c0.75897,-0.92649 1.518,-1.85294 2.52398,-2.9487c1.35266,2.95019 3.17371,6.0156 3.41462,9.20056c0.49652,6.56387 0.14941,13.19157 0.14941,20.00616c0.24927,-0.01894 1.18506,-0.09006 2.45447,-0.15167c-6.66535,3.99521 -13.66437,7.98089 -21.02991,11.99692z" id="svg_13"/>
   <path fill="#E2BA5A" d="m837.92908,16.21217c1.61682,0.46758 3.01019,0.88144 5.06964,1.49313c0,1.56682 -0.00006,3.33732 -0.00006,5.10781c-0.00031,18.61116 0.15576,37.22454 -0.1073,55.83198c-0.0683,4.82513 0.85711,7.09393 6.21478,6.43304c3.92822,-0.48455 7.96448,-0.09321 12.36468,0.26776c-0.99029,3.17355 -6.84814,2.29632 -5.91332,7.4981c-6.38666,0.02541 -12.30665,-0.01474 -18.30329,-0.50325c-0.05121,-25.72116 -0.02569,-50.99394 -0.00018,-76.26672c0,-0.00001 0.45166,0.08443 0.67505,0.13815z" id="svg_14"/>
   <path fill="#BB61E8" d="m836.96912,15.72605c0.2594,25.62075 0.23388,50.89353 0.18481,76.91586c-0.02985,0.95981 -0.03607,1.17009 -0.09698,1.84601c-0.0655,29.90375 0.01892,59.34252 -0.18604,88.77931c-0.03198,4.59456 1.7384,5.75184 5.83685,5.60336c10.45356,-0.37869 20.91553,-0.51994 31.37177,-0.83484c4.96472,-0.14952 9.92407,-0.4785 14.80731,-0.40983c-1.34595,1.0077 -2.6134,1.69902 -4.16821,2.67242c-3.10309,0.43967 -5.91895,0.59723 -9.20056,0.73073c-6.15021,-0.03482 -11.8346,-0.04555 -17.98499,-0.0634c-6.81805,-0.00357 -13.16992,-0.00005 -19.87842,-0.14885c-1.13824,-2.27673 -2.59741,-4.39955 -2.60241,-6.5258c-0.12696,-53.60997 -0.10114,-107.22029 -0.10242,-160.83054c-0.00006,-1.33193 -0.0918,-2.67081 0.01288,-3.99429c0.2041,-2.58104 -0.89569,-3.59635 -3.4831,-3.50741c-4.1574,0.14291 -8.32202,0.07456 -12.91906,0.06821c-7.80805,-0.01277 -15.18055,0.00171 -23.0177,-0.01679c-4.82233,-0.01336 -9.18018,0.00627 -13.88904,-0.00714c-1.05573,-0.06472 -1.76026,-0.09641 -2.51294,-0.32221c-0.0481,-0.19413 -0.12695,-0.58752 -0.12695,-0.58752c19.22345,0.09492 38.44683,0.18984 57.9552,0.63272z" id="svg_15"/>
   <path fill="#F6D075" d="m926.00763,27.84898c13.04803,5.10283 22.83179,14.5826 31.83423,24.7363c12.12799,13.67891 21.02966,29.36572 26.09955,47.0473c4.92334,17.17082 7.46423,34.64875 5.11499,52.48061c-1.38849,10.53856 -3.5965,20.96915 -5.99732,31.68054c-0.75238,0.2359 -0.9433,0.23953 -1.11047,-0.13043c0.08252,-1.11603 0.14123,-1.85841 0.44922,-2.89194c1.68799,-7.57284 3.93957,-14.80198 4.41461,-22.14607c1.48749,-22.99562 -0.11334,-45.73576 -9.26868,-67.27889c-2.68799,-6.32491 -6.32837,-12.24506 -9.66876,-18.67652c-5.2757,-11.46646 -13.98846,-19.63939 -23.00745,-27.98404c-6.38702,-4.76604 -12.62255,-9.23197 -18.86157,-14.02225c-0.01086,-0.75631 -0.01819,-1.18827 -0.01806,-1.91881c0.01147,-0.49765 0.01556,-0.69673 0.01971,-0.8958z" id="svg_16"/>
   <path fill="#6315CD" d="m794.0025,64.11188c-8.05517,0.26117 -16.11029,0.52235 -24.57782,0.85449c-0.41925,-1.37593 -0.42608,-2.82283 -0.36047,-4.7086c0.07257,-0.43887 0.54883,-0.40219 1.23474,-0.32254c9.68011,0.07658 18.67426,0.06477 27.66846,0.07306c8.12793,0.00749 8.12146,0.01718 8.12146,8.2247c-0.00012,46.47233 -0.01929,92.9447 0.09112,139.41681c0.00415,1.76197 1.27314,3.52095 1.9527,5.28132c0,-0.00001 0.20703,0.24544 0.19812,0.70847c0.30243,0.67756 0.61371,0.89212 0.92499,1.10669c0,0 -0.18799,0.26173 -0.05988,0.40741c0.45166,0.2507 0.77521,0.35572 1.09876,0.46074c0,0 0.00323,0.09637 -0.10901,0.51149c-0.46716,2.21101 -0.82202,4.00689 -1.54102,5.78543c-4.14557,-1.43488 -4.7066,-4.39809 -4.70074,-8.04077c0.07306,-45.49855 0.04431,-90.99729 0.04163,-136.49597c-0.00019,-2.66659 -0.05671,-5.33462 0.01177,-7.99943c0.09797,-3.81257 -1.75842,-5.51287 -5.49755,-5.35408c-1.49769,0.06359 -2.99811,0.06246 -4.49726,0.09078z" id="svg_17"/>
   <path fill="#AB37DC" d="m891.99756,248c-0.33905,3.08302 -0.64118,6.17067 -1.02576,9.24799c-0.60321,4.8269 2.09632,5.99768 6.20105,5.76846c1.63635,-0.09137 3.28247,-0.00662 5.37817,0.00732c-4.57769,1.0192 -9.60943,2.02903 -15.54211,2.99695c-9.59015,-0.06586 -18.27917,-0.08978 -26.68799,-0.3819c1.88025,-0.52374 3.48017,-0.77929 5.56043,-1.1116c0,-3.52444 0.39148,-7.00763 -0.11151,-10.35643c-0.49006,-3.26295 -2.21045,-5.51384 -6.39679,-5.26128c-6.42755,0.38779 -12.89881,0.20557 -19.34607,0.04513c-2.95423,-0.07352 -4.20703,0.84504 -4.06098,3.94603c0.20203,4.29141 0.05524,8.59918 -0.24285,12.6383c-0.43879,-5.3335 -0.57685,-10.40532 -0.61689,-15.88171c1.07123,-0.85218 2.04163,-1.68189 3.01807,-1.68911c11.61712,-0.08583 23.23547,-0.0849 34.85254,0.00835c1.21783,0.00978 2.61011,0.49677 3.61493,1.20026c6.24322,4.37098 8.28113,4.24325 14.4386,-1.18834c0.53723,0.00857 0.75219,0.01007 0.96716,0.01158z" id="svg_18"/>
   <path fill="#D64ACC" d="m961.41675,224.96405c-1.93628,-0.38623 -3.5824,-0.94267 -5.57324,-1.61562c4.03094,-9.56088 2.29681,-20.55597 1.68078,-31.9429c3.8443,-0.41917 7.2793,-0.55902 10.6977,-0.38102c3.9765,0.20703 7.93847,0.69245 11.90679,1.05706c-4.24707,11.97045 -10.64141,22.73168 -18.71203,32.88248z" id="svg_19"/>
   <path fill="#FECE64" d="m889.00555,18.01094c0.91913,-0.05834 1.83826,-0.11667 3.21137,-0.3221c0.68249,-0.2755 0.92761,-0.3312 1.57507,0.10786c2.00452,1.0164 3.62598,1.60374 5.24158,2.20668c2.65826,0.99199 5.3128,1.9941 7.80884,3.35889c-0.72089,7.12423 -1.28162,13.88152 -2.2688,20.6369c-4.80634,-0.33821 -9.18634,-0.67451 -13.62726,-1.36543c-1.00427,-1.63752 -2.58038,-2.82794 -2.78369,-4.21896c-0.99695,-6.82211 -3.54956,-13.78697 0.84289,-20.40384z" id="svg_20"/>
   <path fill="#7818FC" d="m779.18897,15.87497c0.70458,0.03168 1.40911,0.06337 2.42028,0.49874c0.66797,3.51679 1.27051,6.62441 1.34156,9.74412c0.1582,6.95446 0.05084,13.91497 -0.36585,20.87609c-1.80981,0.01424 -3.20209,0.02541 -5.03937,0.02919c-3.09649,-0.01079 -5.7481,-0.01419 -8.39965,-0.01759c-0.11542,-6.96583 -0.23084,-13.93166 -0.21967,-21.7679c0.73736,-3.5245 0.51941,-7.19742 2.18622,-8.55312c1.75232,-1.42531 5.30853,-0.63288 8.07648,-0.80953z" id="svg_21"/>
   <path fill="#DF6BD4" d="m980.37402,191.84732c-4.21356,-0.13036 -8.17553,-0.61578 -12.15203,-0.82281c-3.4184,-0.178 -6.8534,-0.03815 -10.74909,-0.03495c-9.19476,-0.30987 -17.92157,-0.62365 -27.54175,-0.93768c-8.89636,0.30312 -16.89929,0.60646 -25.36242,0.90385c-6.82764,-0.31712 -13.1952,-0.62831 -19.56275,-0.9395c1.26746,-0.69129 2.53491,-1.38261 4.16992,-2.53558c1.17841,-0.72833 1.9892,-0.99502 3.12134,-0.99313c17.78095,0.25441 35.24066,0.24023 53.16174,0.31051c12.13739,0.0082 23.81342,-0.06805 35.75696,-0.02043c0.45563,0.18064 0.6438,0.2374 0.83203,0.29416c-0.47625,1.51377 -0.95245,3.02754 -1.67395,4.77556z" id="svg_22"/>
   <path fill="#E6BDA5" d="m782.69238,266.02091c0.16852,-2.2995 1.1496,-4.45536 1.15332,-6.61295c0.08649,-49.80701 0.06672,-99.61418 0.12061,-149.87924c0.37738,1.43058 0.98126,3.31875 0.9834,5.20759c0.05426,48.59758 0.02466,97.19528 0.1308,145.79271c0.00396,1.80728 0.80609,4.79318 1.95398,5.19885c3.61767,1.27842 5.11688,-0.4357 5.09759,-4.54992c-0.15649,-33.28533 -0.10724,-66.57175 -0.07635,-99.85781c0.01849,-19.96804 0.11651,-39.93602 0.54595,-59.979c0.45118,1.75032 0.6081,3.57558 0.60852,5.40086c0.01239,51.29607 0.00422,102.59215 0.02784,153.88822c0.00079,1.802 0.29114,3.60388 0.44873,5.62619c0.0022,0.2204 0.0946,0.65137 0.0946,0.65137c-3.57721,-0.24799 -7.15442,-0.49601 -11.08899,-0.88687z" id="svg_23"/>
   <path fill="#C95ECF" d="m758.01575,265.81436c7.01385,0.07037 14.02771,0.14075 21.49414,0.29788c-1.31952,0.30909 -3.09131,0.72162 -4.86377,0.72452c-19.92597,0.03266 -39.8523,-0.04483 -59.77765,0.06269c-1.97492,0.01065 -4.20294,0.64068 -5.86237,1.69396c-3.4552,2.19294 -10.07934,2.13446 -12.28253,-0.54547c-2.66717,-3.24429 -2.44366,-9.81347 0.44,-12.93351c3.24878,-3.51506 7.96448,-3.63588 11.98413,-0.30301c0.76233,0.63205 1.51337,1.27757 2.55866,2.51735c0.289,3.1394 0.289,5.67834 0.289,8.47927c4.62152,0 8.37347,0 12.57019,0.04181c3.77991,0.01013 7.11499,-0.02154 10.89789,-0.00274c3.15002,0.01184 5.8523,-0.02689 9.01556,-0.01136c4.81958,0.02906 9.17817,0.00385 13.53675,-0.02139z" id="svg_24"/>
   <path fill="#030303" d="m421.39145,186.68553c1.19318,-0.17758 2.50052,-0.51582 3.04217,-0.01909c3.65033,3.34763 7.13837,6.87226 10.69175,10.35215c-4.26569,4.1421 -8.16349,7.92697 -11.87806,11.53391c-3.77194,-3.796 -7.67904,-7.72805 -12.22866,-12.30674c3.08102,-2.83835 6.60687,-6.08647 10.3728,-9.56023z" id="svg_25"/>
   <path fill="#0A0A0A" d="m523.03711,194.052c1.26459,1.31653 2.27399,2.37752 3.48901,3.65462c-4.01574,3.67645 -7.90533,7.23744 -11.45276,10.48518c-3.51382,-3.34457 -7.40567,-7.04898 -11.30099,-10.75668c3.58078,-3.53565 7.31436,-7.22215 11.83328,-11.68408c2.35864,2.64435 4.76746,5.34488 7.43146,8.30096z" id="svg_26"/>
   <path fill="#D255CC" d="m712.00269,175.09062c-8.92017,0.24735 -17.84974,0.33243 -26.7547,0.84426c-2.55964,0.14712 -5.26905,1.13998 -7.51972,2.4271c-3.67151,2.09963 -7.81091,1.61142 -10.64459,-1.88354c-3.04138,-3.75113 -2.61975,-9.64177 0.94122,-13.15004c3.15216,-3.10548 6.94452,-3.42093 9.97711,0.12923c3.28833,3.84951 7.32892,2.02176 11.18805,2.92756c-2.80072,0.52422 -5.73181,0.72489 -8.8327,0.93717c0.39258,2.63383 0.72656,4.87455 1.12592,7.55395c4.63281,0 9.08514,0 14.00219,0.0326c5.79535,-0.0116 11.12604,-0.05578 16.48975,-0.03339c0.03296,0.06659 0.02747,0.2151 0.02747,0.2151z" id="svg_27"/>
   <path fill="#030303" d="m483.01361,206.01709c-3.10767,-2.7464 -5.96554,-5.23656 -8.62521,-7.554c4.4472,-4.63231 8.1033,-8.4406 11.7941,-12.28503c3.7684,3.93353 7.38894,7.71272 11.10815,11.59489c-3.52591,3.20131 -7.49365,6.80379 -11.70993,10.63194c-0.20365,-0.1873 -1.2605,-1.15942 -2.56711,-2.3878z" id="svg_28"/>
   <path fill="#B24FDA" d="m752.03607,216.74693c5.10388,0.14093 10.20776,0.28185 15.59448,0.70694c-19.16961,0.3721 -38.62371,0.34758 -58.0733,0.63065c-4.60004,0.06695 -8.34247,-0.65744 -11.40961,-4.42763c-3.34838,-4.11594 -7.84082,-5.838 -13.25232,-5.07835c-2.28839,0.32123 -4.64263,0.17381 -7.41986,-0.00226c-0.453,-0.24167 -0.44372,-0.57323 0.01587,-0.57494c2.12403,-0.00827 3.78845,-0.01498 5.45282,-0.02136c6.84711,-0.02621 7.34992,-0.76752 5.01813,-7.9373c-5.18353,0 -10.48987,0 -15.81897,-0.10576c-0.02264,-0.10576 -0.07757,-0.31499 -0.07757,-0.315c7.0783,-0.06383 14.15783,-0.06751 21.23455,-0.21057c5.63733,-0.11396 7.52826,4.63607 10.33741,8.22958c-0.90937,0.85603 -2.20777,1.53766 -2.12378,1.86559c0.59674,2.33241 1.47613,4.59252 2.4635,7.44806c5.12988,0 10.57397,0 16.48449,0.01608c5.1579,0.00104 9.84931,-0.014 15.008,-0.01636c5.83356,-0.06068 11.19989,-0.13402 16.56616,-0.20737z" id="svg_29"/>
   <path fill="#D24CCC" d="m704.15241,138.10449c-1.71485,0.87291 -3.58002,1.53954 -5.11573,2.65834c-4.19555,3.05661 -7.99847,2.92148 -10.92352,-0.63446c-3.30658,-4.0198 -2.86005,-10.72398 0.92749,-13.92443c2.9751,-2.51391 7.89642,-1.90893 11.02203,1.35655c0.22828,0.23854 0.44587,0.48735 0.57203,1.3005c0.01275,3.91704 -3.61689,8.82266 3.5177,9.2435z" id="svg_30"/>
   <path fill="#D64ECD" d="m671.7771,199.349c0.28864,0.27293 0.34357,0.48216 0.30591,1.01352c-0.10657,4.11523 -1.02069,8.29197 4.94873,7.64053c0,0 -0.00928,0.33156 -0.01636,0.49696c-2.61786,1.18526 -5.29852,2.05832 -7.82171,3.26168c-3.25049,1.55021 -6.1745,2.08356 -9.0525,-0.81423c-3.34881,-3.37173 -4.39752,-7.76556 -2.11492,-11.14886c2.25476,-3.34194 5.45599,-4.88428 9.43829,-3.45761c1.47821,0.52959 2.69043,1.80162 4.31256,3.00801z" id="svg_31"/>
   <path fill="#A13BE2" d="m756.00775,161.96983c3.4386,0.1201 6.87714,0.24021 10.61945,0.61617c-9.00189,0.29512 -18.34235,0.84474 -27.60212,0.2129c-7.47113,-0.50976 -12.81756,1.78168 -16.83544,7.95667c-2.1402,3.28917 -5.25965,5.00714 -9.76923,4.37056c-0.41772,-0.03551 -0.41223,-0.18402 -0.42425,-0.67743c0.01794,-7.40474 0.01794,-7.40474 -6.00312,-7.64313c0.00275,-0.18704 -0.00372,-0.56114 -0.00372,-0.56114c8.46661,1.4062 13.18011,-3.81047 17.7326,-9.63319c1.83252,3.74244 4.42347,5.51434 8.31958,5.40039c3.31574,-0.09696 6.63617,-0.03543 10.41938,-0.03476c4.8255,0.00384 9.18622,-0.0016 13.54687,-0.00704z" id="svg_32"/>
   <path fill="#D64ECD" d="m702.0119,24.93753c-3.51495,3.88017 -8.38769,4.47756 -11.70477,1.43494c-3.40485,-3.1231 -3.50763,-9.93158 -0.20661,-13.69093c3.266,-3.71946 6.95026,-3.50025 11.46955,1.2332c-2.09491,4.1518 -1.93677,7.64619 0.44183,11.02279z" id="svg_33"/>
   <path fill="#CE45D2" d="m719.03113,242.03297c-3.06049,3.8875 -6.54346,6.42299 -11.63025,3.16459c0.74213,-2.22861 2.2998,-3.07729 1.35052,-6.00077c-2.32415,-7.15735 -0.11963,-9.92628 6.23529,-10.28033c0,0 0.05799,-0.00961 0.18287,0.24812c0.57745,0.45036 1.0299,0.64298 1.48242,0.8356c0,0 0.23633,0.09452 0.32257,0.47583c0.46844,0.72205 0.85058,1.06279 1.23279,1.40354c0.49408,0.21899 0.98809,0.438 1.38385,1.12529c-0.2522,3.32156 -0.40613,6.17485 -0.56006,9.02813z" id="svg_34"/>
   <path fill="#D24CCC" d="m723.01935,88.0267c-3.42267,2.12612 -6.87091,0.70903 -8.0423,-2.06954c-1.3985,-3.31708 -1.82928,-7.61885 -1.03888,-11.12417c0.83551,-3.70487 4.61011,-4.78454 8.76105,-3.45215c0.30841,5.95601 0.31427,11.30094 0.32013,16.64586z" id="svg_35"/>
   <path fill="#A931E3" d="m719.99548,216.95458c-5.44409,0 -10.88818,0 -16.01806,0c-0.98737,-2.85554 -1.86676,-5.11565 -2.4635,-7.44806c-0.08399,-0.32793 1.21441,-1.00956 2.2434,-1.54738c1.08802,-0.0037 1.80561,0.01252 3.19983,0.32306c4.78662,0.4149 8.89667,0.53549 13.01911,1.10572c0.01465,2.82198 0.0169,5.19433 0.01922,7.56666z" id="svg_36"/>
   <path fill="#B93ADC" d="m719.49445,242.06203c-0.30939,-2.88234 -0.15546,-5.73563 0.29901,-8.87508c4.96094,-0.29303 9.62134,-0.29988 14.74084,0.22c0.46045,3.19298 0.46186,5.85921 0.4632,8.52544c-5.01325,0.0529 -10.02649,0.10579 -15.50305,0.12964z" id="svg_37"/>
   <path fill="#A931E3" d="m743.0116,23.87186c-5.3512,0.04806 -10.70234,0.09613 -16.36951,-0.23848c-0.08923,-3.08939 0.13757,-5.79611 0.36438,-8.50284c5.02862,-0.05414 10.05737,-0.10828 15.54315,0.3555c0.45874,3.14056 0.46033,5.76319 0.46198,8.38582z" id="svg_38"/>
   <path fill="#9126ED" d="m757.54968,232.97583c0.45783,2.52997 0.45783,4.96957 0.45783,7.62987c3.5393,0.30941 6.46368,0.56508 9.65509,1.12407c-7.40735,0.31295 -15.08167,0.3226 -23.37824,-0.08704c-0.51135,-3.14108 -0.40045,-5.86287 -0.28949,-8.58467c4.36567,-0.05753 8.73126,-0.11505 13.55481,-0.08223z" id="svg_39"/>
   <path fill="#8B26F1" d="m759.52759,129.04568c-0.00824,2.68427 -0.47699,5.28368 -0.77393,8.19779c-4.82782,0.48138 -9.82751,0.64809 -15.28991,0.3016c-0.46357,-3.18075 -0.46442,-5.84834 -0.46522,-8.51591c5.35621,-0.02278 10.71241,-0.04556 16.52906,0.01652z" id="svg_40"/>
   <path fill="#B93ADC" d="m726.54529,15.05416c0.23437,2.78311 0.00757,5.48983 -0.36438,8.51159c-4.51599,0.35844 -8.8869,0.40185 -13.71985,-0.05784c-0.46246,-3.14945 -0.46277,-5.79581 -0.46307,-8.44216c4.69537,-0.02933 9.39068,-0.05865 14.5473,-0.01159z" id="svg_41"/>
   <path fill="#C540D6" d="m705.53027,166.16446c0.45905,0.07997 0.46552,0.45407 0.008,0.64261c-3.33679,0.18855 -6.21613,0.18855 -9.05524,0.18855c-0.57684,3.10873 -1.01959,5.49471 -1.46228,7.88069c-4.45233,0 -8.90466,0 -13.53747,0c-0.39936,-2.6794 -0.73334,-4.92012 -1.12592,-7.55395c3.10089,-0.21228 6.03198,-0.41295 9.27222,-0.85942c5.35327,-0.29003 10.39746,-0.33423 15.90069,-0.29848z" id="svg_42"/>
   <path fill="#8B26F1" d="m756.00397,161.56207c-4.35687,0.4132 -8.71759,0.41864 -13.58191,0.05615c-1.19495,-4.2924 -3.948,-5.91911 -7.50488,-6.6499c4.03631,-0.33123 8.06915,-0.87066 12.10992,-0.93988c4.81006,-0.08238 9.62701,0.23883 14.7804,0.63669c-1.7707,0.35419 -3.88074,0.45683 -6.23127,0.57118c0.15296,2.13552 0.28846,4.02677 0.42774,6.32576z" id="svg_43"/>
   <path fill="#9126ED" d="m743.46252,23.93848c-0.45257,-2.68925 -0.45416,-5.31188 -0.45117,-8.37124c4.69379,-0.48868 9.38294,-0.54063 14.48761,-0.15841c0.30091,2.60479 0.1864,4.77541 0.07147,6.95281c-1.5556,0.51674 -3.04052,1.00999 -4.52545,1.50324c-3.04388,0.04674 -6.08771,0.09348 -9.58246,0.0736z" id="svg_44"/>
   <path fill="#B93ADC" d="m724.12079,265.80804c-3.75196,0 -7.50391,0 -12.12543,0c0,-2.80093 0,-5.33987 0.01801,-8.33203c3.05542,-0.48379 6.09277,-0.51434 9.84631,-0.20031c2.16803,1.05209 4.93829,2.07766 4.85687,2.41531c-0.51245,2.12415 -1.65887,4.09531 -2.59576,6.11703z" id="svg_45"/>
   <path fill="#8422F1" d="m753.50201,23.93787c1.0279,-0.56624 2.51282,-1.05949 4.06842,-1.57623c0.11493,-2.1774 0.22944,-4.34802 0.38917,-6.87478c6.73663,-0.416 13.4281,-0.47587 20.58691,-0.46463c0.46741,0.0711 0.54626,0.46449 0.59436,0.65861c-2.71985,0.37078 -6.27606,-0.42165 -8.02838,1.00366c-1.66681,1.3557 -1.44886,5.02862 -2.13812,8.09911c-5.05744,0.02002 -10.03638,-0.37637 -15.47236,-0.84574z" id="svg_46"/>
   <path fill="#BD3FD5" d="m749.99262,193.89383c-1.7464,0.76364 -3.49274,1.52728 -5.63044,1.79727c-1.04699,-5.84901 -1.70263,-11.20437 -2.35827,-16.55975c2.51892,0.82756 5.03784,1.6551 7.76879,3.23813c0.21467,4.34509 0.21729,7.93473 0.21992,11.52435z" id="svg_47"/>
   <path fill="#B135E0" d="m731.00958,75.11777c3.69531,-0.05326 7.39057,-0.10652 11.53839,0.36007c0.44715,3.1911 0.44178,5.86234 0.43641,8.53357c-3.69141,0.05158 -7.38282,0.10315 -11.52912,-0.36692c-0.45184,-3.19 -0.44879,-5.85837 -0.44568,-8.52672z" id="svg_48"/>
   <path fill="#CE45D2" d="m711.56781,14.97393c0.43048,2.73817 0.43079,5.38453 0.43225,8.4704c-3.08526,0.67259 -6.17163,0.90567 -9.62311,1.31597c-2.74365,-3.19937 -2.90179,-6.69376 -0.64019,-10.53872c3.3208,0.06211 6.36083,0.36132 9.83105,0.75235z" id="svg_49"/>
   <path fill="#9A2AEB" d="m734.47278,154.97693c4.00128,0.72218 6.75433,2.34889 7.48443,6.63202c-3.27954,0.36725 -6.59997,0.30572 -9.91571,0.40268c-3.89611,0.11395 -6.48706,-1.65795 -8.01489,-5.52551c-0.01178,-0.36158 -0.00201,-0.47849 0.32971,-0.48679c0.76862,-0.30239 1.20557,-0.59645 1.64246,-0.89054c2.67651,-0.04107 5.35309,-0.08216 8.474,-0.13186z" id="svg_50"/>
   <path fill="#C540D6" d="m704.58063,138.16595c-7.56281,-0.4823 -3.93317,-5.38792 -3.72956,-9.01658c1.98755,-0.2843 3.6623,-0.28784 6.01319,0.06987c7.19934,0.54919 4.66906,5.48178 5.12457,8.84961c-2.32666,0.05287 -4.65332,0.10573 -7.4082,0.0971z" id="svg_51"/>
   <path fill="#A13BE2" d="m750.37683,193.71585c-0.38684,-3.41164 -0.38946,-7.00128 -0.41638,-11.0325c5.67822,-0.11333 11.38068,0.21492 17.54297,0.4899c-0.59961,0.2814 -1.659,0.61609 -3.51514,0.92854c-2.38482,0.06072 -3.97296,0.14366 -5.62372,0.22989c0,2.70792 0,4.91843 0,7.42825c2.15723,0 3.94074,0 5.72425,0c1.13049,0.15137 2.26098,0.30272 3.61548,0.70343c-5.49842,0.5244 -11.22077,0.79944 -17.32746,1.25249z" id="svg_52"/>
   <path fill="#9A2AEB" d="m742.54553,128.93874c0.4538,2.75799 0.45465,5.42558 0.45594,8.53645c-3.3667,0.54202 -6.73395,0.64075 -10.55225,0.22287c-0.77966,-3.23444 -1.10834,-5.95227 -1.43695,-8.67011c3.69342,-0.05987 7.38678,-0.11976 11.53326,-0.08921z" id="svg_53"/>
   <path fill="#9A2AEB" d="m743.43823,84.09181c-0.44848,-2.75163 -0.44311,-5.42287 -0.43487,-8.53636c3.3681,-0.49303 6.73327,-0.54383 10.54773,-0.07406c0.44427,3.18824 0.43927,5.85591 0.43426,8.52358c-3.36444,0.05575 -6.72888,0.11149 -10.54712,0.08684z" id="svg_54"/>
   <path fill="#C540D6" d="m730.64307,75.04152c0.3634,2.7446 0.36035,5.41297 0.35632,8.52937c-2.42798,1.7684 -4.85504,3.08876 -7.6311,4.43247c-0.3548,-5.32158 -0.36066,-10.66651 -0.36292,-16.47364c2.42609,0.83705 4.84863,2.1363 7.6377,3.5118z" id="svg_55"/>
   <path fill="#D24CCC" d="m741.65185,179.11159c1.0077,5.37514 1.66334,10.7305 2.32294,16.51051c-4.84839,1.18164 -6.57892,-2.40062 -7.55468,-5.83073c-1.30433,-4.58519 0.46508,-8.40158 5.23174,-10.67978z" id="svg_56"/>
   <path fill="#A931E3" d="m730.61517,128.93979c0.72571,2.806 1.05439,5.52383 1.38129,8.67538c-3.3689,0.49034 -6.7359,0.54697 -10.55237,0.07556c-1.56634,-5.53175 0.66681,-8.07981 5.53693,-8.69502c1.07904,-0.04803 2.15802,-0.09607 3.63415,-0.05592z" id="svg_57"/>
   <path fill="#B93ADC" d="m726.521,128.91052c-4.4101,0.7004 -6.64325,3.24846 -5.53064,8.70215c-2.70612,0.50221 -5.40772,0.55446 -8.55542,0.53145c-0.90162,-3.4431 1.62866,-8.37569 -5.15821,-8.84187c6.0857,-0.34449 12.43494,-0.41069 19.24427,-0.39173z" id="svg_58"/>
   <path fill="#FEE066" d="m907.00244,22.99534c-2.65607,-0.99786 -5.31061,-1.99997 -7.96887,-2.99196c-1.6156,-0.60294 -3.23706,-1.19028 -5.05103,-2.15937c8.05652,-1.64925 15.01813,2.63145 22.38648,5.01872c3.21045,1.04011 6.13574,2.96044 9.41455,4.73364c0.21991,0.45168 0.21582,0.65076 -0.18286,1.13546c-1.87775,-0.23865 -3.3512,-0.79265 -4.84583,-1.28166c-4.57977,-1.49832 -9.16766,-2.97174 -13.75244,-4.45483z" id="svg_59"/>
   <path fill="#D255CC" d="m714.74365,228.61713c-6.11188,0.65338 -8.3164,3.42231 -5.99225,10.57966c0.94928,2.92348 -0.60839,3.77216 -1.57013,5.71263c-4.52661,-2.69352 -4.88397,-6.81701 -3.37329,-11.12854c1.75385,-5.00535 5.64191,-6.5465 10.93567,-5.16375z" id="svg_60"/>
   <path fill="#A931E3" d="m724.56555,265.84985c0.49213,-2.06353 1.63855,-4.03469 2.151,-6.15884c0.08142,-0.33765 -2.68884,-1.36322 -4.40674,-2.332c3.74903,-0.32132 7.76404,-0.38138 12.23523,0.07831c0.46094,3.1329 0.46576,5.74612 0.47065,8.35931c-3.33515,0.03168 -6.67023,0.06335 -10.45014,0.05322z" id="svg_61"/>
   <path fill="#C3A6C1" d="m835.00824,250.06181c0.13806,5.07184 0.27612,10.14366 1.17486,15.56582c8.45966,0.32666 16.15858,0.303 23.85755,0.27935c8.68909,0.02396 17.37811,0.04788 26.53345,0.1416c-1.30097,0.36426 -3.06702,0.9072 -4.83545,0.91492c-18.6178,0.08124 -37.23596,0.07706 -56.24207,-0.21411c-0.37414,-0.47937 -0.36035,-0.64819 -0.19482,-0.92731c0.28393,-0.32882 0.43805,-0.53064 0.99444,-0.5534c2.70997,0.40841 5.03949,0.65442 7.29364,0.89245c0.52784,-5.99115 0.97315,-11.04522 1.4184,-16.09932z" id="svg_62"/>
   <path fill="#8422F1" d="m754.42572,84.08666c-0.43536,-2.74936 -0.43036,-5.41703 -0.422,-8.52662c4.02503,-0.49709 8.04663,-0.55227 12.52533,-0.53456c-1.05011,0.59812 -2.55743,1.12336 -4.52771,1.80993c0,2.02123 0,4.14804 0.00306,6.71679c-2.37739,0.50001 -4.75782,0.55808 -7.57868,0.53446z" id="svg_63"/>
   <path fill="#A62FE6" d="m743.552,232.97263c0.33191,2.80723 0.22101,5.52902 0.26721,8.59596c-2.53888,0.40121 -5.23498,0.45729 -8.37634,0.43858c-0.44671,-2.74101 -0.44812,-5.40724 -0.4491,-8.51813c2.70539,-0.49705 5.41041,-0.54945 8.55823,-0.51641z" id="svg_64"/>
   <path fill="#9D2CEA" d="m735.46344,265.84714c-0.45264,-2.6637 -0.45746,-5.27692 -0.461,-8.33035c0.17987,-0.47626 0.35834,-0.51224 1.08862,-0.21186c3.01069,0.45468 5.46961,0.57303 7.92139,1.12946c-0.00287,2.74106 0.00134,5.04409 0.00556,7.3471c-2.70227,0.03873 -5.40455,0.07746 -8.55457,0.06565z" id="svg_65"/>
   <path fill="#D3C6B4" d="m717.53882,106.31049c-1.16864,0.30615 -2.79193,0.66415 -4.41602,0.66801c-17.62964,0.04197 -35.25982,0.07646 -52.88885,-0.03638c-2.00116,-0.01281 -3.99652,-0.93885 -6.12067,-1.84961c2.45819,0.03598 5.03919,0.84243 7.62732,0.86618c18.4469,0.16929 36.89533,0.17883 55.79822,0.3518z" id="svg_66"/>
   <path fill="#A270D9" d="m719.96387,208.93826c-4.11005,-0.12057 -8.2201,-0.24116 -12.64972,-0.61578c19.71911,-0.20731 39.75787,-0.16055 60.26929,-0.13849c-4.56037,0.29022 -9.59339,0.6051 -15.55573,0.90833c-5.61328,0.02147 -10.29736,0.05459 -15.45105,0.03579c-5.85065,-0.09788 -11.23175,-0.14386 -16.61279,-0.18985z" id="svg_67"/>
   <path fill="#B8A16E" d="m680.42401,49.1225c0.05774,-0.33538 0.59045,-1.00433 1.11987,-1.00173c14.97168,0.07364 29.943,0.215 45.18366,0.67362c-15.09717,0.3214 -30.46362,0.31447 -46.30353,0.32811z" id="svg_68"/>
   <path fill="#BFB7AD" d="m656.34802,116.98545c1.2486,-0.3243 2.97754,-0.92435 4.71094,-0.93752c10.65326,-0.081 21.30749,-0.02938 32.44299,0.20494c0.48163,0.22684 0.55048,0.64883 0.55048,0.64883c-12.40735,0.02642 -24.81464,0.05284 -37.70441,0.08375z" id="svg_69"/>
   <path fill="#D3C6B4" d="m768.65344,107.03844c0.43408,0.25962 0.39698,0.44046 0.27759,0.88646c-11.74481,0.18263 -23.40735,0.10007 -35.54651,-0.0174c1.07514,-0.34962 2.62506,-0.92574 4.17896,-0.93667c10.20575,-0.07177 20.41235,-0.02158 31.08996,0.06761z" id="svg_70"/>
   <path fill="#8422F1" d="m744.01953,257.99634c-2.45886,-0.11838 -4.91778,-0.23673 -7.66565,-0.61707c10.03534,-0.30322 20.3598,-0.34439 31.14954,-0.39068c-2.5603,0.33493 -5.586,0.67498 -9.52307,1.01544c-5.26123,-0.00235 -9.61103,-0.00501 -13.96082,-0.00769z" id="svg_71"/>
   <path fill="#8445A9" d="m825.14996,265.9324c-0.01373,0.1688 -0.02752,0.33762 -0.12103,0.74753c-10.14117,0.27155 -20.20257,0.30194 -30.7558,0.28009c-0.49176,-0.05224 -0.58416,-0.48321 -0.09063,-0.70669c5.60723,-0.24994 10.72088,-0.2764 16.29833,-0.27597c5.19892,0.00293 9.93403,-0.021 14.66913,-0.04496z" id="svg_72"/>
   <path fill="#B8A16E" d="m694.51495,116.94957c-0.46252,-0.04787 -0.53137,-0.46986 -0.54754,-0.68265c9.04187,-0.25355 18.09997,-0.2943 27.63257,-0.31584c-0.83826,0.37769 -2.14789,1.03181 -3.46436,1.04596c-7.71844,0.083 -15.4386,0.01648 -23.62067,-0.04747z" id="svg_73"/>
   <path fill="#9126ED" d="m769.19934,47.30752c2.59815,-0.2986 5.24976,-0.2952 8.34656,-0.01146c0.43878,0.46244 0.43237,0.64453 0.42602,0.82663c-2.31268,0.06298 -4.62542,0.12596 -7.3562,0.23474c-0.73309,-0.21877 -1.04803,-0.48335 -1.41638,-1.04991z" id="svg_74"/>
   <path fill="#FDA562" d="m982.0498,187.05078c-0.19006,-0.03578 -0.37823,-0.09254 -0.82232,-0.56479c0.06177,-1.09335 0.37958,-1.77121 0.69732,-2.44906c0.19098,-0.00367 0.3819,-0.0073 0.85938,0.00329c0.24683,0.23233 0.20709,0.45044 -0.12805,1.1146c-0.39154,0.91041 -0.4878,1.37477 -0.58399,1.83911c-0.00006,0 -0.02057,0.03586 -0.02234,0.05685z" id="svg_75"/>
   <path fill="#AB37DC" d="m903.38953,263.05689c0.50518,-0.3541 1.36926,-0.67795 2.61206,-0.97565c-0.4986,0.35272 -1.37586,0.67929 -2.61206,0.97565z" id="svg_76"/>
   <path fill="#D3C6B4" d="m653.1734,103.77705c-0.52112,0.06882 -1.17773,-0.10941 -2.06641,-0.54568c0.48896,-0.07249 1.20991,0.11307 2.06641,0.54568z" id="svg_77"/>
   <path fill="#DF6BD4" d="m982.28406,186.86298c-0.11573,-0.33339 -0.01947,-0.79775 0.26654,-1.39283c0.10834,0.33349 0.02685,0.79767 -0.26654,1.39283z" id="svg_78"/>
   <path fill="#A13BE2" d="m725.71338,155.04216c-0.15149,0.36072 -0.58844,0.65478 -1.29846,0.95863c0.15564,-0.33523 0.58441,-0.68025 1.29846,-0.95863z" id="svg_79"/>
   <path fill="#C540D6" d="m942.34418,244.06052c0.10632,-0.33193 0.48871,-0.66486 1.13775,-1.02761c-0.10949,0.32231 -0.48559,0.67447 -1.13775,1.02761z" id="svg_80"/>
   <path fill="#D255CC" d="m716.54907,229.76274c-0.34961,0.04482 -0.80206,-0.1478 -1.36023,-0.576c0.3487,-0.04422 0.80304,0.14717 1.36023,0.576z" id="svg_81"/>
   <path fill="#D255CC" d="m718.12927,231.62788c-0.30414,-0.08908 -0.68628,-0.42982 -1.09094,-1.04171c0.32263,0.08258 0.66779,0.43632 1.09094,1.04171z" id="svg_82"/>
   <path fill="#C540D6" d="m940.27167,245.73851c-0.10596,-0.19922 0.04455,-0.39154 0.43823,-0.5973c0.11975,0.19825 -0.02191,0.40414 -0.43823,0.5973z" id="svg_83"/>
   <path fill="#C540D6" d="m941.31067,244.89346c-0.16254,-0.27279 0.01672,-0.51065 0.51562,-0.74646c0.22486,0.29367 0.06031,0.55346 -0.51562,0.74646z" id="svg_84"/>
   <path fill="#8422F1" d="m768.96826,95.29031c0.3346,-0.03057 0.56806,0.22089 0.80371,0.73809c-0.20862,0.27061 -0.41949,0.27548 -0.9259,0.16659c-0.19,-0.28339 -0.08453,-0.45302 0.12219,-0.90468z" id="svg_85"/>
   <path fill="#9126ED" d="m818.99603,16.05425c4.16156,-0.02091 8.32618,0.04744 12.48358,-0.09547c2.58741,-0.08894 3.6872,0.92637 3.4831,3.50741c-0.10468,1.32348 -0.01294,2.66236 -0.01288,3.99429c0.00128,53.61025 -0.02454,107.22057 0.10242,160.83054c0.005,2.12625 1.46417,4.24907 2.59863,6.95715c0.6947,2.79512 1.02563,5.00833 1.3819,7.21747c0.30389,1.88484 0.63678,3.76498 1.08307,6.38893c-0.00409,-0.00023 1.43994,0.07983 2.87792,0.37678c-0.00598,0.21692 0.00806,0.65068 0.00806,0.65068c-6.98877,0.06646 -13.98297,-0.01115 -20.96405,0.25605c-3.88373,0.14866 -5.3244,-1.22818 -5.25177,-5.17714c0.19275,-10.48448 0.06262,-20.97493 0.06116,-31.463c-0.00513,-36.95798 0.05053,-73.91625 -0.1319,-110.87336c-0.01434,-2.90779 -1.68609,-5.80741 -2.70209,-9.11105c-0.1145,-0.40023 0.04102,-0.60812 0.4104,-0.65676c1.43671,-2.68252 3.21082,-5.25668 3.4394,-7.96141c0.69732,-8.25337 0.79937,-16.55702 1.13305,-24.84111z" id="svg_86"/>
   <path fill="#BD3FD5" d="m843.45929,205.98825c-0.45746,-0.10622 -0.4715,-0.53998 0.0022,-0.75714c5.8269,-0.23535 11.18011,-0.25356 17.00213,-0.25432c7.15546,0.00472 13.84217,-0.00804 20.99652,-0.00798c4.44294,0.01381 8.42438,0.15846 12.39228,-0.01163c11.12567,-0.477 11.12298,-0.52822 11.15027,-11.51121c0.00201,-0.82811 0.01715,-1.65621 0.02624,-2.4843c8.00293,-0.30333 16.00586,-0.60667 24.4726,-0.8819c0.62921,3.86274 0.79467,7.69735 0.66449,11.78232c-4.03467,-1.40564 -7.11988,-0.92427 -10.03412,2.3c-1.11267,1.23105 -3.49146,1.83423 -5.29786,1.84353c-23.63861,0.12164 -47.27807,0.08541 -71.37475,-0.01737z" id="svg_87"/>
   <path fill="#8445A9" d="m808.12762,212.46701c-0.67449,-1.29626 -1.94348,-3.05524 -1.94763,-4.81721c-0.11041,-46.47211 -0.09124,-92.94448 -0.09112,-139.41681c0,-8.20752 0.00647,-8.21721 -8.12146,-8.2247c-8.9942,-0.00829 -17.98835,0.00352 -27.42969,-0.07732c4.80939,-0.40152 10.06207,-0.84566 15.3233,-1.00138c5.32581,-0.15762 10.6717,0.18829 15.98731,-0.09232c4.71979,-0.24917 6.08282,1.91718 6.06604,6.25411c-0.09046,23.32096 -0.06445,46.64254 -0.02307,69.96381c0.04559,25.64929 0.15155,51.29846 0.23632,77.41182z" id="svg_88"/>
   <path fill="#963DAE" d="m930.53143,219.96222c-1.68298,4.87274 -6.02472,6.16838 -11.08203,6.96722c-2.22906,-3.47018 -4.99719,-5.17172 -9.09741,-4.97914c-4.45343,0.20917 -8.9248,0.03775 -13.86255,-0.40413c-0.21686,-3.28202 -1.95373,-3.60017 -4.21698,-3.57916c-6.76221,0.06278 -13.52698,0.0869 -20.28735,-0.04675c-1.69165,-0.03345 -3.37049,-0.7171 -5.05518,-1.10193c5.4549,-0.17459 10.909,-0.45593 16.36493,-0.4998c9.15088,-0.0736 18.30292,-0.00719 27.45441,0.02325c4.07647,0.01357 8.00238,-0.45602 11.51056,3.09661c1.39325,1.41087 5.18908,0.44921 8.2716,0.52383z" id="svg_89"/>
   <path fill="#7D24BA" d="m866.46875,216.76503c2.14587,0.43813 3.82471,1.12178 5.51636,1.15523c6.76037,0.13365 13.52514,0.10953 20.28735,0.04675c2.26325,-0.02101 4.00012,0.29714 3.75098,3.56064c-1.71283,0.44095 -3.43396,0.464 -6.05335,0.47888c-10.25012,-0.02002 -19.60199,-0.03183 -29.00696,-0.42842c-1.61273,-1.44627 -3.11926,-3.31642 -4.74194,-3.42331c-5.72119,-0.37683 -11.4823,-0.14903 -17.22626,-0.42192c0.00904,-0.45216 0.016,-0.63295 0.02295,-0.81374c8.99658,-0.06913 17.99317,-0.13827 27.45087,-0.15411z" id="svg_90"/>
   <path fill="#651CC6" d="m838.55371,216.83557c0.45722,0.26436 0.45026,0.44515 0.13464,1.02905c-1.43884,1.63097 -2.56903,2.85881 -4.02978,4.10424c-0.77161,0.03772 -1.21252,0.05786 -2.12195,0.05845c-7.1546,-0.01324 -13.84076,-0.00692 -20.90198,-0.01468c-1.12542,-0.03736 -1.87561,-0.06065 -2.62585,-0.08393c0.35486,-1.79589 0.70972,-3.59177 1.12994,-5.79159c0.06537,-0.40394 0.50714,-0.40161 0.85102,-0.03355c0.71832,0.43036 1.09277,0.49268 1.46722,0.55499c8.54419,0.03115 17.08832,0.06229 26.09674,0.17702z" id="svg_91"/>
   <path fill="#871FF5" d="m778.43225,48.23383c-0.45398,-0.29324 -0.44757,-0.47533 -0.4414,-0.93039c1.39202,-0.28411 2.7843,-0.29528 5.05993,-0.30584c5.56848,-0.00236 10.25372,-0.00533 14.94397,-0.00302c0.00501,0.00528 0.01746,0.01859 0.0174,0.31488c0.00628,0.49373 0.01269,0.69116 0.01916,0.88859c-6.37958,0.04898 -12.75909,0.09795 -19.59906,0.03578z" id="svg_92"/>
   <path fill="#9126ED" d="m798.48047,48.3028c-0.45563,-0.30218 -0.46204,-0.49961 -0.00885,-0.99637c4.50055,-0.00063 8.5415,0.29808 12.52557,0.68007c-0.05694,0.08328 -0.17547,0.24654 -0.17547,0.24654c-3.96405,0.05817 -7.9281,0.11634 -12.34125,0.06976z" id="svg_93"/>
   <path fill="#9126ED" d="m813.81909,49.21584c-0.88312,-0.13471 -1.68677,-0.37196 -2.74389,-0.79601c-0.25348,-0.18679 -0.13495,-0.35005 0.25372,-0.41146c1.16754,0.25808 1.94641,0.57756 2.72528,0.89704c0,0 -0.15552,0.20789 -0.23511,0.31043z" id="svg_94"/>
   <path fill="#8445A9" d="m812.27527,216.44336c-0.19275,0.15288 -0.5672,0.09056 -1.09754,-0.22376c0.2013,-0.16517 0.5586,-0.07832 1.09754,0.22376z" id="svg_95"/>
   <path fill="#C540D6" d="m934.69141,214.72035c0.09765,0.17867 -0.03016,0.54469 -0.39173,1.08531c-0.10046,-0.18292 0.0329,-0.54042 0.39173,-1.08531z" id="svg_96"/>
   <path fill="#8445A9" d="m810.20508,215.38846c-0.23395,0.12095 -0.5575,0.01593 -0.91028,-0.36463c0.32165,-0.27606 0.60492,-0.138 0.91028,0.36463z" id="svg_97"/>
   <path fill="#8445A9" d="m809.20544,214.4829c-0.26092,0.04881 -0.5722,-0.16575 -0.84643,-0.68529c0.2901,-0.06269 0.54315,0.17961 0.84643,0.68529z" id="svg_98"/>
   <path fill="#8422F1" d="m808.64465,221.91135c1.11438,0.04063 1.86457,0.06392 2.97705,0.52139c0.03424,3.37599 -0.41717,6.31013 -0.59991,9.26093c-0.70612,11.40673 1.30457,22.89427 -1.0047,34.25683c-5.11371,0.02643 -10.22736,0.05289 -15.83679,0.08246c-0.65112,-1.79886 -0.94147,-3.60074 -0.94226,-5.40274c-0.02362,-51.29607 -0.01545,-102.59215 -0.02784,-153.88822c-0.00042,-1.82528 -0.15734,-3.65054 -0.44451,-5.87866c-2.14991,-1.56543 -4.01776,-3.5348 -6.05854,-3.73405c-5.37243,-0.52449 -10.81988,-0.27951 -16.5498,-0.63083c4.82074,-1.01193 9.93652,-1.98787 15.09485,-2.33911c2.26336,-0.15411 4.61346,0.96577 6.19946,1.33738c-0.14752,-8.35105 -0.46771,-16.81166 -0.31061,-25.26339c0.03382,-1.81688 1.79224,-3.60168 2.80884,-5.76135c1.55176,-0.38843 3.05218,-0.3873 4.54987,-0.45089c3.73913,-0.15879 5.59552,1.54151 5.49755,5.35408c-0.06848,2.66481 -0.01196,5.33284 -0.01177,7.99943c0.00268,45.49868 0.03143,90.99742 -0.04163,136.49597c-0.00586,3.64268 0.55517,6.60589 4.70074,8.04077z" id="svg_99"/>
   <path fill="#871FF5" d="m737.04633,209.18004c4.68402,-0.03313 9.3681,-0.06625 14.5191,-0.04527c1.59985,1.00401 2.73273,1.9539 3.8634,2.9019c-1.09643,1.34343 -2.20764,2.70498 -3.35583,4.38841c-5.4032,0.3952 -10.76953,0.46854 -16.59632,0.15564c0.21619,-2.7244 0.89289,-5.06253 1.56965,-7.40068z" id="svg_100"/>
   <path fill="#8E24EF" d="m744.01245,258.43439c4.35687,-0.43537 8.70667,-0.43271 13.52075,-0.42853c0.46735,2.31921 0.47034,4.63693 0.47791,7.38159c-4.35394,0.45215 -8.71253,0.47736 -13.53211,0.4483c-0.46521,-2.35727 -0.46942,-4.6603 -0.46655,-7.40136z" id="svg_101"/>
   <path fill="#8B26F1" d="m764.05627,191.34338c-1.75097,0.41655 -3.53448,0.41655 -5.69171,0.41655c0,-2.50982 0,-4.72033 0,-7.42825c1.65076,-0.08623 3.2389,-0.16917 5.26661,-0.20192c0.42395,2.29916 0.40826,4.54811 0.4251,7.21362z" id="svg_102"/>
   <path fill="#FED764" d="m888.552,18.00694c-3.9389,6.62087 -1.38629,13.58573 -0.38934,20.40784c0.20331,1.39102 1.77942,2.58144 2.33618,4.22316c-2.88086,0.35883 -5.37518,0.35883 -7.86951,0.35883c0.00251,0.37394 0.00507,0.74788 0.00757,1.12182c3.78754,0.96445 7.57514,1.92891 11.12897,3.16794c-1.41419,1.62363 -3.55206,2.92839 -3.61694,4.32906c-0.36512,7.89055 -0.27857,15.80435 -0.24781,23.70983c0.01392,3.57976 1.01172,7.38441 -3.39447,9.73601c-8.15027,-0.05527 -15.8338,-0.09863 -23.51727,-0.142c3.51398,-4.50213 3.07977,-9.7607 3.04334,-15.01656c-0.09662,-13.93045 -0.03541,-27.86201 -0.03187,-41.79313c0.00239,-9.55202 3.41065,-12.43437 12.77155,-11.00329c3.08228,0.47122 6.21588,0.60721 9.7796,0.90049z" id="svg_103"/>
   <path fill="#E1B24D" d="m862.74115,84.94607c7.9317,0.01673 15.61523,0.06009 23.98956,0.38489c2.34717,0.9648 4.12677,1.44636 5.63727,2.36855c4.93652,3.01386 9.77509,6.18827 14.23901,9.30189c-2.75274,-0.50541 -5.07348,-1.23501 -7.44018,-1.44412c-1.74048,-0.15378 -3.54102,0.37358 -5.70282,0.56413c-2.40967,-0.40336 -4.43134,-0.77346 -6.59216,-1.49292c-2.3891,-0.82393 -4.63916,-1.29849 -6.9773,-1.91115c-0.40539,-0.34348 -0.66351,-0.26838 -1.33099,0.13042c-7.82544,0.00571 -15.18244,-0.0318 -22.53937,-0.06932c-1.40149,-5.13623 4.45636,-4.259 5.91467,-7.42193c0.05597,-0.34936 0.55408,-0.38379 0.80231,-0.41044z" id="svg_104"/>
   <path fill="#FCD670" d="m835.10626,249.65726c-0.54327,5.45865 -0.98858,10.51272 -1.51642,16.50387c-2.25415,-0.23803 -4.58367,-0.48404 -7.30529,-1.371c0.0213,-9.26486 0.43469,-17.88876 1.16845,-26.55731c0.71595,-0.19861 1.11145,-0.3526 1.88806,-0.51798c0.86133,-0.1717 1.34168,-0.33203 1.98511,-0.35841c0.48029,0.17085 0.72278,0.05331 1.33496,-0.14253c4.39716,0.02388 8.34992,-0.02841 12.65393,0.13026c9.34388,0.25256 18.33667,0.3357 27.32874,0.28746c1.23718,-0.00663 2.70038,-0.35527 3.66919,-1.07223c6.61926,-4.89841 8.14654,-4.88452 14.53387,0.60029c0,0 -0.05182,-0.07045 -0.06445,0.3163c0.3432,1.24121 0.69904,2.09567 1.05487,2.95014c0,-0.00002 -0.15387,0.2435 -0.14337,0.75729c-0.32166,2.60852 -0.65375,4.70322 -0.9859,6.79793c-5.83508,5.43867 -7.87299,5.5664 -14.11621,1.19542c-1.00482,-0.70349 -2.3971,-1.19048 -3.61493,-1.20026c-11.61707,-0.09325 -23.23542,-0.09418 -34.85254,-0.00835c-0.97644,0.00722 -1.94684,0.83693 -3.01807,1.68911z" id="svg_105"/>
   <path fill="#AB39DC" d="m890.89746,236.70403c-6.43793,-5.02916 -7.96521,-5.04305 -14.58447,-0.14464c-0.96881,0.71696 -2.43201,1.0656 -3.66919,1.07223c-8.99207,0.04824 -17.98486,-0.0349 -27.32507,-0.5701c-0.34217,-0.68188 -0.33655,-0.87017 0.13647,-1.057c13.52301,0.0009 13.52295,0.0009 13.55743,-12.95232c0.00092,-0.32768 0.00531,-0.65535 0.34064,-0.99939c0.776,-0.04088 1.21942,-0.0654 1.6629,-0.08992c9.35193,0.01181 18.7038,0.02362 28.52509,0.05956c0.78186,4.75804 1.09436,9.49198 1.3562,14.68158z" id="svg_106"/>
   <path fill="#AB39DC" d="m891.0304,247.98842c0.00976,-2.10179 0.34185,-4.19649 0.73913,-6.68242c0.14899,1.71701 0.23279,3.82524 0.27234,6.31372c-0.25928,0.37877 -0.47424,0.37727 -1.01147,0.3687z" id="svg_107"/>
   <path fill="#AB39DC" d="m891.96082,240.08823c-0.47937,-0.51658 -0.83521,-1.37104 -1.19324,-2.57113c0.4375,0.51398 0.87719,1.3736 1.19324,2.57113z" id="svg_108"/>
   <path fill="#BFB7AD" d="m855.5575,92.84399c7.8236,-0.02803 15.1806,0.00948 23.24182,0.04858c0.70422,0.00158 1.18335,-0.03714 1.18335,-0.03714c2.25,0.47457 4.50006,0.94913 6.47064,1.74642c-2.05402,0.00695 -3.82746,-0.57529 -5.60333,-0.58253c-14.57917,-0.0595 -29.15882,-0.01204 -43.73829,0.00296c0.00617,-0.21028 0.01239,-0.42056 0.1189,-0.93201c6.02026,-0.26102 11.94025,-0.22087 18.32691,-0.24628z" id="svg_109"/>
   <path fill="#871FF5" d="m814.42358,48.85677c-1.14825,-0.27084 -1.92712,-0.59032 -3.03772,-0.93168c-4.37274,-0.32058 -8.41369,-0.61929 -12.91418,-0.91496c-0.45947,0.00304 -0.47192,-0.01027 -0.48328,-0.43745c-0.32415,-7.84477 -0.57727,-15.26562 -0.98181,-22.67821c-0.14337,-2.62745 -0.65546,-5.23477 -0.99914,-7.85128c7.37255,-0.01449 14.74505,-0.02897 22.5531,-0.0162c0.1018,8.31135 -0.00025,16.615 -0.69757,24.86837c-0.22858,2.70473 -2.00269,5.27889 -3.4394,7.96141z" id="svg_111"/>
   <path fill="#7F1CFB" d="m795.54285,16.0102c0.80828,2.6495 1.32037,5.25682 1.46374,7.88427c0.40454,7.41259 0.65766,14.83344 0.97681,22.67293c-4.6789,0.42487 -9.36414,0.42784 -14.51514,0.42713c-0.46661,-6.96173 -0.35925,-13.92224 -0.51745,-20.8767c-0.07105,-3.11971 -0.67359,-6.22733 -0.99048,-9.71108c4.40234,-0.39028 8.76019,-0.40991 13.58252,-0.39655z" id="svg_112"/>
   <path fill="#B135E0" d="m904.56879,190.95573c0.45105,0.83403 0.43591,1.66213 0.4339,2.49024c-0.02729,10.98299 -0.0246,11.03421 -11.15027,11.51121c-3.9679,0.17009 -7.94934,0.02544 -12.39649,-0.36914c-2.13861,-4.77401 -3.80536,-9.15446 -5.47204,-13.53489c2.81579,-0.15758 5.63165,-0.31514 8.73474,-0.75481c6.6549,0.02908 13.02246,0.34027 19.85016,0.65739z" id="svg_113"/>
   <path fill="#9D2FED" d="m859.99481,204.95934c-5.35321,0.01821 -10.70642,0.03642 -16.52728,0.05487c-1.91174,-0.07981 -3.35577,-0.15987 -3.35168,-0.15964c-0.44629,-2.62395 -0.77918,-4.50409 -1.08307,-6.38893c-0.35627,-2.20914 -0.6872,-4.42235 -1.02533,-7.06516c6.35571,-0.43486 12.70758,-0.43838 19.5271,-0.01065c1.13177,4.81069 1.79602,9.1901 2.46026,13.56951z" id="svg_114"/>
   <path fill="#A62FE6" d="m860.46362,204.97679c-1.13305,-4.39686 -1.7973,-8.77627 -2.46301,-13.57985c5.68286,-0.41342 11.36725,-0.40269 17.51746,-0.36787c2.1325,4.40451 3.79925,8.78496 5.47015,13.54616c-6.68243,0.39352 -13.36914,0.40628 -20.5246,0.40156z" id="svg_115"/>
   <path fill="#FDA562" d="m968.01154,72.99568c3.20385,6.10566 6.84423,12.02581 9.53222,18.35072c9.15534,21.54313 10.75617,44.28327 9.26868,67.27889c-0.47504,7.34409 -2.72662,14.57323 -4.72351,21.8383c-6.73712,-0.18763 -12.91608,-0.35863 -19.04346,-0.91549c0.01935,-3.60381 -0.03729,-6.82169 -0.04083,-10.03962c-0.01178,-10.75345 -0.01135,-21.50692 -0.00202,-32.26039c0.00531,-6.12088 0.01722,-6.12086 5.94159,-4.89952c0.01368,0.77022 0.01099,1.21065 -0.151,1.74372c-0.04736,0.36465 0.06446,0.63664 0.19287,1.2745c0.29871,0.97424 0.58088,1.58264 0.86304,2.19104c1.67505,-14.16229 -1.23828,-27.49107 -5.58331,-40.76109c-0.25666,-1.06509 -0.76612,-1.92942 -1.28241,-3.03267c-0.00678,-0.23891 -0.01953,-0.71675 -0.00855,-1.12985c-0.68322,-2.89319 -1.15893,-5.46122 -2.11462,-7.83606c-2.41144,-5.9917 0.70251,-11.26318 7.15131,-11.80248z" id="svg_116"/>
   <path fill="#FCB262" d="m967.875,72.66987c-6.31226,0.86511 -9.42621,6.13659 -7.01477,12.12829c0.95569,2.37484 1.4314,4.94287 1.77136,7.76782c-1.40021,-1.27942 -2.44446,-2.90481 -3.49243,-4.52782c-2.37665,-3.6806 -4.75507,-7.36004 -7.17261,-11.38701c-3.33062,-3.79384 -6.62133,-7.24062 -9.95031,-11.00201c-0.36579,-1.09044 -0.69343,-1.86627 -1.01111,-3.0469c0.00573,-4.7497 0.07647,-9.09641 -0.02912,-13.43883c-0.07013,-2.8846 1.07263,-4.35421 4.04309,-4.17747c8.86744,8.04455 17.5802,16.21748 22.8559,27.68393z" id="svg_117"/>
   <path fill="#FDBD63" d="m944.86755,44.68584c-2.81891,0.12336 -3.96167,1.59297 -3.89154,4.47757c0.10559,4.34242 0.03485,8.68913 -0.30108,13.43594c-0.78028,0.39449 -1.2204,0.38705 -1.81104,0.08002c-4.72076,-3.76152 -9.29108,-7.22343 -13.8999,-11.04316c-5.40265,-8.45262 -5.04132,-15.215 1.04553,-20.64828c6.23548,4.46594 12.47101,8.93187 18.85803,13.69791z" id="svg_118"/>
   <path fill="#FEC663" d="m926.00598,30.66358c-6.08331,5.75763 -6.44464,12.52001 -1.40259,20.93475c-6.7492,-2.31913 -13.17627,-4.9582 -19.60339,-7.59726c0.56079,-6.75728 1.12152,-13.51457 1.84241,-20.6388c4.74481,1.11616 9.3327,2.58958 13.91247,4.0879c1.49463,0.48901 2.96808,1.04301 4.83838,1.58024c0.39453,0.44491 0.40186,0.87687 0.41272,1.63317z" id="svg_119"/>
   <path fill="#E2914E" d="m962.99383,179.93399c6.17902,0.17097 12.35798,0.34197 18.84589,0.82071c0.25012,1.05019 0.19141,1.79257 0.10889,2.9086c-0.34155,1.05148 -0.65936,1.72934 -0.98865,2.69882c-11.68756,0.36786 -23.36359,0.44411 -35.5116,0.06853c-0.79913,-2.44518 -1.12615,-4.43852 -1.07824,-6.43678c1.12402,-0.02585 1.87311,-0.0468 3.08899,-0.04769c5.4895,0.0093 10.51214,-0.00145 15.53472,-0.01219z" id="svg_120"/>
   <path fill="#9D2CEA" d="m860.32092,265.63882c-7.97924,0.29181 -15.67816,0.31547 -23.83709,0.25046c-0.46259,-4.38943 -0.3158,-8.6972 -0.51783,-12.98861c-0.14605,-3.10099 1.10675,-4.01955 4.06098,-3.94603c6.44726,0.16044 12.91852,0.34266 19.34607,-0.04513c4.18634,-0.25256 5.90673,1.99833 6.39679,5.26128c0.50299,3.3488 0.11151,6.83199 0.11151,10.35643c-2.08026,0.33231 -3.68018,0.58786 -5.56043,1.1116z" id="svg_121"/>
   <path fill="#FDDF6B" d="m904.57361,43.99916c6.85351,2.64097 13.28058,5.28004 20.06824,7.95699c4.93096,3.49979 9.50128,6.9617 14.25097,11.06826c1.17352,1.40954 2.16761,2.17444 3.16162,2.93934c3.29078,3.44678 6.58149,6.89356 9.64576,10.867c-1.27234,0.68041 -2.38501,1.13369 -3.34888,0.91898c-1.51581,-0.33767 -2.93146,-1.12515 -4.72779,-1.76451c-2.76373,-2.02492 -5.1892,-4.0075 -7.65106,-6.3391c-5.34607,-4.11927 -10.6557,-7.88952 -16.12463,-11.96431c-7.93372,-5.71401 -16.69055,-8.68874 -25.84827,-10.66986c-3.78753,-0.96445 -7.57513,-1.92891 -11.36267,-2.89336c-0.0025,-0.37394 -0.00506,-0.74788 -0.00757,-1.12182c2.49433,0 4.98865,0 7.93048,-0.00421c4.82746,0.3321 9.20746,0.6684 14.0138,1.0066z" id="svg_122"/>
   <path fill="#DEA353" d="m943.99512,179.99878c0.32709,1.99335 0.65411,3.98669 0.99182,6.34741c-17.44904,0.38156 -34.90875,0.39574 -52.6897,0.14133c31.35718,-13.96665 38.03235,-55.48216 15.60303,-79.95038c-3.70593,-4.04291 -9.02875,-6.60374 -13.82629,-10.11598c1.55181,-0.4903 3.35235,-1.01766 5.09283,-0.86388c2.3667,0.20911 4.68744,0.93871 7.46118,1.66401c0.43329,0.2189 0.44366,0.66062 0.46454,1.02014c0.9884,0.82239 1.95599,1.28526 3.17981,1.85838c0.74335,0.37832 1.23041,0.64638 1.86957,1.21457c19.02478,25.75448 18.36316,51.6002 0.8291,78.61343c6.23718,0 11.62793,0 17.48358,0.01884c4.82342,0.02993 9.18201,0.04104 13.54053,0.05213z" id="svg_123"/>
   <path fill="#B93ADC" d="m695.48541,174.90889c-0.02197,-2.41856 0.42078,-4.80454 0.99762,-7.91327c2.83911,0 5.71845,0 9.05249,-0.00151c6.47858,0.04985 6.47858,0.04985 6.42761,7.388c-5.35162,0.47102 -10.68231,0.5152 -16.47772,0.52678z" id="svg_124"/>
   <path fill="#C540D6" d="m677.49133,208.00134c-6.42901,0.65315 -5.51489,-3.52359 -5.38562,-7.53305c5.3667,-0.42561 10.67304,-0.42561 15.85657,-0.42561c2.33179,7.16978 1.82898,7.91109 -5.01813,7.9373c-1.66437,0.00638 -3.32879,0.01309 -5.45282,0.02136z" id="svg_125"/>
   <path fill="#9A2AEB" d="m736.57666,209.12811c-0.20709,2.39008 -0.88379,4.72821 -1.56726,7.43994c-4.69818,0.38861 -9.38959,0.40365 -14.54749,0.40261c-0.46875,-2.38841 -0.471,-4.76076 -0.48565,-7.58275c5.36865,-0.40366 10.74975,-0.35768 16.6004,-0.2598z" id="svg_126"/>
   <path fill="#8E24EF" d="m844.98779,236.00305c-0.00561,0.1883 -0.01123,0.37659 -0.02038,0.84751c-3.95636,0.33493 -7.90912,0.38722 -12.4845,0.31005c-0.8775,-0.14756 -1.10992,-0.08378 -1.31982,0.06189c-0.48035,0.16031 -0.9607,0.32064 -2.00989,0.3044c-1.0528,0.13248 -1.53662,0.44153 -2.02051,0.75057c-0.41345,8.6239 -0.82684,17.2478 -1.22864,26.35028c-0.16424,0.66369 -0.31836,0.86551 -0.60229,1.19433c-4.8869,0.13428 -9.62201,0.15821 -14.82093,0.15528c1.84553,-11.38942 -0.16516,-22.87696 0.54096,-34.28369c0.18274,-2.9508 0.63415,-5.88494 0.97504,-9.24686c6.69903,-0.42642 13.38519,-0.43274 20.53845,0.03146c0.46649,0.8004 0.46527,1.13028 0.46515,1.46016c-0.00507,12.07455 -0.00501,12.07455 11.98736,12.06462z" id="svg_127"/>
   <path fill="#761EC6" d="m860.96313,221.57811c-0.39044,0.4093 -0.83386,0.43382 -2.08038,0.44992c-8.49988,-0.03119 -16.19678,-0.05396 -23.89361,-0.07674c1.13018,-1.22786 2.26037,-2.4557 3.69714,-3.8153c6.05261,-0.13022 11.81372,-0.35802 17.53491,0.01881c1.62268,0.10689 3.12921,1.97704 4.74194,3.42331z" id="svg_128"/>
   <path fill="#9A2AEB" d="m834.65857,221.96887c8.0274,0.0052 15.7243,0.02797 23.8916,0.07552c0.46777,0.35246 0.46338,0.68013 0.46246,1.00781c-0.03448,12.95322 -0.03442,12.95322 -13.55743,12.95232c-12.45978,0.00846 -12.45984,0.00846 -12.45477,-12.06609c0.00012,-0.32988 0.00134,-0.65976 0.00335,-1.4406c0.44227,-0.47111 0.88318,-0.49125 1.65479,-0.52896z" id="svg_129"/>
   <path fill="#FECA64" d="m911.98987,101.01426c-0.48712,-0.26807 -0.97418,-0.53613 -1.85901,-1.20138c-1.28491,-0.90845 -2.17206,-1.41971 -3.05921,-1.93097c0,0 -0.01037,-0.44172 -0.03137,-0.6616c-4.89721,-3.33253 -9.73578,-6.50694 -14.6723,-9.5208c-1.5105,-0.92219 -3.2901,-1.40375 -5.17047,-2.35664c3.71533,-2.63304 2.71753,-6.43769 2.70361,-10.01745c-0.03076,-7.90548 -0.11731,-15.81928 0.24781,-23.70983c0.06488,-1.40067 2.20275,-2.70543 3.61694,-4.32906c9.39142,1.70654 18.14825,4.68127 25.87036,10.68406c-2.95184,2.00233 -3.7851,4.32914 -3.69531,7.48321c0.19256,6.76609 0.565,13.59202 -0.1048,20.29669c-0.51593,5.16447 -2.50964,10.1813 -3.84625,15.26377z" id="svg_130"/>
   <path fill="#E2BA5A" d="m879.89453,92.71734c0.08814,0.13809 -0.39099,0.17681 -0.62671,0.13199c-0.0368,-0.40037 0.22132,-0.47547 0.62671,-0.13199z" id="svg_131"/>
   <path fill="#AB39DC" d="m827.453,238.23282c0.16358,-0.26439 0.6474,-0.57344 1.31916,-0.69452c-0.20771,0.34192 -0.60321,0.49591 -1.31916,0.69452z" id="svg_132"/>
   <path fill="#AB39DC" d="m831.32617,237.35645c0.04682,-0.27962 0.27924,-0.3434 0.7124,-0.27198c0.01038,0.32527 -0.23211,0.44281 -0.7124,0.27198z" id="svg_133"/>
   <path fill="#FEB062" d="m963.04547,179.5481c-5.07422,0.39663 -10.09686,0.40738 -15.59216,0.00756c-1.13288,-2.90551 -2.35266,-5.39734 -2.3667,-7.89595c-0.14185,-25.22201 -0.10809,-50.44516 -0.07019,-75.66792c0.00873,-5.81881 1.14276,-6.85973 7.00824,-6.63267c8.4461,13.34663 13.86597,27.52846 16.90326,42.65965c-5.90808,-0.89154 -5.91999,-0.89156 -5.9253,5.22932c-0.00933,10.75347 -0.00976,21.50694 0.00202,32.26039c0.00354,3.21793 0.06018,6.43581 0.04083,10.03962z" id="svg_134"/>
   <path fill="#FDD46B" d="m968.94421,132.34857c-3.05358,-15.46099 -8.47345,-29.64282 -16.94836,-43.33647c-1.03888,-1.96463 -2.10272,-3.1672 -2.94775,-4.50767c-1.75684,-2.78691 -3.39777,-5.64691 -5.08631,-8.47687c1.45807,0.59702 2.87372,1.3845 4.38953,1.72217c0.96387,0.21471 2.07654,-0.23857 3.38879,-0.57192c2.64398,3.50031 5.0224,7.17975 7.39905,10.86035c1.04797,1.62301 2.09222,3.2484 3.48144,4.94093c0.34327,0.06823 0.35602,0.54607 0.36402,1.12339c0.34808,1.34987 0.68817,2.12243 1.02832,2.89499c4.5979,13.06929 7.51123,26.39807 5.83618,40.56036c-0.28216,-0.6084 -0.56433,-1.2168 -0.85705,-2.44151c-0.02021,-0.78311 -0.02985,-0.94989 -0.03956,-1.11669c0.00269,-0.44041 0.00538,-0.88084 -0.0083,-1.65106z" id="svg_135"/>
   <path fill="#FCB262" d="m964.26581,96.79673c-0.59302,-0.57182 -0.93311,-1.34438 -1.27442,-2.45534c0.5083,0.52593 1.01776,1.39026 1.27442,2.45534z" id="svg_136"/>
   <path fill="#FEB062" d="m968.79321,134.09229c0.16901,0.07414 0.17865,0.24092 0.18225,0.65817c-0.11779,-0.02153 -0.22961,-0.29352 -0.18225,-0.65817z" id="svg_137"/>
   <path fill="#FDD46B" d="m942.0163,65.64914c-0.95587,-0.45029 -1.94996,-1.21519 -2.97297,-2.32514c0.4112,-0.3376 0.85132,-0.33016 1.62165,-0.31983c0.65783,0.7787 0.98547,1.55453 1.35132,2.64497z" id="svg_138"/>
   <path fill="#FEB863" d="m943.62353,75.98523c2.0268,2.87229 3.66773,5.73229 5.42457,8.5192c0.84503,1.34047 1.90887,2.54304 2.90234,4.15508c-5.79126,0.47255 -6.92529,1.51347 -6.93402,7.33228c-0.0379,25.22276 -0.07166,50.44591 0.07019,75.66792c0.01404,2.49861 1.23382,4.99044 1.89984,7.8759c-0.74322,0.41146 -1.49231,0.43241 -2.61633,0.45826c-4.73352,-0.00618 -9.09211,-0.01729 -13.90406,-0.44033c0.20905,-5.95909 1.40711,-11.50268 1.44416,-17.05401c0.19262,-28.9146 0.0921,-57.83117 0.0863,-86.74706c-0.00055,-2.86828 -0.42981,-6.00083 4.01233,-5.75733c2.42548,1.98258 4.85095,3.96516 7.61468,5.99009z" id="svg_139"/>
   <path fill="#FEBF64" d="m935.97247,69.64613c-4.40576,0.10551 -3.9765,3.23806 -3.97595,6.10634c0.0058,28.91589 0.10632,57.83246 -0.0863,86.74706c-0.03705,5.55133 -1.23511,11.09492 -1.90906,17.03517c-5.40222,0.39311 -10.79297,0.39311 -17.03015,0.39311c17.53406,-27.01323 18.19568,-52.85895 -0.8291,-78.61343c1.18457,-5.38259 3.17828,-10.39942 3.69421,-15.56389c0.6698,-6.70467 0.29736,-13.5306 0.1048,-20.29669c-0.08979,-3.15407 0.74347,-5.48088 3.85461,-7.17868c5.52124,3.48148 10.83087,7.25173 16.17694,11.37101z" id="svg_140"/>
   <path fill="#E1B24D" d="m907.09253,98.24143c0.86627,0.15174 1.75342,0.663 2.7821,1.46119c-0.82611,-0.17593 -1.7937,-0.6388 -2.7821,-1.46119z" id="svg_141"/>
  </g>
 </g>

</svg>