<svg width="1000" height="280" xmlns="http://www.w3.org/2000/svg" version="1.1" enable-background="new 0 0 1000 280" xml:space="preserve">
 <g>
  <title>Layer 1</title>
  <g id="svg_194">
   <path fill="#FFFFFF" d="m364.26257,212.306c-10.34588,3.38846 -20.62887,5.15658 -31.11459,4.6226c-14.65512,-0.7463 -28.73566,-3.98947 -37.91516,-16.57525c-4.22302,-5.79004 -7.42682,-12.93749 -8.97418,-19.93772c-3.26435,-14.76783 -1.2045,-29.55892 3.0047,-44.01339c0.16561,-0.56877 0.81591,-0.99636 1.18936,-1.43039c4.52929,1.7536 8.86334,3.43158 13.76782,5.33043c-0.88568,4.82386 -2.15994,9.6719 -2.60288,14.59475c-1.0527,11.69945 -2.20767,23.38779 5.28159,33.94547c5.1806,7.30315 12.74011,10.12901 20.70557,10.94321c12.8981,1.31837 25.81268,0.43858 37.66076,-5.85392c2.55137,-1.35502 5.39063,-2.81729 7.05814,-5.01767c1.94702,-2.56921 4.25,-6.29487 3.72098,-8.99405c-0.88687,-4.52531 -5.11579,-6.84039 -9.99042,-6.90686c-4.6651,-0.06362 -9.35703,-0.31292 -13.98999,0.07802c-3.95218,0.3335 -5.94397,-1.67933 -6.90915,-4.83432c-1.1611,-3.79554 -1.76358,-7.76198 -2.73846,-12.25618c9.08767,0 17.38018,0.00002 25.6727,0c12.16482,0 24.33093,0.11141 36.49414,-0.03001c13.28128,-0.1544 25.90225,-3.3676 37.95196,-8.87479c9.47971,-4.33261 18.93616,-8.71635 28.38937,-13.1066c0.70099,-0.32554 1.29239,-0.88697 2.02634,-1.40315c-11.68732,-4.55673 -23.15942,-8.94497 -34.56088,-13.50964c-5.91882,-2.36964 -10.67551,-0.00769 -15.23239,3.30244c-1.4632,1.06287 -3.04758,2.34299 -3.82511,3.89914c-3.32827,6.66133 -7.65771,4.4736 -12.23071,1.75012c-2.03677,-1.21301 -4.18777,-2.23422 -7.67706,-4.0764c6.50531,-6.44932 11.87836,-12.85737 18.33383,-17.87204c6.45566,-5.01481 14.77966,-5.81598 22.35748,-3.24274c11.49726,3.90422 22.47901,9.30009 33.87424,13.53958c8.97711,3.33986 18.24762,5.89113 27.83609,8.93497c0,3.97597 0,8.94428 0,13.71193c-6.587,2.10779 -13.19794,4.22324 -19.52011,6.24628c0.71234,7.08496 5.48312,9.15779 10.21231,9.36135c13.27747,0.57148 26.59405,0.50204 39.88846,0.28059c5.33249,-0.08884 7.699,-4.97856 8.30551,-8.96851c0.96094,-6.32138 0.44897,-12.92975 0.00732,-19.37882c-0.28918,-4.22239 -1.55407,-8.37795 -2.45227,-12.91891c5.49884,-1.41632 10.74598,-2.76782 16.41047,-4.2268c1.15191,8.97675 3.07751,17.33556 3.03533,25.68444c-0.03601,7.12664 -2.03033,14.31478 -3.72473,21.3391c-1.36334,5.65187 -5.39544,9.73589 -10.44006,12.32814c-3.1853,1.63681 -6.90347,2.97824 -10.42441,3.08585c-12.15347,0.37144 -24.3634,0.73739 -36.47839,-0.0398c-10.20563,-0.65472 -20.39572,-2.75929 -24.68674,-14.28599c-0.6564,-1.76322 -1.27173,-3.54172 -1.7124,-4.77245c-12.94699,5.34598 -25.55399,10.81747 -38.36258,15.76727c-13.40109,5.17879 -27.85245,2.47243 -41.8949,4.3219c7.62155,17.85341 -10.75012,35.22904 -25.7269,39.45882z" id="svg_2"/>
   <path fill="#FFFFFF" d="m69.63509,154.28403c12.23256,2.18152 23.99516,2.91755 35.6318,-1.23677c8.27502,-2.95418 11.84759,-9.29898 8.70487,-17.64211c-3.89103,-10.32973 -8.38176,-20.4341 -12.6407,-30.62442c-1.47964,-3.5403 -3.04072,-7.04657 -4.75278,-11.00329c4.71513,-2.38491 9.21501,-4.66095 14.23245,-7.19877c2.46096,5.65505 4.78848,11.07722 7.175,16.4733c6.47162,14.63281 12.82943,29.31848 19.52059,43.85048c2.83377,6.15442 7.70401,9.48671 14.9619,9.17587c7.98066,-0.34178 15.99859,0.18067 23.97863,-0.16841c5.327,-0.233 10.80071,-0.69549 15.88448,-2.17187c11.15695,-3.24007 10.8159,-14.97992 5.64114,-22.2623c-7.05884,-9.93381 -17.28215,-16.2322 -26.70517,-23.45879c-4.11722,-3.15751 -8.48799,-6.05918 -12.2269,-9.61966c-7.90628,-7.52893 -6.0117,-18.03066 4.16202,-22.34833c18.56787,-7.88008 37.29604,-15.38265 55.96437,-23.02552c1.75016,-0.71653 3.55043,-1.31065 5.83085,-2.14599c0,4.93066 0.33372,9.57274 -0.19237,14.11524c-0.16976,1.46561 -2.37262,3.21801 -4.03246,3.90753c-15.66856,6.50894 -31.4216,12.81446 -47.14215,19.19866c-0.24667,0.10018 -0.39062,0.45321 -0.9415,1.12794c5.47211,3.94206 10.92581,7.838 16.3447,11.7818c9.54066,6.94359 18.30075,14.71665 24.3864,24.9736c5.53874,9.33513 6.30772,29.56476 -4.20641,36.9343c-5.45811,3.8257 -12.3033,7.17696 -18.78343,7.74178c-15.81197,1.37814 -31.77954,1.34672 -47.67807,1.19815c-7.99481,-0.07471 -13.06683,-5.58428 -16.83082,-12.23066c-0.31695,-0.55966 -0.86254,-0.98983 -1.18327,-1.34777c-5.92289,6.85153 -13.32035,11.72457 -22.08311,12.47482c-11.23244,0.96168 -22.6105,0.31747 -33.92074,0.10039c-0.93074,-0.01787 -2.49565,-1.99796 -2.60719,-3.17603c-0.34387,-3.63197 0.0546,-7.32896 -0.18425,-10.97786c-0.18426,-2.81508 1.28002,-2.93312 3.69212,-2.41531z" id="svg_3"/>
   <path fill="#FFFFFF" d="m608.62891,94.23262c7.74487,6.30068 15.76635,11.81335 22.466,18.62594c11.71924,11.91689 15.26501,31.45101 4.88696,46.16759c-4.34271,6.15813 -10.94006,9.13993 -17.82037,10.80942c-13.71491,3.32791 -27.69074,2.79506 -41.59296,1.01908c-0.98199,-0.12545 -2.36529,-2.13797 -2.45019,-3.35082c-0.30017,-4.29027 -0.11688,-8.61436 -0.11688,-13.51585c3.72607,0.35949 7.25738,0.40667 10.66357,1.08367c10.33679,2.05449 20.42261,1.06972 30.36175,-2.06483c10.89026,-3.43452 14.07416,-13.7287 8.11969,-23.51173c-5.20843,-8.55746 -13.01422,-13.94979 -20.8656,-19.42161c-3.52655,-2.45771 -7.401,-4.41627 -11.66858,-6.92526c2.23432,-4.65174 4.49732,-9.36313 7.00959,-14.59349c3.67151,1.88073 7.17999,3.67794 11.00702,5.67789z" id="svg_9"/>
   <path fill="#FFFFFF" d="m440.24664,191.25552c2.54035,-2.64161 4.8313,-5.03176 6.75293,-7.03659c4.61002,4.55503 9.00629,8.89887 13.17707,13.01993c-3.75828,3.70422 -8.08045,7.96423 -12.51951,12.33946c-3.6177,-3.95294 -7.7145,-8.42944 -13.01046,-14.21618c1.13614,-0.81862 3.24341,-2.3369 5.59997,-4.10662z" id="svg_25"/>
   <path fill="#FFFFFF" d="m540.65454,185.23767c3.22974,3.13701 6.04639,6.20291 9.13245,8.9682c2.47839,2.22086 3.01324,3.91554 0.2063,6.39118c-3.34955,2.95416 -6.31519,6.34361 -9.10822,9.19806c-4.4259,-4.49158 -8.68854,-8.81746 -13.15884,-13.35412c3.62021,-3.26843 8.12591,-7.33634 12.92831,-11.20332z" id="svg_28"/>
   <path fill="#FFFFFF" d="m519.74286,201.75674c-2.87671,3.00245 -5.50275,5.75722 -8.0445,8.42359c-4.29077,-4.37296 -8.28314,-8.44179 -12.07125,-12.30246c3.83291,-3.78205 8.05258,-7.94573 12.14691,-11.98572c3.492,3.51926 7.53561,7.59444 11.97009,12.06352c-1.01117,0.95801 -2.38089,2.25571 -4.00125,3.80107z" id="svg_29"/>
   <ellipse ry="138.05899" rx="128.99999" id="svg_162" cy="139.07865" cx="841.99999" fill="#FFFFFF"/>
   <path fill="#F8D46F" d="m807.85565,77.36994c-6.15339,-0.02625 -12.30819,-0.13995 -18.45964,-0.04226c-3.12539,0.04964 -5.71393,-0.72085 -7.5217,-3.39424c-2.234,-3.30385 -5.26868,-4.37374 -9.27148,-4.23429c-8.31587,0.28971 -16.64952,0.03574 -24.97162,0.20854c-1.46152,0.03034 -3.11903,0.7673 -4.30753,1.67407c-2.44876,1.8683 -6.16724,2.05231 -8.30729,0.04047c-2.76737,-2.60155 -3.04476,-7.44749 -0.60684,-10.60142c1.92344,-2.48834 5.42084,-3.14416 7.99464,-1.01893c2.13731,1.76483 4.34823,2.11153 6.94773,2.07771c9.16785,-0.11928 18.33972,0.02031 27.50571,-0.16118c3.7708,-0.07467 6.52937,1.22672 8.42972,4.42405c1.28361,2.15965 3.04954,3.05136 5.65917,2.95817c5.42305,-0.19364 10.85743,-0.06962 16.81234,-0.07324c0.65223,-0.03013 0.77926,-0.0632 1.13702,-0.01665c0.55168,0.06607 0.87263,0.05251 1.52813,0.11747c9.80242,0.03106 19.2703,-0.01639 28.90835,0.04118c0.66841,0.27656 1.1667,0.44809 1.80578,0.84622c0.82526,2.31961 2.09396,4.40944 2.10542,6.50611c0.14009,25.72158 0.09616,51.44417 0.09979,77.1665c0.00124,8.69487 0.08532,17.39098 -0.04384,26.08391c-0.0422,2.84274 0.95098,3.88916 3.79001,3.77347c4.82223,-0.19653 9.65503,-0.13253 14.81458,-0.10275c17.70395,0.07074 35.07677,0.09461 52.44907,0.00469c1.30878,-0.00675 3.03251,-0.44604 3.83848,-1.33869c2.11263,-2.33973 4.35305,-2.67278 7.21667,-1.29128c3.8456,2.85836 3.97635,6.42262 2.53032,10.47375c-0.77315,0.84422 -1.35659,1.55217 -2.21547,2.28827c-2.23307,-0.05951 -4.98249,0.63472 -5.99291,-0.38843c-2.54179,-2.57372 -5.38616,-2.23206 -8.33989,-2.24435c-4.58107,-0.01907 -9.1629,-0.06434 -13.74317,-0.00542c-5.03743,0.06479 -10.07353,0.2349 -15.44469,0.3212c-8.30508,0.0069 -16.27566,0.05174 -24.58277,0.03707c-6.05511,-0.09305 -11.77363,-0.12656 -17.62049,-0.30599c-0.37572,-0.19982 -0.6232,-0.25374 -1.04988,-0.4553c-0.807,-1.00709 -1.43467,-1.86654 -2.02412,-3.06484c0.02902,-34.99237 0.02698,-69.64587 -0.01579,-104.29933c-0.00172,-1.38441 -0.39071,-2.76834 -0.77607,-4.26807c-0.35192,-0.4977 -0.52709,-0.87982 -0.86662,-1.52137c-9.24667,-0.24456 -18.32888,-0.22969 -27.41114,-0.21481z" id="svg_4"/>
   <path fill="#9127ED" d="m861.57293,183.56758c-4.82838,0.0455 -9.66118,-0.0185 -14.48341,0.17803c-2.83903,0.11569 -3.83221,-0.93073 -3.79001,-3.77347c0.12916,-8.69293 0.04508,-17.38904 0.04384,-26.08391c-0.00363,-25.72233 0.04029,-51.44492 -0.09979,-77.1665c-0.01146,-2.09667 -1.28016,-4.1865 -1.81136,-6.54388c1.14993,-0.45733 2.14647,-0.65029 2.73787,-0.7648c0,-8.32707 0,-16.1694 0,-24.01172c3.8733,-0.04474 7.74659,-0.08949 11.95858,0.21929c0.33502,41.17691 0.34184,82.00033 0.29959,122.82368c-0.00234,2.25855 0.09378,4.17193 2.96554,4.5912c0.17653,1.82405 -0.2071,3.92225 0.65673,4.81939c1.849,1.92028 1.48403,3.19055 -0.87621,4.81407c1.26184,0.1401 1.83183,0.2034 2.39696,0.42466c-0.00491,0.15795 0.00168,0.47397 0.00168,0.47397z" id="svg_5"/>
   <path fill="#8422F0" d="m843.66343,227.62124c-1.23973,0.15214 -2.47946,0.30428 -4.01771,0.42068c-0.29849,-0.03574 -0.25643,-0.07905 -0.25643,-0.07905c-4.00546,0.06983 -8.01097,0.13965 -12.52467,0.12949c-0.5722,-1.14489 -0.6919,-2.20978 -0.69208,-3.2747c-0.00738,-37.85891 0.00969,-75.71785 -0.04476,-113.57668c-0.00244,-1.69153 -0.63993,-3.38214 -1.0451,-5.26407c-0.29026,-0.52094 -0.51709,-0.85101 -0.46949,-1.22783c0.79001,-0.48943 1.79468,-1.26332 1.75129,-1.32743c-2.547,-3.7609 -0.60388,-7.89123 -0.9845,-11.81008c-0.36484,-3.75722 -0.43721,-7.57094 2.44499,-10.82132c5.98044,-0.04116 6.19519,0.17288 6.19568,5.90789c0.00283,34.27286 0.01915,68.54574 -0.02062,102.81854c-0.00322,2.79857 0.46251,5.04878 3.92961,5.68315c0.81592,0.03261 1.36044,0.04613 1.90282,0.39836c-0.00354,8.29028 -0.00504,16.24185 -0.00636,24.19344c-0.00036,2.03249 -0.00009,4.06499 -0.00009,6.32907c0.70562,0.27591 2.27152,0.88823 3.83742,1.50055z" id="svg_6"/>
   <path fill="#F7D56E" d="m824.33876,104.79584c0.22683,0.33006 0.45366,0.66012 0.58804,1.38196c0.07272,2.17171 0.38059,3.95154 0.38196,5.73161c0.02831,36.92016 0.02189,73.84035 0.02202,110.76052c0,0.72392 0.23599,1.5742 -0.06267,2.14235c-0.45688,0.86918 -1.5023,2.28102 -1.91212,2.1597c-1.13021,-0.33465 -2.30411,-1.17495 -2.98398,-2.14828c-0.45441,-0.6506 -0.09732,-1.87049 -0.09736,-2.83564c-0.00279,-35.11036 0.00526,-70.22074 -0.04592,-105.33104c-0.0019,-1.32117 -0.57689,-2.64151 -0.83048,-3.96025c0.0544,0.00199 0.0172,0.10427 -0.02513,-0.10027c-0.28256,-0.31572 -0.52283,-0.42688 -0.70857,-0.55953c0.05454,-0.02149 0.05282,0.09574 -0.09589,-0.17659c-0.48068,-0.39702 -0.81244,-0.62995 -1.14472,-0.63073c-11.20258,-0.02624 -22.40574,-0.07718 -33.60717,0.03503c-1.11344,0.01115 -2.21676,1.03651 -3.32476,1.59116c0,0 -0.00747,-0.13582 -0.15062,-0.07944c-0.28955,0.28645 -0.43592,0.51653 -0.58233,0.74661c0,0 -0.00946,-0.09068 -0.23793,-0.07396c-0.54796,0.57112 -0.86746,1.12553 -1.187,1.67994c0.06723,0.19266 0.01544,0.34489 -0.54947,0.55713c-0.56419,0.41834 -0.73427,0.73626 -0.90435,1.05419c0,0.00001 -0.00447,0.15664 -0.35276,0.22658c-2.66908,0.53075 -4.98629,1.36762 -7.31137,1.39013c-13.14048,0.1272 -26.2831,0.0337 -39.4246,0.09195c-1.51924,0.00673 -3.51726,-0.03095 -4.4627,0.84672c-2.6467,2.45693 -5.34214,2.31246 -8.33272,1.2005c0,0 -0.2351,-0.02616 -0.28331,-0.4251c-0.27743,-1.32848 -0.66655,-2.25147 -0.70499,-3.18883c-0.10098,-2.46069 -0.78328,-5.07203 2.00549,-6.78811c2.61132,-1.60693 4.63291,-0.95301 6.87223,0.83809c0.97902,0.78306 2.66634,0.93181 4.03413,0.93847c13.2615,0.06453 26.5236,0.05857 39.78519,0.00254c1.23884,-0.00523 2.47569,-0.49193 3.71348,-0.75508c1.38234,-1.6489 2.60172,-3.48381 4.20102,-4.88504c1.17621,-1.03053 2.84018,-2.08877 4.30293,-2.11193c8.79386,-0.13924 17.59235,0.01715 26.88317,0.14291c0.4939,0.06837 0.78111,-0.06444 0.90921,-0.03071c0.1281,0.03374 0.26624,-0.19234 0.52532,0.0186c5.05131,0.26072 9.8436,0.31049 14.73222,0.45498c0.09639,0.09471 0.36652,0.08892 0.36652,0.08892z" id="svg_7"/>
   <path fill="#7619F9" d="m801.42333,220.12947c1.73475,-0.03877 3.46948,-0.07754 5.61334,0.01843c0.67301,0.16665 0.83269,0.03956 0.88816,-0.24649c0.00402,-2.77557 0.0081,-5.55112 -0.03955,-8.69398c-0.13217,-0.49755 -0.22984,-0.61324 -0.34471,-0.71438c-0.18437,-0.03292 -0.36873,-0.06583 -0.89737,-0.46365c-2.12957,-0.74747 -3.91495,-1.13004 -5.93063,-1.56196c0,-1.98595 0,-3.88491 0,-5.78387c1.7248,-0.07335 3.44958,-0.1467 5.55098,-0.05787c0.56026,0.08432 0.74396,0.00646 0.92762,-0.07138c0,0 0.08197,-0.14278 0.2462,-0.16429c0.27947,-0.10543 0.38797,-0.19725 0.48979,-0.29698c0,0 -0.02092,-0.20038 0.15933,-0.32533c0.33286,-0.35715 0.28039,-0.54592 0.02282,-0.6913c-0.37098,-2.86614 -0.74197,-5.73229 -1.44085,-8.83197c-0.56048,-0.37819 -0.7456,-0.31925 -0.88316,-0.05674c-1.49783,0.03627 -2.99562,0.07254 -5.01788,-0.11702c-1.76097,-0.42481 -2.99752,-0.62377 -4.79193,-0.9125c0.9346,-1.41157 1.58563,-2.39481 2.13151,-3.21927c-0.53399,-0.61697 -0.97357,-1.12487 -1.83463,-2.11976c3.42641,0 6.16702,0.12158 8.88622,-0.06593c0.95217,-0.06566 1.85196,-0.89167 2.77569,-1.37047c-0.07095,-3.3324 -0.14194,-6.66479 -0.66979,-10.34905c-3.12658,-2.81506 -2.99181,-5.03375 -0.05334,-6.99334c0.36939,-4.45794 0.73879,-8.91589 1.14666,-13.83875c-2.68306,-0.28929 -4.85585,-0.52356 -7.3979,-1.0551c-2.1213,-2.3187 -3.9246,-4.34125 -0.23996,-6.24448c2.32362,-0.17103 4.64724,-0.34206 6.83723,-0.50324c0.41376,-2.66214 0.83446,-4.86029 1.07864,-7.07785c0.26456,-2.4026 -0.5926,-4.00049 -3.33422,-3.95734c-1.32178,0.02083 -2.64436,-0.00723 -4.28851,-0.37801c-0.31414,-2.44503 -0.3064,-4.52523 -0.29866,-6.60542c2.24086,-0.21078 4.48176,-0.42158 7.18287,-1.02352c0.5527,-3.03125 0.53691,-5.68216 0.79877,-8.30536c0.08692,-0.87074 0.71114,-2.18683 1.39021,-2.41839c4.3741,-1.49164 6.56834,0.16629 6.56869,4.73567c0.00217,29.44386 0.00137,58.8877 0.00075,88.33156c-0.00009,5.18887 -0.08931,10.37977 0.03362,15.56567c0.05303,2.23854 -0.76931,2.95669 -2.94656,2.8929c-4.34053,-0.12714 -8.68716,-0.0458 -13.03765,-0.36032c0.23519,-2.42949 0.47671,-4.54922 0.71817,-6.66893z" id="svg_8"/>
   <path fill="#CD44D2" d="m928.12836,191.35506c1.25632,-3.91486 1.12556,-7.47912 -2.56098,-10.50409c-0.56261,-3.14594 -1.12839,-5.93154 -1.36756,-8.73861c6.88076,0.20833 13.43494,0.43814 20.02284,0.94853c2.1432,8.30693 2.75468,16.27313 -0.97336,24.39277c1.19421,-0.44558 2.23494,-0.83389 3.29778,-1.23045c0.3754,0.64208 0.7279,1.24502 1.0804,1.84795c-0.12571,0.34378 -0.25138,0.68758 -0.74634,0.96856c-0.92819,0.77506 -1.48722,1.61291 -2.04624,2.45077c-1.10362,1.22723 -2.20729,2.45449 -3.7413,3.80578c-0.72915,0.52096 -1.0279,0.91791 -1.32661,1.31484c-0.00004,-0.00001 0.01857,0.15897 -0.3118,0.18023c-3.22328,2.01409 -6.11623,4.00691 -9.76597,6.52106c0,-5.06382 0.19715,-9.01213 -0.06365,-12.92994c-0.20162,-3.02893 -0.97694,-6.01968 -1.49721,-9.02741z" id="svg_10"/>
   <path fill="#B739DA" d="m916.63712,221.84803c-0.56942,0.28053 -1.13883,0.56106 -2.07091,0.70256c-0.77015,0.19441 -1.17771,0.5278 -1.58524,0.86118c0,0 0.00544,0.06628 -0.33325,0.06615c-5.01588,0.88874 -9.67737,1.88462 -14.38362,2.57528c-0.93023,0.13655 -2.94842,-0.99007 -2.9102,-1.38291c0.29313,-3.01311 0.96526,-5.98985 1.53109,-8.97571c0.25491,-1.34546 0.53584,-2.68599 0.75736,-4.2849c-0.47369,-2.14835 -0.89984,-4.04055 -1.3101,-6.22799c0.01973,-3.49943 0.02353,-6.70362 0.3444,-9.919c1.80114,-0.02741 3.28517,-0.04364 5.10692,-0.04658c3.56481,0.01724 6.8129,-0.19249 10.00943,0.12212c1.43586,0.14131 2.76861,1.33098 4.10764,2.34026c-0.13939,2.29015 -0.3306,4.28566 -0.31601,6.27965c0.02371,3.23256 0.8077,6.60839 0.10479,9.65472c-0.67548,2.92764 -1.00263,5.32321 0.96402,7.83079c-0.01273,0.1344 -0.01632,0.4044 -0.01632,0.40438z" id="svg_11"/>
   <path fill="#791AFA" d="m824.61318,104.74909c-0.27442,0.04677 -0.54455,0.05256 -0.75661,-0.27199c-1.19953,-0.85383 -2.22348,-1.89144 -3.16813,-1.8237c-3.91553,0.28075 -7.80714,0.8955 -11.7075,1.38762c0,0 -0.13814,0.22608 -0.24063,-0.15292c-0.28411,-2.63994 -0.46569,-4.90087 -0.64731,-7.16179c-0.16411,-0.25972 -0.32817,-0.51944 -0.76886,-0.95728c-0.50868,-0.30582 -0.68106,-0.23956 -0.79377,0.02068c-0.78651,0.02403 -1.57302,0.04806 -2.65033,-0.30173c-0.28946,-2.67201 -0.28818,-4.9702 -0.28685,-7.26837c0.78802,-0.03969 1.57603,-0.07938 2.71376,0.02966c0.34971,0.14873 0.63532,0.19022 0.63532,0.19022c0,0 0.21029,-0.21654 0.21029,-0.21655c0.20493,-0.40065 0.40986,-0.8013 0.9162,-1.65089c0.51691,-2.1615 0.73237,-3.87405 0.96981,-5.76123c6.35801,0 12.41626,0 18.4745,0c-2.57031,3.22983 -2.49794,7.04355 -2.1331,10.80077c0.38062,3.91885 -1.5625,8.04918 0.9845,11.81008c0.04339,0.06412 -0.96128,0.838 -1.75129,1.32744z" id="svg_12"/>
   <path fill="#661EC3" d="m800.71152,227.10817c4.34411,0.00475 8.69074,-0.07659 13.03128,0.05056c2.17725,0.06379 2.9996,-0.65436 2.94656,-2.8929c-0.12293,-5.18589 -0.03371,-10.3768 -0.03362,-15.56567c0.00062,-29.44386 0.00141,-58.8877 -0.00075,-88.33156c-0.00036,-4.56938 -2.19459,-6.22731 -6.56869,-4.73567c-0.67907,0.23156 -1.30329,1.54765 -1.39021,2.41839c-0.26186,2.6232 -0.24607,5.27411 -0.55062,8.12748c-0.18313,-4.21946 -0.15411,-8.6522 0.14234,-13.57344c3.65482,-0.48324 7.04217,-0.47795 10.42956,-0.47266c0,0 0.00172,-0.11722 0.01703,0.08688c0.23727,0.32989 0.45914,0.45568 0.68105,0.58146c0,0 0.0372,-0.10228 0.00611,0.23103c0.01004,3.22499 0.08479,6.11664 0.08713,9.00835c0.02897,35.32332 0.04729,70.64665 0.06834,105.96997c-8.24209,-0.05877 -16.48421,-0.11753 -24.8318,-0.42201c1.91844,-0.32388 3.94238,-0.40204 5.96628,-0.4802z" id="svg_13"/>
   <path fill="#8E24EE" d="m843.86725,227.68471c-1.76974,-0.67579 -3.33564,-1.28812 -4.04125,-1.56402c0,-2.26408 -0.00026,-4.29658 0.00009,-6.32907c0.00133,-7.95158 0.00283,-15.90316 0.34484,-24.20174c5.18689,-0.33569 10.03318,-0.32438 14.87771,0.01394c-0.0023,0.56611 -0.00332,0.8052 -0.00345,1.04431c-0.00399,8.75195 -0.00394,8.75195 8.68513,8.94765c0.00093,0.33924 0.00429,0.47492 -0.32317,0.66118c-3.1982,0.01913 -6.06558,-0.01231 -9.0611,-0.0811c-0.31172,-0.04977 -0.47931,-0.004 -0.88463,0.20857c-0.61617,0.15726 -0.9787,0.20589 -1.47854,0.1187c-0.4886,0.08834 -0.83999,0.3125 -1.19239,0.748c-0.01036,0.49265 -0.01955,0.77396 -0.19914,1.05806c-0.17039,0.0028 -0.51107,0.00012 -0.74993,0.19088c-0.23284,6.0452 -0.22687,11.89964 -0.14438,18.04106c-0.50877,0.67171 -1.09407,1.05643 -1.90663,1.22885c-1.0233,-0.31483 -1.81928,-0.41739 -2.61521,-0.51994c-0.36807,0.16605 -0.73609,0.33208 -1.30794,0.43466z" id="svg_14"/>
   <path fill="#871FF5" d="m843.87291,45.3448c0.29716,7.89884 0.29716,15.74117 0.29716,24.06824c-0.59139,0.11451 -1.58793,0.30746 -2.87861,0.5382c-0.7924,-0.13376 -1.29069,-0.30529 -2.1615,-0.81814c-3.39956,-0.46898 -6.42662,-0.59665 -9.45992,-1.03034c-0.24244,-3.84142 -0.56995,-7.37375 -0.6892,-10.9131c-0.11801,-3.50161 -0.02579,-7.01032 -0.02446,-10.72861c0.00385,-0.49633 0.00637,-0.77996 0.00894,-1.06359c0.77586,-0.03614 1.55175,-0.07229 2.68289,0.04124c0.35524,0.14968 0.67871,0.19797 0.67871,0.19797c0,0 0.24027,-0.25138 0.24027,-0.25138c1.24557,-0.03493 2.49109,-0.06986 4.10411,0.19262c1.54069,0.13419 2.71394,-0.02903 3.88723,-0.19225c1.00573,-0.03246 2.01147,-0.06491 3.3144,-0.04085z" id="svg_15"/>
   <path fill="#6417C9" d="m827.82497,80.79024c-6.37013,0.02055 -12.42837,0.02055 -18.78639,0.02055c-0.23744,1.88718 -0.45291,3.59973 -0.8756,5.5188c-0.19117,-2.45087 -0.17512,-5.10825 0.22121,-8.12176c9.26919,-0.35863 18.1581,-0.36114 27.04696,-0.36364c0.17516,0.38212 0.35033,0.76423 0.65218,1.60437c0.11837,35.47945 0.10408,70.50088 0.13111,105.5223c0.00079,1.01402 0.43853,2.02769 0.67252,3.04152c0.62776,0.85945 1.25543,1.7189 2.05172,2.90662c0.16853,0.32826 0.18467,0.6899 -0.08245,0.74167c-0.57747,1.20786 -0.88772,2.36395 -1.19802,3.52005c-3.19568,-0.61527 -3.66141,-2.86549 -3.65819,-5.66406c0.03977,-34.2728 0.02344,-68.54568 0.02062,-102.81854c-0.00049,-5.73501 -0.21524,-5.94905 -6.19568,-5.90789z" id="svg_16"/>
   <path fill="#C13ED2" d="m916.66618,221.30925c-1.9794,-2.37318 -1.65224,-4.76875 -0.97676,-7.69639c0.70291,-3.04633 -0.08107,-6.42216 -0.10479,-9.65472c-0.0146,-1.99399 0.17662,-3.98951 0.54026,-6.1656c3.77434,1.7129 6.38628,0.66371 9.87373,-4.04109c0.58344,-0.70796 1.16688,-1.41591 1.94003,-2.26012c0.70999,2.87145 1.48531,5.8622 1.68693,8.89114c0.2608,3.91781 0.06365,7.86612 0.06365,12.92994c3.64974,-2.51415 6.54268,-4.50697 9.68595,-6.52098c-4.39994,3.5761 -9.05023,7.17337 -14.06492,10.8758c-0.50178,0.18763 -0.60153,0.30274 -0.66368,0.4505c-0.13624,0.06478 -0.27248,0.12956 -0.82827,0.25414c-0.73994,0.26488 -1.06028,0.46996 -1.38061,0.67503c-0.18379,0.22012 -0.36758,0.44025 -1.00401,0.72299c-1.17373,0.47575 -1.89478,0.88889 -2.61587,1.30201c-0.13026,0.05715 -0.26049,0.1143 -0.82455,0.20522c-0.73157,0.03322 -1.02935,0.03269 -1.32709,0.03214z" id="svg_17"/>
   <path fill="#E5BF70" d="m965.86117,161.52807c-0.03853,0.21396 -0.07701,0.42791 -0.35231,1.0592c-0.2934,0.84954 -0.34989,1.28172 -0.40642,1.71389c-0.0567,0.24247 -0.11337,0.48493 -0.40128,1.15693c-0.25115,0.66681 -0.27102,0.90405 -0.29087,1.14131c-0.04685,0.21419 -0.09374,0.42839 -0.41491,1.04288c-0.36408,0.83536 -0.45379,1.27044 -0.54354,1.7055c0,0 -0.01646,0.18395 -0.30897,0.11825c-0.46569,-0.10169 -0.63891,-0.1377 -0.81793,-0.46776c0.2513,-1.59062 0.50846,-2.88717 0.95726,-4.37999c1.24884,-5.71712 2.9578,-11.20682 3.22333,-16.76548c0.50413,-10.5536 0.51549,-21.13073 -1.97201,-31.58466c-2.32026,-9.75112 -5.36966,-19.12861 -10.93705,-27.82621c-3.63642,-5.39282 -7.24051,-10.52732 -10.61525,-15.69481c0.10037,-0.83117 0.23554,-1.841 -0.20436,-2.38999c-1.68945,-2.10836 -3.56326,-4.06899 -5.33096,-6.11391c0.03729,-0.02918 0.11214,-0.08724 0.11214,-0.08724c4.55559,4.90557 9.57692,9.46174 13.57265,14.78737c9.11153,12.14401 14.43922,26.06574 16.67243,41.01218c1.88589,12.62162 1.79238,25.3109 -1.39844,38.2944c-0.34931,1.38937 -0.44641,2.33376 -0.5435,3.27814z" id="svg_18"/>
   <path fill="#D248C9" d="m947.86241,197.99182c-0.58742,-0.52358 -0.93992,-1.12653 -1.31532,-1.7686c-1.06284,0.39656 -2.10356,0.78487 -3.29778,1.23045c3.72803,-8.11964 3.11655,-16.08584 1.31258,-24.39685c6.04878,-0.28655 11.79212,-0.28841 17.53547,-0.29027c-2.73742,9.45608 -7.88088,17.57262 -14.23495,25.22528z" id="svg_19"/>
   <path fill="#9C2CE8" d="m873.87665,227.64627c-1.49433,0.03643 -2.98863,0.07286 -4.98147,-0.10067c-1.55113,-0.11056 -2.60376,-0.01115 -3.65642,0.08824c-1.27631,0.03988 -2.55262,0.07973 -4.30718,-0.08506c-1.29759,-0.1104 -2.11692,-0.01614 -2.93621,0.0781c-0.21798,0.04851 -0.43597,0.09703 -1.03847,-0.03567c-0.33104,-0.5379 -0.2776,-0.8946 -0.05914,-1.4889c0.24625,-3.89651 0.32746,-7.55541 0.74206,-11.23771c7.23361,-0.0234 14.13383,-0.0234 20.93055,-0.0234c0.43764,2.44277 0.91612,4.30184 1.07549,6.18788c0.25588,3.0281 0.63182,6.29571 -4.26051,5.46191c-0.4249,-0.07241 -1.00219,0.74903 -1.50871,1.15528z" id="svg_20"/>
   <path fill="#BD59E7" d="m859.39899,172.76526c-2.87698,-0.14904 -2.97309,-2.06242 -2.97075,-4.32097c0.04224,-40.82335 0.03543,-81.64677 0.03676,-122.80378c-0.00225,-0.33362 0.20303,-0.53358 0.32406,-0.53949c0.12102,-0.0059 0.07758,-0.04784 0.07758,-0.04784c0.22471,-0.05279 0.44941,-0.10557 0.93979,0.18134c0.32949,0.73977 0.39336,1.13985 0.38377,1.86419c-0.03084,18.16663 0.01185,36.00902 0.01813,54.04335c0.01747,0.31053 0.07135,0.42911 0.05856,0.6686c-0.06662,0.1209 -0.02176,0.39332 -0.15668,0.72731c-0.1499,21.76385 -0.10992,43.19405 -0.24235,64.62317c-0.01871,3.02398 1.07713,3.55154 3.81623,3.52182c10.83054,-0.11759 21.66385,0.01311 32.33745,0.21153c-0.75382,0.69778 -1.34903,1.23578 -2.27249,1.80941c-2.06645,0.04834 -3.80473,0.06104 -5.88189,0.07042c-4.46071,-0.00449 -8.58251,-0.00564 -13.04132,-0.01123c-4.70027,-0.00222 -9.06359,-0.00002 -13.42686,0.00217z" id="svg_21"/>
   <path fill="#A636D8" d="m874.21168,227.7116c0.1715,-0.47159 0.74879,-1.29303 1.17369,-1.22062c4.89234,0.8338 4.5164,-2.43381 4.26051,-5.46191c-0.15937,-1.88605 -0.63785,-3.74512 -1.07549,-6.18788c-6.79672,0 -13.69694,0 -20.98532,-0.03438c-0.3881,-0.03438 -0.49015,-0.15389 -0.25956,-0.36252c9.10685,-0.26017 17.98316,-0.33397 26.85942,-0.32962c0.91063,0.00044 1.82113,0.46837 2.84867,0.95809c4.60921,3.6681 7.78547,2.56941 10.65635,-3.40694c-0.26912,1.34277 -0.55005,2.6833 -0.80496,4.02876c-0.56583,2.98586 -1.23796,5.9626 -1.53109,8.97571c-0.03822,0.39283 1.97997,1.51946 2.9102,1.38291c4.70625,-0.69066 9.36774,-1.68654 14.3516,-2.5844c-7.6111,3.1309 -15.84699,4.53856 -24.34475,4.47967c-4.57492,-0.03171 -9.14954,-0.11273 -14.05926,-0.23687z" id="svg_22"/>
   <path fill="#7F1CFB" d="m828.95504,46.67376c0,3.50559 -0.09223,7.0143 0.02579,10.51591c0.11925,3.53935 0.44676,7.07168 0.35126,10.91561c-3.96928,0.30828 -7.60676,0.30803 -11.24535,-0.03144c-0.00098,-7.78437 -0.00088,-15.2295 -0.0008,-22.67463c2.19588,-0.03463 4.3918,-0.06925 6.9802,0.20191c1.55794,0.5614 2.72345,0.81702 3.88891,1.07264z" id="svg_23"/>
   <path fill="#791AFA" d="m817.84752,45.34094c0.23833,7.50339 0.23824,14.94853 -0.09037,22.73526c-2.77488,0.6189 -5.2213,0.89619 -7.66767,1.17349c-0.32096,0.01357 -0.64191,0.02713 -1.19257,-0.3777c-0.22966,-7.83719 -0.22966,-15.25599 -0.22966,-22.4637c3.11177,-0.45153 5.53625,-0.80333 7.96072,-1.15514c0.32706,0.00985 0.65412,0.01969 1.21956,0.08779z" id="svg_24"/>
   <path fill="#DF69D5" d="m892.07731,172.66827c0.5952,-0.538 1.19041,-1.076 2.16283,-1.86176c0.76192,-0.51109 1.14662,-0.77443 1.74996,-0.89913c3.56144,0.1048 6.90412,0.0679 10.24692,0.0377c9.74836,-0.08806 19.49677,-0.17343 29.58021,-0.20059c9.05558,-0.01446 17.77605,-0.08817 26.74419,-0.08125c0.42119,0.08475 0.59476,0.08884 0.76838,0.09295c-0.19255,0.64072 -0.38505,1.28146 -0.80191,2.22761c-0.22439,0.30543 -0.28061,0.47603 -0.28061,0.47603c0,0 0.02671,0.20286 -0.06157,0.25479c-5.83168,0.05378 -11.57502,0.05564 -17.6576,0.06158c-6.89333,-0.22571 -13.44751,-0.45551 -20.66449,-0.68461c-5.98185,0.22148 -11.30083,0.44224 -16.96132,0.65997c-5.16933,-0.02979 -9.99718,-0.05655 -14.82498,-0.08329z" id="svg_26"/>
   <path fill="#ECCE85" d="m819.90047,228.08506c-0.34449,-35.39801 -0.3628,-70.72134 -0.39178,-106.04465c-0.00234,-2.89172 -0.0771,-5.78336 -0.1415,-9.01034c0.28464,0.98542 0.85963,2.30577 0.86153,3.62694c0.05118,35.1103 0.04313,70.22068 0.04592,105.33104c0.00004,0.96515 -0.35705,2.18504 0.09736,2.83564c0.67987,0.97333 1.85377,1.81363 2.98398,2.14828c0.40982,0.12133 1.45524,-1.29051 1.91212,-2.1597c0.29866,-0.56815 0.06267,-1.41843 0.06267,-2.14235c-0.00013,-36.92018 0.00628,-73.84036 -0.02202,-110.76052c-0.00137,-1.78007 -0.30924,-3.5599 -0.31843,-5.54072c0.49753,1.49015 1.13503,3.18076 1.13746,4.87229c0.05445,37.85883 0.03737,75.71777 0.04476,113.57668c0.00018,1.06492 0.11988,2.12981 0.19414,3.20995c-2.04066,0.05421 -4.09172,0.09318 -6.46621,0.05746z" id="svg_27"/>
   <path fill="#C645C5" d="m768.03759,227.67542c-0.90727,0.51311 -1.9142,0.90578 -2.70447,1.56018c-3.34564,2.77038 -6.28529,2.84104 -8.89356,0.10556c-2.48746,-2.60871 -2.46119,-7.81778 0.05228,-10.36428c2.67002,-2.70512 6.05572,-2.6269 9.1851,0.19193c0.3429,0.30886 0.77091,0.5232 1.41538,1.16221c0.48568,2.70202 0.71547,5.02321 0.94527,7.3444z" id="svg_30"/>
   <path fill="#D248C9" d="m735.46902,188.53258c-3.68733,1.61959 -5.41858,0.97286 -7.7614,-2.89959c-1.74589,-2.88564 -1.08708,-6.25835 1.66636,-8.53105c2.50706,-2.06933 5.67514,-2.01272 7.95894,0.14743c0.43389,0.41034 0.85154,0.8378 1.51553,1.68333c0.23935,2.53352 0.23983,4.64108 0.24032,6.74864c-0.34426,0.2429 -0.68853,0.48579 -1.47045,0.81803c-1.00821,0.73731 -1.57877,1.38526 -2.1493,2.03321z" id="svg_31"/>
   <path fill="#C645C5" d="m761.55537,52.30596c-1.58444,1.00084 -3.05476,2.48802 -4.7791,2.89268c-2.84628,0.66795 -5.46008,-0.12022 -6.76403,-3.23356c-1.51832,-3.62501 -0.84813,-7.67145 1.85793,-9.45134c2.67102,-1.75686 5.35378,-1.66648 7.82775,0.59052c0.60816,0.55486 1.37544,0.93527 2.10577,1.66322c-1.01714,1.2645 -2.98628,2.34292 -2.90675,3.23957c0.11598,1.30659 1.70599,2.48238 2.66382,3.86016c-0.00376,0.14621 -0.0054,0.43875 -0.0054,0.43875z" id="svg_32"/>
   <path fill="#D248C9" d="m757.1983,137.23911c-0.37077,0.22055 -0.74158,0.44111 -1.43759,0.67854c-0.45958,0.03929 -0.56592,0.10611 -0.64435,0.21736c-3.48736,0.61475 -5.86963,-1.2119 -6.91039,-4.11851c-0.96407,-2.69224 -0.73834,-5.67667 2.01429,-8.1225c0.38616,-0.32851 0.46127,-0.44175 0.47834,-0.59351c0.13487,-0.06514 0.26969,-0.13028 0.7505,-0.28365c0.51996,-0.16466 0.63417,-0.29395 0.68854,-0.4761c0.32485,-0.07085 0.6497,-0.1417 1.41794,-0.0182c1.47314,0.29048 2.50285,0.38662 3.53261,0.48276c0.17127,0.06708 0.3425,0.13416 0.71928,0.38699c0.20564,0.18577 0.209,0.21834 0.209,0.21834c0.37678,0.37238 0.75356,0.74476 1.10632,1.62936c-0.16371,2.72699 -0.3034,4.94176 -0.55221,7.36352c-0.53018,1.01653 -0.95124,1.82605 -1.37229,2.63558z" id="svg_33"/>
   <path fill="#D248C9" d="m733.59747,161.20299c-0.33344,-3.33336 -1.309,-6.81754 2.55429,-9.37462c0.55367,-0.20025 0.67496,-0.3292 0.74454,-0.50675c0.3248,-0.07444 0.64965,-0.14887 1.3918,-0.04988c2.22604,1.00772 4.03474,1.842 5.8434,2.67629c0,0.00001 0.0322,-0.01301 0.06334,0.25018c0.66677,0.83949 1.30236,1.4158 1.44187,1.54233c-0.29495,2.38097 -0.52819,4.26394 -0.76148,6.14692c0,0 0.00973,0.02191 -0.2516,0.01049c-0.81889,0.45504 -1.3765,0.92151 -1.9341,1.38797c-0.16163,0.21389 -0.32325,0.42778 -0.98738,0.6954c-2.11015,0.05066 -3.71777,0.04757 -5.32542,0.0445c-0.73502,-0.58796 -1.47001,-1.17594 -2.30575,-2.11967c-0.18038,-0.51942 -0.30464,-0.63522 -0.47352,-0.70317z" id="svg_34"/>
   <path fill="#9E31D9" d="m767.34733,154.82075c2.25108,-2.05 4.47137,-4.13539 6.76651,-6.13482c1.11994,-0.97565 2.37948,-1.79101 3.73175,-2.46977c-0.46481,1.01911 -1.08553,1.82905 -2.02001,3.04847c2.24051,1.19418 4.17373,2.22458 6.10695,3.25498c-2.23706,2.02913 -4.5287,4.00207 -6.69361,6.10545c-1.68459,1.63671 -2.99451,3.82534 -6.16569,2.91383c-0.76803,-2.45901 -1.24699,-4.58857 -1.7259,-6.71814z" id="svg_35"/>
   <path fill="#9932CC" d="m760.82871,183.66413c1.635,0.27325 3.26269,0.72055 4.90631,0.78938c6.83445,0.28623 13.67377,0.45836 20.75265,0.86193c0.08811,0.34737 -0.09524,0.45264 -0.64633,0.50414c-4.51791,-0.00125 -8.69822,-0.00125 -12.88009,-0.00125c-0.09554,2.04492 -0.17467,3.73819 -0.27075,5.79429c3.92756,0 7.62512,0 11.32789,0.14373c0.00527,0.14373 0.00978,0.43133 0.00978,0.43133c-7.27996,0.07149 -14.55989,0.14298 -22.15723,-0.14645c-0.12182,-0.91099 -0.08028,-1.61845 0.29459,-1.9852c2.16372,-2.11679 2.19751,-3.80547 -0.75727,-5.16867c-0.31437,-0.14505 -0.39209,-0.80316 -0.57954,-1.22322z" id="svg_36"/>
   <path fill="#C645C5" d="m777.44823,97.40334c-2.69014,2.26775 -5.51166,2.4032 -7.79432,0.37419c-2.46786,-2.19367 -3.1054,-6.94437 -1.32695,-9.888c1.44595,-2.39329 4.79941,-3.52553 7.52423,-2.4446c0.74515,0.2956 1.37026,0.894 1.85426,1.59692c-2.53258,0.18833 -3.43711,1.02799 -2.67784,3.51304c0.39315,1.28648 0.40513,2.87032 0.04326,4.16742c-0.67163,2.40668 0.63042,2.64126 2.37737,2.68103z" id="svg_37"/>
   <path fill="#B739DA" d="m760.82981,183.65575c0.18635,0.42845 0.26407,1.08656 0.57844,1.23161c2.95479,1.3632 2.92099,3.05188 0.75727,5.16867c-0.37488,0.36675 -0.41641,1.07421 -0.62369,1.88686c-0.54682,0.24216 -1.0819,0.22175 -1.91,-0.08721c-0.70676,-0.53463 -1.12048,-0.78069 -1.53415,-1.02675c0,0 -0.10903,0.00652 -0.13549,-0.27626c-0.70296,-0.82082 -1.3795,-1.35889 -2.05601,-1.89697c0,0 -0.09302,0.01182 -0.12333,-0.26673c-0.72033,-0.80879 -1.41033,-1.33906 -2.10037,-1.86931c-0.38262,-0.22267 -0.76528,-0.44534 -1.49478,-0.97531c-0.73034,-2.47482 -1.11384,-4.64233 -1.49734,-6.80982c0.77757,-0.0367 1.5552,-0.07341 2.68651,0.03737c0.35378,0.14749 0.67836,0.2005 0.67836,0.2005c0,0 0.23886,-0.25335 0.23886,-0.25335c0.55898,-0.01145 1.118,-0.02289 1.99046,0.17236c0.41535,0.33594 0.5465,0.41892 0.70694,0.45567c0.48687,0.36673 0.9738,0.73345 1.54295,1.57351c0.81526,1.22604 1.54825,1.97876 2.2812,2.73147c0,0.00001 0.01526,-0.00469 0.01415,0.00367z" id="svg_38"/>
   <path fill="#8523EC" d="m786.17893,185.82082c0.21351,-0.05274 0.39686,-0.15801 0.63731,-0.45012c5.61684,-0.16838 11.14711,-0.16709 16.67571,-0.26294c1.2867,-0.02231 2.56766,-0.37512 4.14678,-0.65043c-0.62816,0.40425 -1.52795,1.23025 -2.48012,1.29591c-2.7192,0.18751 -5.45981,0.06593 -8.88622,0.06593c0.86105,0.99489 1.30064,1.50279 1.83463,2.11976c-0.54589,0.82445 -1.19691,1.8077 -2.13151,3.21927c1.79441,0.28874 3.03096,0.48769 4.47478,0.85858c-5.11156,0.20457 -10.4304,0.23721 -16.08563,0.22037c-0.33649,-0.04947 -0.34099,-0.33707 -0.14589,-0.63875c0.78346,-2.12699 1.37181,-3.95228 1.96016,-5.77758z" id="svg_39"/>
   <path fill="#8F2BDF" d="m800.70396,52.2706c-5.56655,0.04225 -11.13309,0.08451 -16.87427,-0.16289c0.5803,-0.55224 1.38379,-1.13137 2.08197,-1.0242c3.57043,0.54803 4.31019,-1.29211 3.92403,-4.29034c-0.09005,-0.69893 -0.01857,-1.41866 -0.02141,-2.12882c3.40583,-0.03774 6.81167,-0.07548 10.5102,0.20567c0.32167,2.67946 0.35055,5.04002 0.37948,7.40058z" id="svg_40"/>
   <path fill="#8A27E4" d="m800.38004,202.62068c0.33254,1.96186 0.33254,3.86082 0.33254,5.84677c2.01568,0.43192 3.80106,0.81449 5.67284,1.45043c-5.70274,0.32378 -11.49195,0.39419 -17.43926,0.22524c0.67093,-2.6571 1.49995,-5.07486 2.32902,-7.49262c2.92409,-0.03091 5.84818,-0.06182 9.10486,-0.02981z" id="svg_41"/>
   <path fill="#B03DD0" d="m761.88995,52.36709c-0.33458,-0.06114 -0.33294,-0.35368 -0.02256,-0.49377c1.25924,-0.2375 2.29708,-0.12393 3.13752,-0.47843c1.51579,-0.63933 3.62682,-1.25531 4.13749,-2.45599c0.41792,-0.98256 -1.13042,-2.80151 -1.80711,-4.24969c6.29353,-0.05003 12.58704,-0.10005 18.98301,0.09023c-0.73206,0.30964 -1.56599,0.43081 -2.40116,0.44014c-7.06168,0.07891 -7.06176,0.07278 -4.94967,7.04486c-5.58096,0.05459 -11.16197,0.10919 -17.07752,0.10263z" id="svg_42"/>
   <path fill="#8021EB" d="m800.97325,52.32927c-0.29821,-2.41924 -0.3271,-4.77979 -0.31436,-7.40394c0.59241,-0.29876 1.14321,-0.33392 2.13541,-0.15681c1.47554,0.07529 2.50971,-0.06171 3.54385,-0.19871c3.31989,0.07401 6.63982,0.14801 10.12479,0.45268c-2.25944,0.58246 -4.68392,0.93426 -7.79569,1.38579c0,7.20771 0,14.62651 -0.00106,22.38407c-0.12806,0.37184 -0.25509,0.40491 -0.57265,0.38843c-0.25319,-5.54868 -0.31587,-11.04781 -0.71268,-16.81877c-0.55358,-0.39345 -0.7291,-0.33679 -0.8607,-0.10184c-0.79036,0.03976 -1.58072,0.07952 -2.7315,-0.02698c-0.59069,-0.26499 -0.77174,-0.20188 -0.90351,0.04306c-0.54752,0.03722 -1.09509,0.07445 -1.9119,0.05301z" id="svg_43"/>
   <path fill="#C13ED2" d="m750.35549,178.67868c0.71839,2.22335 1.1019,4.39086 1.62244,6.78522c-3.98175,0.26145 -8.10063,0.29604 -12.55431,0.27405c-0.33533,-2.16416 -0.33582,-4.27173 -0.3383,-6.69465c3.64376,-0.35039 7.28957,-0.38543 11.27017,-0.36461z" id="svg_44"/>
   <path fill="#8F2BDF" d="m782.18898,152.51318c-2.18968,-1.02398 -4.1229,-2.05437 -6.36341,-3.24855c0.93447,-1.21942 1.5552,-2.02937 2.28306,-3.05005c3.75697,-0.45391 7.40675,-0.69709 11.34643,-0.61517c0.31728,2.46829 0.34471,4.6115 0.37213,6.75469c-2.46061,0.05089 -4.92118,0.10178 -7.63821,0.15908z" id="svg_45"/>
   <path fill="#B03DD0" d="m768.3643,227.73525c-0.5565,-2.38101 -0.7863,-4.7022 -1.01817,-7.3309c3.40083,-0.34099 6.80379,-0.37448 10.54071,-0.0336c0.33397,2.33391 0.33397,4.29342 0.33397,6.22091c-1.41184,0.42931 -2.48968,0.75703 -3.56751,1.08478c-1.98745,0.03955 -3.97485,0.07909 -6.289,0.05881z" id="svg_46"/>
   <path fill="#B739DA" d="m767.01261,154.77048c0.81363,2.17984 1.29259,4.3094 1.77632,6.70972c-1.24853,0.30539 -2.50184,0.34002 -4.29607,0.14179c-3.4399,-0.38699 -6.33886,-0.54113 -9.22093,-0.69436c0.19223,-2.36305 0.34519,-4.24326 0.49815,-6.12348c3.63589,-0.02797 7.27187,-0.05596 11.24252,-0.03367z" id="svg_47"/>
   <path fill="#BA41C8" d="m755.43675,154.74658c0.18038,1.93779 0.02742,3.818 -0.16481,6.18105c2.88206,0.15323 5.78103,0.30737 8.91133,0.64183c-6.0548,0.22945 -12.34088,0.27854 -18.96752,0.32282c-0.10722,-1.88779 0.12602,-3.77076 0.42097,-6.15173c-0.13951,-0.12654 -0.7751,-0.70284 -1.44851,-1.52627c3.61316,-0.00652 7.26413,0.23411 11.24854,0.5323z" id="svg_48"/>
   <path fill="#B03DD0" d="m775.29633,202.64198c2.6874,-0.03039 5.37479,-0.06077 8.39164,0.2817c0.31043,2.52526 0.29132,4.67764 0.14659,6.88149c-0.293,0.14135 -0.41115,0.2748 -0.48015,0.45181c-1.51397,0.03832 -3.02791,0.07664 -5.08334,-0.10504c-2.08733,-0.30066 -3.6332,-0.38133 -5.15735,-0.78227c0.01261,-2.25741 0.00349,-4.19454 0.23192,-6.14018c0.80858,-0.20152 1.37964,-0.39452 1.95069,-0.58752z" id="svg_49"/>
   <path fill="#A62FE6" d="m779.27538,52.31886c-2.42,-7.02648 -2.41992,-7.02035 4.64176,-7.09926c0.83517,-0.00933 1.6691,-0.13051 2.73331,-0.37983c1.01387,-0.21184 1.798,-0.24368 2.873,-0.22547c0.29367,0.76021 0.22219,1.47994 0.31225,2.17887c0.38616,2.99823 -0.3536,4.83837 -3.92403,4.29034c-0.69818,-0.10717 -1.50168,0.47196 -2.41218,0.95553c-1.4091,0.25872 -2.66267,0.29648 -4.2241,0.27983z" id="svg_50"/>
   <path fill="#C43ED7" d="m789.10235,163.52679c0.32361,-0.04296 0.64718,-0.08594 1.38658,0.07299c1.04386,0.27599 1.67198,0.35007 2.30005,0.42414c0.41756,0.11214 0.83508,0.22426 1.32943,0.84473c0.51067,3.48523 0.9446,6.46213 1.40414,9.57088c0.02561,0.13185 0.08378,0.39411 0.08378,0.39409c-0.12983,0.24063 -0.25965,0.48126 -0.88157,0.77903c-4.95559,1.23657 -5.10006,1.26029 -5.83013,-3.18492c-0.4514,-2.7485 -0.38235,-5.58246 -0.54695,-8.37806c0.00004,0 0.02309,0.03148 0.16495,-0.01663c0.34555,-0.14763 0.49484,-0.30035 0.58972,-0.50626z" id="svg_51"/>
   <path fill="#8523EC" d="m800.37995,127.32652c0.32675,2.13387 0.31901,4.21407 0.31238,6.609c-3.41592,0.5818 -6.83294,0.84886 -10.57115,0.92453c-0.32113,-0.1914 -0.33449,-0.47212 -0.21807,-0.7174c0.53208,-2.40364 0.94774,-4.56201 1.36341,-6.72036c2.92634,-0.0498 5.85264,-0.09963 9.11344,-0.09576z" id="svg_52"/>
   <path fill="#8422F0" d="m790.16134,152.40304c-0.36156,-2.19214 -0.38899,-4.33534 -0.37302,-6.74785c3.55411,-0.26776 7.06491,-0.26621 10.75366,-0.0089c-3.50664,2.15899 -1.70334,4.18153 0.10209,6.44538c-3.34727,0.28171 -6.74798,0.32101 -10.48273,0.31137z" id="svg_53"/>
   <path fill="#C43ED7" d="m758.67971,134.39655c0.13969,-2.21478 0.27938,-4.42955 0.53651,-6.9077c0.8944,-0.25296 1.67131,-0.24253 2.82992,0.07879c2.99411,0.53822 5.60657,0.76555 8.2163,1.31248c0.00349,1.81278 0.00973,3.30591 -0.20746,5.00238c-3.94066,0.3069 -7.65798,0.41047 -11.37527,0.51405z" id="svg_54"/>
   <path fill="#A62FE6" d="m770.27841,133.67918c-0.00624,-1.49315 -0.01247,-2.98629 0.31101,-4.79856c2.7729,-0.71907 5.21613,-1.11901 7.65931,-1.51896c1.00273,-0.03165 2.00545,-0.06328 3.30228,0.28666c0.29225,2.48653 0.29035,4.59144 -0.04719,6.70601c-3.96552,-0.21863 -7.59548,-0.44689 -11.22541,-0.67514z" id="svg_55"/>
   <path fill="#DBBA7F" d="m892.78402,45.18229c16.82145,0.58749 31.22307,7.1109 43.96281,18.16033c0.07374,0.2686 0.0242,0.34138 -0.21661,0.25971c-0.74258,-0.14884 -1.24433,-0.21601 -1.84342,-0.4833c-0.54354,-0.76379 -0.87724,-1.51128 -1.45284,-1.86356c-8.83622,-5.4084 -17.38547,-11.451 -27.94038,-13.20977c-2.02288,-0.33709 -4.07823,-0.47969 -6.38933,-0.7085c-0.99294,0.00994 -1.71514,0.01636 -2.51528,-0.24075c-1.27215,-0.55428 -2.46628,-0.84502 -3.89988,-1.14514c-0.81332,-0.21091 -1.38716,-0.41244 -1.68016,-0.6492c0.84561,-0.06342 1.41038,-0.09161 1.97511,-0.1198z" id="svg_56"/>
   <path fill="#8523EC" d="m800.70515,226.7984c-2.01752,0.38793 -4.04147,0.46609 -6.29184,0.71959c-0.55699,0.1997 -0.88759,0.22402 -1.62818,0.05434c-1.00719,-0.27909 -1.6043,-0.36417 -2.21242,-0.76579c0.19693,-2.43548 0.40487,-4.55444 0.61281,-6.67339c3.19794,-0.0435 6.39588,-0.087 9.91583,-0.0671c0.08051,2.18314 -0.161,4.30287 -0.3962,6.73236z" id="svg_57"/>
   <path fill="#ECCE85" d="m717.07834,120.71739c2.90839,0.89072 5.60383,1.03519 8.25054,-1.42174c0.94545,-0.87767 2.94347,-0.83999 4.4627,-0.84672c13.14151,-0.05825 26.28412,0.03524 39.4246,-0.09195c2.32508,-0.0225 4.64229,-0.85938 7.24095,-1.35579c-1.60996,0.71043 -3.49186,2.08413 -5.38651,2.10187c-13.5193,0.12659 -27.04192,-0.10558 -40.56149,0.00786c-1.91362,0.01606 -3.95875,1.03959 -5.69194,2.03426c-2.7008,1.54995 -5.15584,1.90789 -7.73885,-0.42779z" id="svg_58"/>
   <path fill="#A636D8" d="m789.13274,95.77331c-2.24448,0.03474 -4.48902,0.06947 -7.00577,-0.32899c0.28407,-3.39301 -0.51598,-5.7848 -3.18688,-7.39315c3.40278,0.0132 6.80561,0.02641 10.55067,0.3698c1.01418,2.76119 1.84988,5.20854 -0.35803,7.35233z" id="svg_59"/>
   <path fill="#B545B1" d="m773.09205,209.68997c1.54582,0.08065 3.09169,0.16131 4.85779,0.41159c-2.79736,0.46175 -5.72344,0.13795 -8.35471,2.7868c-2.28841,2.30374 -5.23762,0.81119 -7.28965,-1.37534c-2.13647,-2.27639 -1.98307,-7.59129 0.1058,-10.07026c2.04575,-2.42779 5.09719,-2.92215 7.71766,-1.35504c1.49606,0.89467 3.08523,1.63354 4.89995,2.4984c-0.30361,0.24887 -0.87467,0.44187 -1.93746,0.61259c-1.35575,-0.63948 -2.14377,-1.57328 -3.10085,-1.80296c-1.61399,-0.38734 -4.1064,-1.05691 -4.83262,-0.28819c-1.12194,1.1875 -1.22725,3.46819 -1.44528,5.32268c-0.11399,0.9698 0.37828,2.04543 0.72905,3.02591c0.3701,1.03457 0.71096,2.66643 1.40007,2.8634c1.05112,0.30043 2.44138,-0.27741 3.59414,-0.72382c1.2737,-0.49325 2.44195,-1.25879 3.65611,-1.90575z" id="svg_60"/>
   <path fill="#ECCE85" d="m772.08025,111.15047c-0.89967,0.2308 -2.13652,0.71751 -3.37536,0.72273c-13.2616,0.05604 -26.52369,0.06199 -39.78519,-0.00254c-1.36778,-0.00666 -3.05511,-0.15541 -4.03413,-0.93847c-2.23932,-1.7911 -4.26091,-2.44502 -6.87223,-0.83809c-2.78878,1.71608 -2.10648,4.32742 -2.00549,6.78811c0.03844,0.93736 0.42756,1.86035 0.68765,3.07183c-2.59149,-2.78038 -2.69438,-7.0332 -0.21174,-9.75039c2.56531,-2.80768 5.24302,-2.70393 9.19,0.09553c0.88887,0.63044 2.19725,0.93645 3.31348,0.93878c14.25154,0.02968 28.50321,-0.02323 43.09301,-0.08751z" id="svg_61"/>
   <path fill="#9A2AEB" d="m781.83945,134.34469c0.00191,-2.10493 0.0038,-4.20985 0.00447,-6.62372c2.22122,-0.35294 4.44368,-0.39693 7.10153,-0.26094c0.80372,0.10684 1.17196,0.03366 1.54025,-0.03951c0.13018,-0.0335 0.26041,-0.067 0.5857,-0.04936c-0.22055,2.20948 -0.63621,4.36785 -1.4965,6.76894c-2.8749,0.23002 -5.30517,0.21731 -7.73544,0.20459z" id="svg_62"/>
   <path fill="#CD44D2" d="m767.02014,44.63941c0.99184,1.49799 2.54018,3.31694 2.12227,4.2995c-0.51067,1.20068 -2.62171,1.81666 -4.13749,2.45599c-0.84043,0.3545 -1.87828,0.24093 -3.1338,0.33221c-1.26817,-1.23768 -2.85818,-2.41347 -2.97416,-3.72006c-0.07953,-0.89664 1.8896,-1.97507 3.14026,-3.1338c1.68746,-0.20225 3.17759,-0.24295 4.98293,-0.23383z" id="svg_63"/>
   <path fill="#8F2BDF" d="m789.4575,95.83348c1.88315,-2.20396 1.04744,-4.65131 0.36687,-7.35893c3.39628,-0.31516 6.80127,-0.35371 10.46092,-0.07204c-1.02268,0.73231 -2.29996,1.14437 -4.11472,1.72985c0.29583,1.8186 0.60626,3.727 0.91674,5.63539c-2.43505,0.04196 -4.87,0.08392 -7.62981,0.06572z" id="svg_64"/>
   <path fill="#C43ED7" d="m778.8553,87.86401c2.75569,1.79551 3.55574,4.1873 2.99194,7.50955c-1.31957,0.85528 -2.63174,1.34814 -4.17147,1.93539c-1.97448,0.05461 -3.27653,-0.17996 -2.6049,-2.58665c0.36187,-1.2971 0.34989,-2.88095 -0.04326,-4.16742c-0.75927,-2.48505 0.14526,-3.32471 2.75985,-3.26655c0.51315,0.1315 0.74811,0.26001 1.06784,0.57567z" id="svg_65"/>
   <path fill="#A636D8" d="m774.98347,227.73429c0.74767,-0.3856 1.82551,-0.71333 3.23735,-1.14264c0,-1.92748 0,-3.887 -0.00168,-6.16024c1.71798,-0.35915 3.4376,-0.40456 5.47697,-0.07705c0.7644,2.89129 -1.2134,6.40777 3.17432,7.3016c-3.85228,0.0454 -7.70457,0.09081 -11.88696,0.07833z" id="svg_66"/>
   <path fill="#B545B1" d="m788.09418,164.08808c0.41809,2.75719 0.34905,5.59115 0.80044,8.33965c0.73007,4.44522 0.87454,4.42149 5.62763,3.24759c-1.94821,1.96031 -5.63148,2.04879 -7.65029,0.19629c-2.99618,-2.7494 -3.46585,-7.27638 -0.98932,-10.26286c0.50873,-0.61346 1.29807,-0.99423 2.21154,-1.52067z" id="svg_67"/>
   <path fill="#871FF5" d="m797.37315,95.82092c-0.59631,-1.96155 -0.90675,-3.86995 -1.20258,-5.68855c1.81476,-0.58548 3.09204,-0.99755 4.44727,-1.66625c0.85335,-0.29511 1.62876,-0.33359 2.68974,-0.3093c0.28429,2.36096 0.28301,4.65915 0.28314,7.27048c-0.78041,0.35487 -1.56232,0.39659 -2.70031,0.28858c-0.59446,-0.27423 -0.78023,-0.20912 -0.91346,0.04559c-0.77267,0.03753 -1.54534,0.07507 -2.60379,0.05946z" id="svg_68"/>
   <path fill="#9E31D9" d="m783.96022,209.75371c0.01907,-2.15239 0.03818,-4.30477 0.05799,-6.77555c2.20167,-0.35916 4.40259,-0.39991 6.93021,-0.38417c-0.50231,2.47426 -1.33133,4.89203 -2.33242,7.49023c-1.44683,0.21469 -2.72168,0.24896 -4.30882,0.10253c-0.31233,-0.18067 -0.34697,-0.43304 -0.34697,-0.43304z" id="svg_69"/>
   <path fill="#8F2BDF" d="m787.16396,227.71231c-4.68126,-0.95018 -2.70346,-4.46666 -3.15096,-7.29823c2.1941,-0.34007 4.39096,-0.36694 6.88014,-0.33737c0.08444,2.1754 -0.1235,4.29435 -0.47109,6.79008c-0.34188,0.47538 -0.48824,0.62765 -0.57879,0.83356c-0.79527,0.02276 -1.5905,0.04554 -2.6793,0.01197z" id="svg_70"/>
   <path fill="#ECCE85" d="m818.56866,111.86036c-3.23868,0.26704 -6.62603,0.26175 -10.26223,0.39085c-9.21544,0.24906 -18.18203,0.36375 -27.48151,0.54152c0.7751,-0.49156 1.87841,-1.51692 2.99186,-1.52807c11.20142,-0.11222 22.40458,-0.06127 33.60717,-0.03503c0.33228,0.00078 0.66403,0.23371 1.14472,0.63073z" id="svg_71"/>
   <path fill="#A62FE6" d="m795.49694,174.30767c-0.43393,-2.97689 -0.86786,-5.95379 -1.29622,-9.23465c1.74103,0.44986 3.47643,1.20371 5.62449,2.2568c0.56207,2.44238 0.71154,4.58552 0.86096,6.72866c-1.2576,0.0491 -2.51515,0.09821 -4.28458,0.17054c-0.6428,0.04171 -0.77373,0.06017 -0.90466,0.07865z" id="svg_72"/>
   <path fill="#ECCE85" d="m856.73279,226.3399c-0.05348,0.3567 -0.10691,0.7134 -0.11076,1.24382c-2.76432,0.27741 -5.57832,0.38112 -8.54695,0.4668c-0.15468,-0.01803 -0.05737,-0.06823 -0.05737,-0.06823c0.58525,-0.38472 1.17054,-0.76944 1.76018,-1.75813c0.10369,-6.37425 0.20303,-12.14456 0.30238,-17.91485c0,0 0.34068,0.00269 0.64395,0.20869c0.19219,5.00919 0.03459,9.81186 -0.01615,14.61567c-0.04632,4.38545 0.47966,4.71521 4.67737,3.35552c0.36819,-3.92261 0.73246,-7.80288 1.12495,-11.3453c0.09293,3.95723 0.15769,7.57662 0.2224,11.19601z" id="svg_73"/>
   <path fill="#8523EC" d="m801.00674,174.11754c-0.46998,-2.2022 -0.61945,-4.34535 -0.89528,-6.74197c2.06366,-0.2895 4.2537,-0.32552 6.77177,-0.34838c-2.61052,1.97276 -2.74529,4.19145 0.10545,6.83259c-1.76642,0.22424 -3.71387,0.27053 -5.98194,0.25776z" id="svg_74"/>
   <path fill="#A13DBD" d="m781.50381,134.35432c2.76591,0.00309 5.19618,0.0158 7.95465,0.03105c0.32822,0.00255 0.34157,0.28327 0.33967,0.42375c-8.72281,0.19161 -17.44466,0.33136 -26.16393,0.23528c-2.35737,-0.02597 -4.33708,0.27909 -6.16087,2.16754c0.14602,-0.78236 0.56707,-1.59189 1.09725,-2.60842c3.82641,-0.31057 7.54373,-0.41414 11.48439,-0.72104c3.85335,0.02494 7.48331,0.2532 11.44883,0.47183z" id="svg_75"/>
   <path fill="#9C8970" d="m892.5694,44.96022c-0.3501,0.25027 -0.91488,0.27846 -2.09768,0.32351c-6.90004,0.00853 -13.18197,0.0002 -19.8022,-0.04962c-4.11892,-0.14915 -7.89959,-0.25681 -11.68025,-0.36447c11.12185,-0.04383 22.24367,-0.08766 33.58013,0.09058z" id="svg_76"/>
   <path fill="#A13DBD" d="m777.91485,127.288c-2.10931,0.47361 -4.55254,0.87355 -7.3227,1.27301c-2.93944,-0.22782 -5.5519,-0.45515 -8.25872,-0.94516c5.0196,-0.30896 10.13359,-0.35524 15.58142,-0.32784z" id="svg_77"/>
   <path fill="#963DAE" d="m835.26679,77.58475c-8.72449,0.26194 -17.61341,0.26446 -26.82752,0.29819c-0.32525,0.03121 -0.53845,-0.20136 -0.56106,-0.35718c9.05969,-0.17069 18.14191,-0.18557 27.38858,0.05899z" id="svg_78"/>
   <path fill="#DBBA7F" d="m858.85687,44.83891c3.91306,0.13839 7.69373,0.24604 11.58409,0.58969c-1.18169,0.32108 -2.47543,0.38033 -3.76394,0.49666c-2.63768,0.23812 -5.27253,0.5069 -8.03375,0.7905c-0.12518,0.02745 -0.37962,0.0587 -0.37962,0.0587c-0.06387,-0.40008 -0.12774,-0.80016 -0.11328,-1.50031c0.21705,-0.43466 0.38231,-0.48996 0.7065,-0.43524z" id="svg_79"/>
   <path fill="#BA41C8" d="m744.09461,153.69533c-1.77176,-0.58158 -3.58047,-1.41586 -5.5558,-2.43988c1.72846,0.60258 3.62369,1.39487 5.5558,2.43988z" id="svg_80"/>
   <path fill="#8021EB" d="m840.25896,45.32753c-0.87374,0.22134 -2.04699,0.38456 -3.27995,0.30174c0.95367,-0.28398 1.96701,-0.32191 3.27995,-0.30174z" id="svg_81"/>
   <path fill="#8422F0" d="m808.0324,97.05239c0.24222,1.93483 0.4238,4.19576 0.57981,6.80196c-0.02561,0.34527 -0.31282,0.47808 -0.46294,0.42621c-0.15924,-2.33527 -0.16835,-4.61868 -0.11687,-7.22817z" id="svg_82"/>
   <path fill="#8021EB" d="m828.95637,46.46105c-1.16678,-0.04292 -2.33229,-0.29854 -3.56507,-0.80754c0.94659,-0.29358 1.96051,-0.33379 3.27419,-0.31503c0.29725,0.34261 0.29473,0.62624 0.29088,1.12257z" id="svg_83"/>
   <path fill="#8F2BDF" d="m806.18535,44.40691c-0.88135,0.2999 -1.91553,0.4369 -3.11894,0.41517c0.87591,-0.29852 1.92101,-0.4383 3.11894,-0.41517z" id="svg_84"/>
   <path fill="#BA41C8" d="m736.52381,164.25252c1.46058,-0.22362 3.0682,-0.22053 4.97669,-0.22435c-1.40932,0.14575 -3.11947,0.2984 -4.97669,0.22435z" id="svg_85"/>
   <path fill="#C13ED2" d="m945.05854,201.42703c0.33538,-0.77439 0.8944,-1.61225 1.63518,-2.37349c-0.34931,0.82108 -0.88042,1.56555 -1.63518,2.37349z" id="svg_86"/>
   <path fill="#9932CC" d="m760.77917,183.41994c-0.69646,-0.52058 -1.42945,-1.2733 -2.16673,-2.28054c0.70725,0.51313 1.41878,1.28077 2.16673,2.28054z" id="svg_87"/>
   <path fill="#C13ED2" d="m735.71168,188.57458c0.32786,-0.68995 0.89843,-1.33789 1.70493,-2.00345c-0.33015,0.67007 -0.89617,1.35775 -1.70493,2.00345z" id="svg_88"/>
   <path fill="#A636D8" d="m919.04544,221.11035c0.49347,-0.45158 1.21451,-0.86472 2.17292,-1.29257c-0.49019,0.43388 -1.2177,0.88245 -2.17292,1.29257z" id="svg_89"/>
   <path fill="#9932CC" d="m755.95428,188.87964c0.62843,0.31414 1.30497,0.85221 2.01497,1.61888c-0.63333,-0.31259 -1.30015,-0.85377 -2.01497,-1.61888z" id="svg_90"/>
   <path fill="#9932CC" d="m753.73837,186.73671c0.63417,0.31322 1.32417,0.84348 2.0503,1.60575c-0.64077,-0.30823 -1.31758,-0.84848 -2.0503,-1.60575z" id="svg_91"/>
   <path fill="#D19851" d="m966.03152,161.37387c-0.07325,-0.79018 0.02384,-1.73457 0.283,-2.85148c0.07051,0.78405 -0.0211,1.74066 -0.283,2.85148z" id="svg_92"/>
   <path fill="#A13DBD" d="m756.96846,124.76135c-0.91002,0.14783 -1.93973,0.05169 -3.16313,-0.21014c0.88537,-0.12173 1.96441,-0.07778 3.16313,0.21014z" id="svg_93"/>
   <path fill="#A636D8" d="m865.52748,227.69877c0.76396,-0.16432 1.81658,-0.26374 3.05171,-0.2126c-0.79939,0.19285 -1.78119,0.23519 -3.05171,0.2126z" id="svg_94"/>
   <path fill="#ECCE85" d="m778.54854,115.03491c0.10514,-0.46036 0.42464,-1.01477 1.01644,-1.57334c-0.08586,0.49032 -0.44397,0.98481 -1.01644,1.57334z" id="svg_95"/>
   <path fill="#C13ED2" d="m939.97896,206.60197c0.08674,-0.38779 0.38549,-0.78473 0.87839,-1.225c-0.09271,0.3764 -0.37962,0.79612 -0.87839,1.225z" id="svg_96"/>
   <path fill="#A636D8" d="m913.20275,223.40407c0.18574,-0.32569 0.5933,-0.65908 1.12202,-0.83517c-0.21931,0.38069 -0.55977,0.60408 -1.12202,0.83517z" id="svg_97"/>
   <path fill="#9932CC" d="m758.11822,191.04498c0.39314,0.03001 0.80686,0.27607 1.26458,0.70777c-0.38532,-0.04014 -0.81469,-0.26592 -1.26458,-0.70777z" id="svg_98"/>
   <path fill="#BA41C8" d="m742.90598,163.22556c0.34117,-0.4061 0.89877,-0.87257 1.70833,-1.33601c-0.32931,0.42723 -0.91059,0.85144 -1.70833,1.33601z" id="svg_99"/>
   <path fill="#661EC3" d="m790.12436,227.76696c-0.19056,-0.27252 -0.04419,-0.42479 0.30866,-0.58364c0.74781,0.02484 1.34492,0.10992 2.1056,0.35289c-0.60202,0.20438 -1.36757,0.25087 -2.41426,0.23074z" id="svg_100"/>
   <path fill="#A636D8" d="m858.26958,227.69086c0.54509,-0.15822 1.36442,-0.25248 2.34751,-0.20237c-0.58189,0.18503 -1.32762,0.22568 -2.34751,0.20237z" id="svg_101"/>
   <path fill="#D19851" d="m963.59983,169.24629c-0.05825,-0.33357 0.03145,-0.76865 0.27858,-1.29661c0.0614,0.33646 -0.03459,0.7658 -0.27858,1.29661z" id="svg_102"/>
   <path fill="#D19851" d="m965.26429,164.23281c-0.10532,-0.36382 -0.04883,-0.796 0.1262,-1.34169c0.09089,0.34877 0.06325,0.81105 -0.1262,1.34169z" id="svg_103"/>
   <path fill="#B545B1" d="m792.66857,163.79902c-0.50767,0.15083 -1.13578,0.07675 -1.93672,-0.16268c0.4902,-0.13098 1.15325,-0.0966 1.93672,0.16268z" id="svg_104"/>
   <path fill="#8422F0" d="m847.7904,227.76999c0.22732,0.2123 0.13,0.2625 0.13398,0.27476c-0.65881,-0.04468 -1.32165,-0.10161 -2.36679,-0.47661c0.41353,-0.21553 1.20951,-0.11298 2.23281,0.20186z" id="svg_105"/>
   <path fill="#A636D8" d="m916.65344,221.44365c0.31048,-0.13385 0.60826,-0.13332 1.12919,-0.1325c-0.09444,0.21283 -0.41203,0.42539 -0.93757,0.58742c-0.20794,-0.05052 -0.20436,-0.32052 -0.19162,-0.45492z" id="svg_106"/>
   <path fill="#8523EC" d="m790.26971,127.35033c-0.1523,0.14337 -0.52054,0.21655 -0.99613,0.17519c0.18856,-0.15816 0.48435,-0.20178 0.99613,-0.17519z" id="svg_107"/>
   <path fill="#A636D8" d="m922.64604,219.04686c0.112,-0.20504 0.43234,-0.41011 0.95098,-0.62767c-0.11532,0.20088 -0.42898,0.41425 -0.95098,0.62767z" id="svg_108"/>
   <path fill="#D19851" d="m964.5589,166.56971c-0.12876,-0.20757 -0.1089,-0.44481 -0.00548,-0.76859c0.14668,0.09503 0.23014,0.27294 0.26363,0.45981c0.01504,0.08378 -0.06989,0.18551 -0.25815,0.30877z" id="svg_109"/>
   <path fill="#8F2BDF" d="m806.99885,88.17512c0.15371,0.04781 -0.05658,0.26435 -0.05658,0.26435c0,0 -0.28561,-0.04149 -0.34471,-0.12793c-0.0591,-0.08644 0.24761,-0.18424 0.40128,-0.13642z" id="svg_110"/>
   <path fill="#E5BF70" d="m936.83919,63.57132c0.27023,-0.04889 0.46512,0.05179 0.66111,0.4234c0.05773,0.16126 -0.01712,0.21932 -0.16879,0.15892c-0.30185,-0.18286 -0.43814,-0.31928 -0.56048,-0.46965c0,0 0.04954,-0.07278 0.06816,-0.11268z" id="svg_111"/>
   <path fill="#8A27E4" d="m807.47662,210.63099c0.17883,-0.03679 0.2765,0.0789 0.40442,0.31263c-0.17746,0.10885 -0.34939,0.01612 -0.40442,-0.31263z" id="svg_112"/>
   <path fill="#8523EC" d="m807.75502,219.93803c0.11435,0.24943 -0.04534,0.37652 -0.39651,0.26491c-0.08727,-0.0797 0.22674,-0.22831 0.39651,-0.26491z" id="svg_113"/>
   <path fill="#8F2BDF" d="m806.68183,52.30886c-0.03008,-0.28363 0.14544,-0.34028 0.42641,-0.1285c0.06153,0.09016 -0.26474,0.17718 -0.42641,0.1285z" id="svg_114"/>
   <path fill="#8F2BDF" d="m803.05527,52.3224c-0.03835,-0.29108 0.1427,-0.35418 0.44065,-0.14457c0.06768,0.09089 -0.27049,0.1907 -0.44065,0.14457z" id="svg_115"/>
   <path fill="#A636D8" d="m924.79073,218.14837c-0.08201,-0.1784 0.01774,-0.29352 0.26054,-0.423c0.16415,0.17871 0.09019,0.3456 -0.26054,0.423z" id="svg_116"/>
   <path fill="#8021EB" d="m832.39228,45.33872c0.1749,0.04656 -0.06538,0.29795 -0.06538,0.29795c0,0 -0.32348,-0.04829 -0.3908,-0.14768c-0.06736,-0.09939 0.28129,-0.19683 0.45618,-0.15026z" id="svg_117"/>
   <path fill="#DBBA7F" d="m856.86539,45.0089c0.00124,0.04428 0.04468,0.08622 0.06392,0.06264c0.01924,-0.02358 -0.06516,-0.10693 -0.06392,-0.06264z" id="svg_118"/>
   <path fill="#ECCE85" d="m779.96379,113.47515c-0.0583,-0.18225 0.08807,-0.41232 0.4437,-0.68274c0.0598,0.18475 -0.08962,0.40984 -0.4437,0.68274z" id="svg_119"/>
   <path fill="#ECCE85" d="m839.37084,227.98629c0.01844,-0.02342 -0.02362,0.01989 -0.04246,0.01911c-0.0188,-0.00075 0.02397,0.00433 0.04246,-0.01911z" id="svg_120"/>
   <path fill="#A13DBD" d="m750.56197,125.25892c0.11956,0.19335 0.04445,0.30659 -0.19056,0.4079c-0.22408,-0.18906 -0.1722,-0.34777 0.19056,-0.4079z" id="svg_121"/>
   <path fill="#B545B1" d="m795.52255,174.43953c0.10532,-0.15034 0.23625,-0.1688 0.56481,-0.18348c0.17432,0.24322 0.05724,0.42092 -0.31724,0.55726c-0.16379,0.02033 -0.22196,-0.24193 -0.24757,-0.37378z" id="svg_122"/>
   <path fill="#D19851" d="m963.32333,169.73468c-0.16716,0.01741 -0.34073,0.01332 -0.76059,-0.14294c-0.24629,-0.15216 -0.232,-0.29939 -0.232,-0.29939c0.17322,0.03599 0.34644,0.072 0.75006,0.2421c0.2305,0.1341 0.23608,0.1787 0.24253,0.20023z" id="svg_123"/>
   <path fill="#9932CC" d="m754.12134,178.6683c0.17277,0.05076 -0.06609,0.30411 -0.06609,0.30411c0,0 -0.32458,-0.05301 -0.38894,-0.15498c-0.06436,-0.10197 0.28226,-0.19989 0.45503,-0.14913z" id="svg_124"/>
   <path fill="#9932CC" d="m756.99213,179.20053c-0.16105,0.10981 -0.29221,0.02682 -0.44485,-0.20919c0.1707,-0.21444 0.33613,-0.15797 0.44485,0.20919z" id="svg_125"/>
   <path fill="#B545B1" d="m788.91732,163.48928c0.09015,0.24342 -0.05914,0.39615 -0.4211,0.53336c-0.02681,-0.16514 0.10465,-0.368 0.4211,-0.53336z" id="svg_126"/>
   <path fill="#8523EC" d="m805.95242,192.23476c-0.02955,-0.30956 0.15557,-0.36849 0.44795,-0.12206c0.05976,0.10177 -0.28084,0.16911 -0.44795,0.12206z" id="svg_127"/>
   <path fill="#BA41C8" d="m733.55805,161.35644c0.2083,-0.0855 0.33255,0.03031 0.44941,0.31805c-0.20383,0.14768 -0.37921,0.05146 -0.44941,-0.31805z" id="svg_128"/>
   <path fill="#BA41C8" d="m736.73856,151.28181c0.08816,0.21737 -0.03313,0.34631 -0.33661,0.46161c-0.14336,-0.21076 -0.04021,-0.38955 0.33661,-0.46161z" id="svg_129"/>
   <path fill="#A13DBD" d="m755.20921,138.23683c-0.01442,-0.21307 0.09192,-0.27989 0.3225,-0.29755c0.0951,0.2252 -0.01353,0.35674 -0.3225,0.29755z" id="svg_130"/>
   <path fill="#A13DBD" d="m758.11083,125.57659c-0.09435,0.03405 -0.09771,0.00149 -0.1066,0.00908c-0.00889,0.00759 0.0571,-0.18133 0.0571,-0.18133c0,0 0.14381,0.1382 0.0495,0.17225z" id="svg_131"/>
   <path fill="#B545B1" d="m783.83455,209.80517c0.12567,-0.05146 0.1603,0.20091 0.15876,0.32828c-0.00155,0.12735 -0.3214,0.22404 -0.48016,0.17379c-0.08975,-0.22727 0.0284,-0.36072 0.3214,-0.50207z" id="svg_132"/>
   <path fill="#A13DBD" d="m751.98407,124.50414c0.09921,0.21877 -0.01499,0.34805 -0.31865,0.45207c-0.15558,-0.21543 -0.05733,-0.38751 0.31865,-0.45207z" id="svg_133"/>
   <path fill="#ECCE85" d="m777.12223,116.62476c-0.07183,-0.20241 0.09824,-0.52033 0.53363,-0.92533c0.07966,0.2119 -0.10603,0.51085 -0.53363,0.92533z" id="svg_134"/>
   <path fill="#8A27E4" d="m808.06116,201.24759c0.30574,-0.02579 0.3582,0.16299 0.10536,0.45896c-0.10023,0.0638 -0.15349,-0.28779 -0.10536,-0.45896z" id="svg_135"/>
   <path fill="#8A27E4" d="m807.80575,202.10136c0.0196,0.09143 -0.08891,0.18325 -0.29291,0.32162c-0.09714,-0.13553 -0.01036,-0.25813 0.29291,-0.32162z" id="svg_136"/>
   <path fill="#D248C9" d="m962.35188,172.47311c-0.10461,-0.01328 -0.0484,-0.18388 -0.01646,-0.21494c0.03194,-0.03106 0.22608,0.04703 0.22608,0.04703c0,0 -0.10501,0.1812 -0.20962,0.16791z" id="svg_137"/>
   <path fill="#8A27E4" d="m807.02495,202.49757c-0.01743,0.1346 -0.20113,0.21246 -0.44026,0.17774c-0.05546,-0.11259 0.27403,-0.23449 0.44026,-0.17774z" id="svg_138"/>
   <path fill="#8F2BDF" d="m806.68806,95.88297c-0.04498,-0.35352 0.1274,-0.41978 0.41536,-0.19426c-0.04866,0.16105 -0.15318,0.2243 -0.41536,0.19426z" id="svg_139"/>
   <path fill="#8F2BDF" d="m800.14963,95.81073c-0.03945,-0.30398 0.14632,-0.36908 0.45091,-0.14857c0.06622,0.09601 -0.27823,0.19786 -0.45091,0.14857z" id="svg_140"/>
   <path fill="#BD3ED5" d="m907.24381,172.75459c5.31897,-0.22076 10.63794,-0.44151 16.29317,-0.64151c0.90201,2.80635 1.4678,5.59195 1.87444,8.54418c-2.86672,-1.02118 -5.10714,-0.68814 -7.21977,1.6516c-0.80597,0.89265 -2.5297,1.33193 -3.83848,1.33869c-17.37229,0.08992 -34.74511,0.06605 -52.44907,-0.00469c-0.33117,-0.07528 -0.33777,-0.39129 0.0053,-0.54889c4.46182,-0.17172 8.58052,-0.18584 13.03907,-0.18722c5.18556,0.00349 10.03137,-0.00575 15.21614,-0.00572c3.21956,0.01007 6.10456,0.11474 8.9799,-0.00816c8.064,-0.34475 8.0621,-0.38178 8.08165,-8.33803c0.00146,-0.60009 0.01154,-1.20015 0.01765,-1.80023z" id="svg_141"/>
   <path fill="#963DAE" d="m925.72317,193.77959c-3.212,4.67667 -5.82394,5.72586 -9.55776,3.71765c-1.60381,-0.82803 -2.93656,-2.0177 -4.37242,-2.15901c-3.19653,-0.3146 -6.44462,-0.10487 -10.01434,-0.42471c-0.15486,-2.37411 -1.40861,-2.61769 -3.04834,-2.59148c-3.46037,0.05532 -6.92597,0.10482 -10.38227,-0.02784c-1.94433,-0.07463 -3.87449,-0.51697 -5.81103,-0.79366c5.03667,-0.12423 10.07278,-0.29434 15.1102,-0.35913c4.58027,-0.05892 9.16209,-0.01365 13.74317,0.00542c2.95372,0.0123 5.7981,-0.32937 8.33989,2.24435c1.01042,1.02314 3.75984,0.32892 5.99291,0.38841z" id="svg_142"/>
   <path fill="#7D24BA" d="m882.20252,191.4626c2.27102,0.31462 4.20119,0.75696 6.14552,0.83159c3.4563,0.13266 6.92189,0.08315 10.38227,0.02784c1.63973,-0.02621 2.89348,0.21736 2.71062,2.5782c-1.47912,0.31883 -2.96315,0.33506 -5.10436,0.34656c-7.43403,-0.01294 -14.21097,-0.02115 -21.02623,-0.30804c-1.16926,-1.04807 -2.26704,-2.41635 -3.43719,-2.48133c-4.62866,-0.25705 -9.28003,-0.10579 -13.92413,-0.30403c0.00168,-0.33013 0.00447,-0.46217 0.00721,-0.5942c7.97063,-0.04485 15.94121,-0.08968 24.24629,-0.09658z" id="svg_143"/>
   <path fill="#A06C99" d="m836.92523,187.67353c-0.27226,-0.67498 -0.70999,-1.68865 -0.71078,-2.70267c-0.02703,-35.02142 -0.01274,-70.04285 0.04569,-105.40671c0.25864,1.04171 0.64762,2.42564 0.64935,3.81005c0.04277,34.65346 0.04481,69.30696 0.01575,104.29933z" id="svg_144"/>
   <path fill="#661EC3" d="m857.61975,191.49967c0.33374,0.19155 0.33095,0.32359 0.22063,0.86412c-0.76404,1.22035 -1.42055,2.0322 -2.25559,2.8586c-0.17848,0.01455 -0.53442,0.05443 -0.53442,0.05443c-4.84625,-0.01133 -9.69255,-0.02264 -14.87731,-0.02566c-0.88299,-0.00522 -1.4275,-0.01873 -2.24343,-0.05135c0.03887,-1.1752 0.34913,-2.33129 1.18324,-3.58508c0.68738,-0.15683 0.851,-0.216 1.01466,-0.27515c5.71858,0.03352 11.4371,0.06704 17.49221,0.16008z" id="svg_145"/>
   <path fill="#8021EB" d="m810.42401,69.32821c2.11184,-0.35582 4.55825,-0.63311 7.3342,-0.91277c3.96711,-0.00213 7.60459,-0.00188 11.58007,-0.00415c3.36505,0.12517 6.39212,0.25283 9.6216,0.61679c-9.26556,0.28375 -18.73344,0.3312 -28.53586,0.30014z" id="svg_146"/>
   <path fill="#963DAE" d="m839.99927,191.19368c-0.03539,0.20507 -0.19901,0.26423 -0.61922,0.36931c-0.25669,0.04591 -0.27283,-0.31573 -0.26213,-0.49635c0.25815,-0.1267 0.50564,-0.07278 0.88135,0.12704z" id="svg_147"/>
   <path fill="#9D2FEC" d="m874.60867,182.89399c-4.11874,0.01412 -8.23744,0.02824 -12.69435,0.04201c-0.9082,-0.06365 -1.47819,-0.12695 -2.74003,-0.26705c2.36024,-1.62352 2.72521,-2.89379 0.87621,-4.81407c-0.86383,-0.89714 -0.4802,-2.99534 -0.65673,-4.81939c4.36848,-0.27243 8.7318,-0.27463 13.43287,0.03398c0.8192,3.48207 1.3006,6.6533 1.78203,9.82452z" id="svg_148"/>
   <path fill="#8422F0" d="m809.24002,104.25195c3.64129,-0.70306 7.53289,-1.31781 11.44842,-1.59856c0.94465,-0.06773 1.96861,0.96988 3.07174,1.729c-4.67657,0.18005 -9.46885,0.13028 -14.52017,-0.13044z" id="svg_149"/>
   <path fill="#ECCE85" d="m819.37313,112.59649c-0.17959,0.07876 -0.40146,-0.04703 -0.69322,-0.35544c0.17039,-0.07144 0.41066,0.03972 0.69322,0.35544z" id="svg_150"/>
   <path fill="#FCD571" d="m856.48216,214.80606c-0.36426,3.88025 -0.72852,7.76052 -1.09672,11.68313c-4.1977,1.35969 -4.72368,1.02993 -4.67737,-3.35552c0.05074,-4.80381 0.20833,-9.60648 0.18653,-14.61845c-0.12367,-0.49012 -0.11448,-0.77143 0.12846,-1.29746c0.52146,-0.35608 0.80925,-0.46744 1.09707,-0.5788c0.36258,-0.04864 0.72512,-0.09726 1.45856,-0.1569c0.60007,0.01381 0.77496,-0.07214 0.89554,-0.26886c2.86734,0.03144 5.73472,0.06288 9.18267,0.19896c7.03735,0.13397 13.49444,0.20459 19.95043,0.14926c0.99609,-0.00854 2.16058,-0.36306 2.95178,-0.9535c4.27608,-3.19132 5.3103,-3.25293 9.75721,-0.13099c0.42619,1.8922 0.85233,3.7844 1.32603,5.93275c-2.82328,6.2325 -5.99954,7.33119 -10.66244,3.37163c-0.65178,-0.82197 -1.1314,-1.36528 -1.6143,-1.36826c-8.9308,-0.05561 -17.86235,-0.07881 -26.79253,0.01057c-0.69977,0.00701 -1.39074,0.89419 -2.08171,1.37769c0.00407,0.0054 -0.0092,0.00475 -0.0092,0.00475z" id="svg_151"/>
   <path fill="#AB39DC" d="m896.33224,205.18169c-4.46283,-2.8267 -5.49705,-2.76509 -9.77313,0.42623c-0.7912,0.59044 -1.95569,0.94496 -2.95178,0.9535c-6.45599,0.05533 -12.91308,-0.01528 -19.61957,-0.19983c-0.25314,-0.29089 -0.25651,-0.42658 0.08095,-0.7646c2.50984,-0.20333 4.69439,-0.36575 6.84373,-0.1604c2.20044,0.21021 3.11195,-0.77402 3.26213,-2.75608c0.18635,-2.46021 0.30256,-4.92576 0.63037,-7.40736c0.30207,-0.03083 0.42291,-0.04328 0.54371,-0.05575c6.77695,0.00823 13.55389,0.01644 20.67086,0.04058c0.33626,3.2201 0.33246,6.42429 0.31273,9.92372z" id="svg_152"/>
   <path fill="#9A2AEB" d="m874.62367,195.29152c-0.14655,2.46323 -0.26275,4.92878 -0.4491,7.38899c-0.15018,1.98206 -1.06169,2.96629 -3.26213,2.75608c-2.14934,-0.20535 -4.33389,-0.04293 -6.84135,-0.04316c-9.02984,0.00665 -9.02988,0.00665 -9.0259,-8.74531c0.00013,-0.23911 0.00115,-0.47819 0.00345,-1.04431c0.00172,-0.32699 0.35767,-0.36687 0.87613,-0.36446c6.5786,0.019 12.63875,0.03558 18.6989,0.05217z" id="svg_153"/>
   <path fill="#8422F0" d="m849.84141,208.50008c0.13951,5.57953 0.04016,11.34983 -0.14004,17.4371c-0.08683,-5.53746 -0.0928,-11.3919 0.14004,-17.4371z" id="svg_154"/>
   <path fill="#AB39DC" d="m851.98288,206.50313c-0.15057,0.24719 -0.43835,0.35855 -0.95876,0.50329c0.11877,-0.19079 0.47016,-0.41495 0.95876,-0.50329z" id="svg_155"/>
   <path fill="#AB39DC" d="m854.34605,206.17586c0.0076,0.23406 -0.16729,0.32001 -0.51373,0.19758c0.03442,-0.20158 0.20202,-0.24735 0.51373,-0.19758z" id="svg_156"/>
   <path fill="#FEA461" d="m953.6288,88.70027c5.53505,8.43927 8.58445,17.81676 10.90471,27.56788c2.4875,10.45393 2.47614,21.03106 1.97201,31.58466c-0.26553,5.55866 -1.97449,11.04836 -3.56936,16.75685c-4.6775,0.17629 -8.81735,0.16493 -12.92215,-0.11279c0.46786,-1.47219 1.28379,-2.6826 1.26941,-3.88307c-0.07759,-6.47663 -0.46719,-12.95009 -0.51063,-19.42623c-0.01349,-2.01263 0.71866,-4.03026 1.10946,-6.04559c0.336,-0.00969 0.67204,-0.01939 1.00803,-0.02908c0.45556,1.3275 0.91112,2.655 1.36673,3.9825c0.26345,-0.04847 0.52686,-0.09694 0.79031,-0.14539c0,-1.5322 0,-3.0644 0.00071,-4.93174c0.31901,-10.3594 -1.70113,-19.97666 -4.85629,-29.53152c-0.38934,-3.24273 -1.00042,-6.31157 -1.55233,-9.39101c-0.79182,-4.41791 1.33359,-7.11908 4.98939,-6.39546z" id="svg_157"/>
   <path fill="#FDB162" d="m953.59646,88.44194c-3.62346,-0.46528 -5.74888,2.23589 -4.95706,6.6538c0.5519,3.07944 1.16299,6.14828 1.3547,9.23657c-1.75514,-2.71107 -2.97071,-5.52436 -4.52821,-8.13359c-1.14423,-1.91694 -2.73623,-3.56661 -4.14679,-5.59817c-2.42461,-2.98852 -4.83112,-5.71423 -7.24829,-8.6758c-0.01955,-0.55072 -0.02853,-0.86558 -0.03547,-1.47811c-0.19825,-2.99448 -0.555,-5.6917 -0.54823,-8.388c0.00522,-2.0736 -0.14761,-4.48306 2.99778,-5.07941c2.25515,1.95544 4.26109,3.87816 6.26702,5.80088c3.60405,5.1345 7.20814,10.269 10.84456,15.66182z" id="svg_158"/>
   <path fill="#E2914F" d="m949.97893,164.76323c4.13989,0.01136 8.27973,0.02271 12.76561,0.04269c0.08887,1.30518 -0.1683,2.60173 -0.4196,4.19235c0.0058,0.29407 -0.00849,0.4413 -0.00981,0.51281c-8.72184,0.14524 -17.44231,0.21895 -26.49781,-0.03598c-0.57707,-1.76784 -0.81907,-3.20703 -0.79041,-4.65798c1.30444,-0.24202 2.33822,-0.47229 3.64815,-0.58337c3.95207,0.25596 7.62799,0.39272 11.30387,0.52947z" id="svg_159"/>
   <path fill="#FDDF6B" d="m942.98121,72.74713c-2.23524,-1.88974 -4.24118,-3.81246 -6.59957,-5.98935c-0.77709,-1.30368 -1.20178,-2.3532 -1.61912,-3.41116c0.00734,-0.00844 0.02158,-0.02747 0.02158,-0.02747c0.50178,0.06717 1.00353,0.13434 1.74611,0.28318c0.36316,0.23203 0.49944,0.36845 0.764,0.5805c1.91938,2.10531 3.79319,4.06594 5.48264,6.1743c0.4399,0.54899 0.30472,1.55883 0.20436,2.38999z" id="svg_160"/>
   <path fill="#A636D8" d="m856.89778,226.1023c-0.2297,-3.38179 -0.29446,-7.00118 -0.38739,-10.95841c-0.02823,-0.33783 -0.01495,-0.33718 0.13376,-0.37441c0.14876,-0.03724 0.45078,-0.11656 0.45078,-0.11656c0,0 0.10205,0.11951 0.15681,0.1773c-0.0265,3.71669 -0.10771,7.37558 -0.35395,11.27209z" id="svg_161"/>
   <path fill="#E3BE51" d="m858.19019,47.09871c0.07346,-0.32425 0.3279,-0.35551 0.75639,-0.38583c3.37319,-0.49693 3.37805,1.35658 3.37102,3.48363c-0.04618,13.95147 0.08368,27.90463 -0.10382,41.85374c-0.04424,3.28986 0.99976,4.18616 4.10529,3.95011c3.46891,-0.26366 6.971,-0.09053 10.70177,-0.08762c0.56791,0.03067 0.89272,0.04144 1.18334,0.33402c-0.25612,1.78915 -0.47808,3.29647 -1.03922,4.80716c-6.53292,-0.03236 -12.7266,-0.06808 -18.92028,-0.10381c-0.04264,-17.84239 -0.08533,-35.68477 -0.05449,-53.8514z" id="svg_163"/>
   <path fill="#B135E0" d="m906.90229,172.75157c0.33541,0.60311 0.32533,1.20317 0.32387,1.80326c-0.01955,7.95625 -0.01765,7.99328 -8.08165,8.33803c-2.87534,0.1229 -5.76034,0.01823 -8.9845,-0.26412c-1.54706,-3.4714 -2.75052,-6.66125 -3.95393,-9.8511c1.73824,-0.0127 3.47652,-0.0254 5.54297,-0.07374c5.15606,-0.00889 9.9839,0.01787 15.15324,0.04766z" id="svg_164"/>
   <path fill="#A62FE6" d="m885.86717,172.77432c1.54233,3.19317 2.74579,6.38301 3.95384,9.84515c-4.84117,0.28151 -9.68697,0.29076 -14.87253,0.28726c-0.82124,-3.18396 -1.30263,-6.35519 -1.78477,-9.83282c4.12096,-0.30523 8.24275,-0.30408 12.70346,-0.29959z" id="svg_165"/>
   <path fill="#DBBA7F" d="m858.20832,101.14206c6.23005,-0.15622 12.42373,-0.1205 19.27742,-0.08566c2.85673,0.16292 5.05353,0.32672 6.91439,0.53215c-6.3367,0.1495 -12.33752,0.25735 -18.33831,0.36521c-1.5809,0.05214 -3.1618,0.10427 -5.2486,-0.0232c-1.16382,-0.19999 -1.82179,-0.2204 -2.47972,-0.24081c-0.05383,-0.11858 -0.10771,-0.23716 -0.12518,-0.54769z" id="svg_166"/>
   <path fill="#D19851" d="m858.26689,101.81067c0.72455,-0.1005 1.38252,-0.0801 2.2172,0.03266c-0.46773,0.20337 -1.11216,0.31438 -1.9978,0.39303c-0.24116,-0.03237 -0.28601,-0.30479 -0.21939,-0.42569z" id="svg_167"/>
   <path fill="#ECCE85" d="m857.32551,214.44429c-0.23059,0.20862 -0.53261,0.28795 -0.68544,0.31979c0.54226,-0.44627 1.23323,-1.33345 1.933,-1.34045c8.93018,-0.08939 17.86173,-0.06619 26.79253,-0.01057c0.48289,0.00299 0.96252,0.54629 1.49734,1.12955c-0.85689,0.04044 -1.76739,-0.42749 -2.67802,-0.42793c-8.87626,-0.00435 -17.75257,0.06944 -26.85942,0.32962z" id="svg_168"/>
   <path fill="#D19851" d="m895.9901,169.90738c6.63699,-2.77873 12.08083,-7.13322 16.43605,-13.08896c7.05433,-9.64683 7.82943,-27.57348 1.7527,-37.96537c-4.99681,-8.5453 -11.98392,-14.15552 -21.66867,-16.67815c4.97288,-0.00517 9.62504,1.27601 13.40009,4.75311c1.77101,1.63122 3.31578,1.4054 5.11602,-0.01393c0.53218,0.27655 0.87985,0.47401 1.34315,0.88703c13.89789,18.65953 13.2401,37.39735 0.61037,56.96718c4.53763,0 8.44782,0 12.69364,0.01444c3.25142,0.02502 6.1671,0.03558 9.08279,0.04614c0.242,1.4392 0.484,2.87839 0.72596,4.58696c-9.74841,0.35581 -19.49682,0.44118 -29.24518,0.52924c-3.3428,0.0302 -6.68548,0.0671 -10.24692,-0.0377z" id="svg_169"/>
   <path fill="#9A2AEB" d="m785.84134,185.81956c-0.25076,1.82655 -0.83911,3.65185 -1.62779,5.6351c-3.89793,0.15796 -7.59548,0.15796 -11.52305,0.15796c0.09608,-2.0561 0.17521,-3.74937 0.27075,-5.79429c4.18187,0 8.36219,0 12.88009,0.00123z" id="svg_170"/>
   <path fill="#CD44D2" d="m773.11372,209.36967c-1.23583,0.96726 -2.40408,1.7328 -3.67778,2.22605c-1.15276,0.44641 -2.54302,1.02425 -3.59414,0.72382c-0.68911,-0.19697 -1.02997,-1.82883 -1.40007,-2.8634c-0.35077,-0.98047 -0.84304,-2.05611 -0.72905,-3.02591c0.21802,-1.85449 0.32334,-4.13518 1.44528,-5.32268c0.72623,-0.76872 3.21864,-0.09915 4.83262,0.28819c0.95708,0.22969 1.74509,1.16348 2.86331,1.81148c0.26332,1.96791 0.27244,3.90504 0.25983,6.16245z" id="svg_171"/>
   <path fill="#FEE065" d="m876.77775,95.89285c-3.48767,0.01697 -6.98976,-0.15616 -10.45867,0.1075c-3.10554,0.23605 -4.14953,-0.66026 -4.10529,-3.95011c0.1875,-13.94911 0.05764,-27.90226 0.10382,-41.85374c0.00703,-2.12705 0.00217,-3.98056 -3.24584,-3.51108c2.33273,-0.25328 4.96758,-0.52206 7.60526,-0.76018c1.28851,-0.11632 2.58225,-0.17558 4.10216,-0.45516c6.51057,-0.18617 12.7925,-0.17784 19.41171,-0.15115c0.91103,0.21991 1.48487,0.42145 2.29881,0.81282c0.24006,0.18985 0.24138,0.55097 0.06193,0.73925c-1.95689,0.06262 -3.74091,-0.22963 -5.51063,-0.15963c-7.38534,0.29212 -8.07971,1.06975 -8.08015,8.54186c-0.00062,10.02198 -0.05277,20.04439 0.02712,30.06574c0.02963,3.71713 0.23488,7.40388 -2.2102,10.57387z" id="svg_172"/>
   <path fill="#FECE64" d="m896.46693,47.35998c0.72216,-0.00642 1.44436,-0.01284 2.61034,0.19818c3.49638,1.29683 6.54892,2.37622 9.48544,3.72259c-0.52337,5.16613 -0.93067,10.06528 -1.64703,14.96309c-3.48325,-0.24506 -6.65747,-0.48879 -9.87615,-0.98911c-0.72782,-1.18642 -1.86983,-2.04924 -2.01713,-3.05743c-0.72247,-4.94421 -2.57243,-9.99185 0.81956,-14.79507c0.34741,-0.01926 0.48617,-0.03076 0.62497,-0.04225z" id="svg_173"/>
   <path fill="#FDDF6B" d="m908.67879,51.01376c-3.05259,-1.07938 -6.10514,-2.15876 -9.33076,-3.45912c1.86731,0.01136 3.92266,0.15397 5.94554,0.49106c10.55492,1.75878 19.10416,7.80138 27.94038,13.20977c0.57561,0.35229 0.90931,1.09978 1.45284,1.86356c0.09732,0.20013 0.08307,0.21916 -0.19741,0.22379c-1.59921,-0.53198 -3.00194,-0.92463 -4.2195,-1.63473c-2.65631,-1.54919 -5.21838,-3.25989 -7.96713,-5.10204c-4.64008,-1.99573 -9.13202,-3.79402 -13.62396,-5.59229z" id="svg_174"/>
   <path fill="#FDDF6B" d="m896.38895,47.09644c-0.06082,0.27503 -0.19958,0.28653 -0.79758,0.28013c-1.25963,-0.24322 -2.05994,-0.46853 -2.8603,-0.69384c0,0 -0.00133,-0.36112 -0.00191,-0.54159c1.1935,0.11027 2.38763,0.40102 3.65978,0.9553z" id="svg_175"/>
   <path fill="#761EC6" d="m874.80494,195.27315c-6.24142,0.00178 -12.30156,-0.01479 -18.70168,-0.04835c0.31658,-0.82881 0.97309,-1.64066 1.73828,-2.66292c4.75158,-0.21026 9.40295,-0.36152 14.03161,-0.10447c1.17015,0.06498 2.26793,1.43326 3.43719,2.48133c-0.08249,0.29112 -0.20333,0.30357 -0.5054,0.3344z" id="svg_176"/>
   <path fill="#FEAF62" d="m950.014,164.49687c-3.71095,0.12961 -7.38688,-0.00715 -11.38,-0.51822c-2.89636,-2.39128 -1.68432,-5.13896 -1.68671,-7.63288c-0.01716,-17.57927 0.023,-35.15869 -0.03906,-52.73776c-0.01097,-3.10449 0.56512,-5.31264 4.39551,-4.49052c6.37403,10.65144 11.23912,21.58373 12.40095,33.89394c0.04578,0.48524 0.87724,0.89633 1.34261,1.34198c0,1.53219 0,3.06439 0,4.59659c-0.26345,0.04845 -0.52686,0.09692 -0.79031,0.14539c-0.4556,-1.3275 -0.91117,-2.655 -1.36673,-3.9825c-0.33599,0.00969 -0.67203,0.01939 -1.00803,0.02908c-0.3908,2.01534 -1.12295,4.03296 -1.10946,6.04559c0.04344,6.47615 0.43304,12.9496 0.51063,19.42623c0.01438,1.20047 -0.80155,2.41088 -1.26941,3.88307z" id="svg_177"/>
   <path fill="#FDD46B" d="m955.04803,134.01827c-0.46609,-0.11051 -1.29754,-0.5216 -1.34332,-1.00684c-1.16183,-12.31022 -6.02692,-23.2425 -12.42156,-34.14552c-0.75254,-1.42394 -1.52353,-2.29546 -2.13594,-3.26698c-1.27322,-2.01973 -2.46234,-4.09249 -3.43048,-6.12578c2.04385,0.47518 3.83212,0.93269 5.62042,1.3902c1.39251,1.76876 2.98452,3.41843 4.12875,5.33537c1.5575,2.60923 2.77307,5.42251 4.33287,8.30274c3.54814,9.54014 5.56827,19.1574 5.24926,29.51681z" id="svg_178"/>
   <path fill="#FEBF64" d="m922.45089,56.8035c2.60061,1.6447 5.16269,3.3554 7.81899,4.90459c1.21756,0.7101 2.62029,1.10275 4.21216,1.64318c0.69782,1.05331 1.12251,2.10283 1.65039,3.37379c-2.79294,0.85052 -2.64011,3.25997 -2.64533,5.33358c-0.00677,2.6963 0.34997,5.39352 0.33573,8.29685c-0.79275,0.01995 -1.37088,-0.16661 -2.05764,-0.57058c-3.42114,-2.72658 -6.7336,-5.23576 -10.07335,-8.00434c-3.91443,-6.13283 -3.65367,-11.01335 0.75905,-14.97706z" id="svg_179"/>
   <path fill="#FDDF6B" d="m921.71909,72.03997c3.3125,2.50917 6.62496,5.01835 10.06769,7.99469c0.85167,1.02009 1.57315,1.57302 2.29464,2.12595c2.40656,2.72571 4.81308,5.45142 7.23768,8.43994c-1.77026,-0.1947 -3.55852,-0.65221 -5.84734,-1.15806c-2.25842,-1.4852 -4.01639,-2.92205 -5.80058,-4.61189c-3.87488,-2.98529 -7.7235,-5.7176 -11.68725,-8.67042c-5.74817,-4.14307 -12.09499,-6.29692 -18.9156,-7.94022c-2.83451,-0.73755 -5.48493,-1.26788 -8.13531,-1.79822c0.03406,-0.30348 0.06812,-0.60696 0.10218,-0.91044c2.01625,0 4.03249,0 6.04873,0c3.17428,0.24374 6.3485,0.48747 10.0093,0.93387c5.19968,2.00006 9.91274,3.79742 14.62585,5.59479z" id="svg_180"/>
   <path fill="#FDD46B" d="m934.07081,81.92475c-0.71088,-0.31707 -1.43236,-0.87001 -2.1754,-1.6727c0.55654,-0.06319 1.13467,0.12338 1.92539,0.40109c0.22147,0.40602 0.23045,0.72088 0.25001,1.27161z" id="svg_181"/>
   <path fill="#FEB863" d="m929.69741,85.08358c1.75797,1.43686 3.51593,2.87371 5.51882,4.34123c1.46864,2.08163 2.65776,4.15438 3.93098,6.17411c0.61241,0.97152 1.38339,1.84304 2.10321,3.01142c-3.77705,-0.31498 -4.35314,1.89318 -4.34217,4.99766c0.06206,17.57908 0.02189,35.15849 0.03906,52.73776c0.00239,2.49392 -1.20965,5.2416 1.41051,7.51369c-0.99268,0.48537 -2.02646,0.71565 -3.33086,0.95768c-3.18639,0.00118 -6.10208,-0.00938 -9.34633,-0.32093c0.15145,-4.32171 1.01958,-8.33984 1.04643,-12.36356c0.13955,-20.95804 0.0667,-41.9175 0.06254,-62.87647c-0.0004,-2.07862 -0.31286,-4.34993 2.90781,-4.17261z" id="svg_182"/>
   <path fill="#E1B24D" d="m910.84184,106.83501c-1.6158,1.49841 -3.16057,1.72423 -4.93158,0.09301c-3.77505,-3.4771 -8.42721,-4.75828 -13.64404,-4.86821c-0.5676,0.17392 -0.92403,0.19354 -1.72439,-0.01723c-2.23127,-0.31882 -4.01852,-0.40723 -5.8058,-0.49565c-2.19676,-0.16381 -4.39357,-0.32761 -6.91111,-0.4939c-0.09882,-1.5098 0.12314,-3.01712 0.71857,-4.81111c5.45476,-0.26812 10.53598,-0.24958 15.7794,-0.03555c1.37614,0.69639 2.56779,1.2622 3.80787,1.68679c5.10997,1.74967 9.44961,4.57421 12.71107,8.94185z" id="svg_183"/>
   <path fill="#D19851" d="m884.40013,101.58856c2.1232,0.04679 3.91045,0.1352 5.88697,0.36852c-7.74459,0.17595 -15.67846,0.20699 -23.91878,0.11736c5.69429,-0.22853 11.69512,-0.33639 18.03182,-0.48588z" id="svg_184"/>
   <path fill="#FED764" d="m894.16074,96.01088c-5.08126,-0.01854 -10.16247,-0.03708 -15.58305,-0.05077c-0.66412,-0.00593 -0.98893,-0.0167 -1.55684,-0.04737c2.20199,-3.18987 1.99674,-6.87662 1.96711,-10.59376c-0.07989,-10.02135 -0.02773,-20.04376 -0.02712,-30.06574c0.00044,-7.47211 0.69482,-8.24974 8.08015,-8.54186c1.76973,-0.07 3.55375,0.22226 5.51063,0.15963c0.97981,0.03703 1.78013,0.26234 2.83102,0.51331c-2.93267,4.82112 -1.0827,9.86876 -0.36024,14.81297c0.1473,1.00819 1.28931,1.87101 2.01713,3.05743c-1.97184,0.25658 -3.98808,0.25658 -6.00433,0.25658c-0.03406,0.30348 -0.06812,0.60696 -0.10218,0.91044c2.65037,0.53033 5.30079,1.06067 7.96487,1.99805c-0.83433,1.26518 -2.37873,2.09317 -2.41739,2.98634c-0.2527,5.83957 -0.21347,11.69334 -0.19728,17.54227c0.00716,2.59354 0.73202,5.35038 -2.1225,7.06247z" id="svg_185"/>
   <path fill="#FEBF64" d="m929.67118,84.83059c-3.19445,0.07566 -2.88198,2.34697 -2.88158,4.42559c0.00416,20.95897 0.07701,41.91843 -0.06254,62.87647c-0.02685,4.02372 -0.89498,8.04185 -1.38216,12.3491c-3.91726,0.28655 -7.82744,0.28655 -12.36508,0.28655c12.62973,-19.56984 13.28752,-38.30765 -0.36218,-57.10589c0.45754,-0.96417 1.02501,-1.55655 1.07049,-2.18662c0.5476,-7.58495 1.18178,-15.17031 1.42152,-22.76729c0.08661,-2.74482 0.57817,-4.87956 2.98938,-6.32783c3.84866,2.73231 7.69727,5.46462 11.57215,8.44991z" id="svg_186"/>
   <path fill="#FECA64" d="m917.98393,76.16019c-2.29611,1.66876 -2.78768,3.8035 -2.87429,6.54832c-0.23974,7.59698 -0.87392,15.18234 -1.42152,22.76729c-0.04548,0.63007 -0.61295,1.22246 -1.18612,1.97105c-0.59586,-0.05875 -0.94354,-0.25621 -1.47572,-0.53276c-3.44591,-4.44672 -7.78555,-7.27126 -12.89552,-9.02093c-1.24008,-0.42459 -2.43173,-0.9904 -3.80787,-1.68679c2.69235,-1.90758 1.9675,-4.66442 1.96034,-7.25796c-0.01619,-5.84893 -0.05543,-11.70271 0.19728,-17.54227c0.03866,-0.89317 1.58307,-1.72116 2.60154,-2.77913c6.8069,1.23625 13.15372,3.39011 18.90188,7.53318z" id="svg_187"/>
   <path fill="#FEC663" d="m921.69184,71.78057c-4.68586,-1.53797 -9.39892,-3.33533 -14.28958,-5.33405c0.22979,-5.10049 0.63709,-9.99964 1.16046,-15.16578c4.60801,1.53129 9.09995,3.32958 13.74003,5.32531c-4.26458,4.16116 -4.52533,9.04168 -0.61091,15.17452z" id="svg_188"/>
  </g>
 </g>

</svg>