<svg width="1000" height="280" xmlns="http://www.w3.org/2000/svg" version="1.1" enable-background="new 0 0 1000 280" xml:space="preserve">
 <g>
  <title>Layer 1</title>
  <g id="svg_162">
   <path fill="#FFFFFF" d="m338.26257,213.306c-10.34588,3.38846 -20.62887,5.15658 -31.11459,4.6226c-14.65512,-0.7463 -28.73566,-3.98947 -37.91516,-16.57525c-4.22302,-5.79004 -7.42682,-12.93749 -8.97418,-19.93772c-3.26435,-14.76783 -1.2045,-29.55892 3.0047,-44.01339c0.16561,-0.56877 0.81591,-0.99636 1.18936,-1.43039c4.52929,1.7536 8.86334,3.43158 13.76782,5.33043c-0.88568,4.82386 -2.15994,9.6719 -2.60288,14.59475c-1.0527,11.69945 -2.20767,23.38779 5.28159,33.94547c5.1806,7.30315 12.74011,10.12901 20.70557,10.94321c12.8981,1.31837 25.81268,0.43858 37.66076,-5.85392c2.55137,-1.35502 5.39063,-2.81729 7.05814,-5.01767c1.94702,-2.56921 4.25,-6.29487 3.72098,-8.99405c-0.88687,-4.52531 -5.11579,-6.84039 -9.99042,-6.90686c-4.6651,-0.06362 -9.35703,-0.31292 -13.98999,0.07802c-3.95218,0.3335 -5.94397,-1.67933 -6.90915,-4.83432c-1.1611,-3.79554 -1.76358,-7.76198 -2.73846,-12.25618c9.08767,0 17.38018,0.00002 25.6727,0c12.16482,0 24.33093,0.11141 36.49414,-0.03001c13.28128,-0.1544 25.90225,-3.3676 37.95196,-8.87479c9.47971,-4.33261 18.93616,-8.71635 28.38937,-13.1066c0.70099,-0.32554 1.29239,-0.88697 2.02634,-1.40315c-11.68732,-4.55673 -23.15942,-8.94497 -34.56088,-13.50964c-5.91882,-2.36964 -10.67551,-0.00769 -15.23239,3.30244c-1.4632,1.06287 -3.04758,2.34299 -3.82511,3.89914c-3.32827,6.66133 -7.65771,4.4736 -12.23071,1.75012c-2.03677,-1.21301 -4.18777,-2.23422 -7.67706,-4.0764c6.50531,-6.44932 11.87836,-12.85737 18.33383,-17.87204c6.45566,-5.01481 14.77966,-5.81598 22.35748,-3.24274c11.49726,3.90422 22.47901,9.30009 33.87424,13.53958c8.97711,3.33986 18.24762,5.89113 27.83609,8.93497c0,3.97597 0,8.94428 0,13.71193c-6.587,2.10779 -13.19794,4.22324 -19.52011,6.24628c0.71234,7.08496 5.48312,9.15779 10.21231,9.36135c13.27747,0.57148 26.59405,0.50204 39.88846,0.28059c5.33249,-0.08884 7.699,-4.97856 8.30551,-8.96851c0.96094,-6.32138 0.44897,-12.92975 0.00732,-19.37882c-0.28918,-4.22239 -1.55407,-8.37795 -2.45227,-12.91891c5.49884,-1.41632 10.74598,-2.76782 16.41047,-4.2268c1.15191,8.97675 3.07751,17.33556 3.03533,25.68444c-0.03601,7.12664 -2.03033,14.31478 -3.72473,21.3391c-1.36334,5.65187 -5.39544,9.73589 -10.44006,12.32814c-3.1853,1.63681 -6.90347,2.97824 -10.42441,3.08585c-12.15347,0.37144 -24.3634,0.73739 -36.47839,-0.0398c-10.20563,-0.65472 -20.39572,-2.75929 -24.68674,-14.28599c-0.6564,-1.76322 -1.27173,-3.54172 -1.7124,-4.77245c-12.94699,5.34598 -25.55399,10.81747 -38.36258,15.76727c-13.40109,5.17879 -27.85245,2.47243 -41.8949,4.3219c7.62155,17.85341 -10.75012,35.22904 -25.7269,39.45882z" id="svg_2"/>
   <path fill="#FFFFFF" d="m43.63509,155.28403c12.23256,2.18152 23.99516,2.91755 35.6318,-1.23677c8.27502,-2.95418 11.84759,-9.29898 8.70487,-17.64211c-3.89103,-10.32973 -8.38176,-20.4341 -12.6407,-30.62442c-1.47964,-3.5403 -3.04072,-7.04657 -4.75278,-11.00329c4.71513,-2.38491 9.21501,-4.66095 14.23245,-7.19877c2.46096,5.65505 4.78848,11.07722 7.175,16.4733c6.47162,14.63281 12.82943,29.31848 19.52059,43.85048c2.83377,6.15442 7.70401,9.48671 14.9619,9.17587c7.98066,-0.34178 15.99859,0.18067 23.97863,-0.16841c5.327,-0.233 10.80071,-0.69549 15.88448,-2.17187c11.15695,-3.24007 10.8159,-14.97992 5.64114,-22.2623c-7.05884,-9.93381 -17.28215,-16.2322 -26.70517,-23.45879c-4.11722,-3.15751 -8.48799,-6.05918 -12.2269,-9.61966c-7.90628,-7.52893 -6.0117,-18.03066 4.16202,-22.34833c18.56787,-7.88008 37.29604,-15.38265 55.96437,-23.02552c1.75016,-0.71653 3.55043,-1.31065 5.83085,-2.14599c0,4.93066 0.33372,9.57274 -0.19237,14.11524c-0.16976,1.46561 -2.37262,3.21801 -4.03246,3.90753c-15.66856,6.50894 -31.4216,12.81446 -47.14215,19.19866c-0.24667,0.10018 -0.39062,0.45321 -0.9415,1.12794c5.47211,3.94206 10.92581,7.838 16.3447,11.7818c9.54066,6.94359 18.30075,14.71665 24.3864,24.9736c5.53874,9.33513 6.30772,29.56476 -4.20641,36.9343c-5.45811,3.8257 -12.3033,7.17696 -18.78343,7.74178c-15.81197,1.37814 -31.77954,1.34672 -47.67807,1.19815c-7.99481,-0.07471 -13.06683,-5.58428 -16.83082,-12.23066c-0.31695,-0.55966 -0.86254,-0.98983 -1.18327,-1.34777c-5.92289,6.85153 -13.32035,11.72457 -22.08311,12.47482c-11.23244,0.96168 -22.6105,0.31747 -33.92074,0.10039c-0.93074,-0.01787 -2.49565,-1.99796 -2.60719,-3.17603c-0.34387,-3.63197 0.0546,-7.32896 -0.18425,-10.97786c-0.18426,-2.81508 1.28002,-2.93312 3.69212,-2.41531z" id="svg_3"/>
   <path fill="#FFFFFF" d="m582.62891,95.23262c7.74487,6.30068 15.76635,11.81335 22.466,18.62594c11.71924,11.91689 15.26501,31.45101 4.88696,46.16759c-4.34271,6.15813 -10.94006,9.13993 -17.82037,10.80942c-13.71491,3.32791 -27.69074,2.79506 -41.59296,1.01908c-0.98199,-0.12545 -2.36529,-2.13797 -2.45019,-3.35082c-0.30017,-4.29027 -0.11688,-8.61436 -0.11688,-13.51585c3.72607,0.35949 7.25738,0.40667 10.66357,1.08367c10.33679,2.05449 20.42261,1.06972 30.36175,-2.06483c10.89026,-3.43452 14.07416,-13.7287 8.11969,-23.51173c-5.20843,-8.55746 -13.01422,-13.94979 -20.8656,-19.42161c-3.52655,-2.45771 -7.401,-4.41627 -11.66858,-6.92526c2.23432,-4.65174 4.49732,-9.36313 7.00959,-14.59349c3.67151,1.88073 7.17999,3.67794 11.00702,5.67789z" id="svg_9"/>
   <path fill="#FFFFFF" d="m414.24664,192.25552c2.54035,-2.64161 4.8313,-5.03176 6.75293,-7.03659c4.61002,4.55503 9.00629,8.89887 13.17707,13.01993c-3.75828,3.70422 -8.08045,7.96423 -12.51951,12.33946c-3.6177,-3.95294 -7.7145,-8.42944 -13.01046,-14.21618c1.13614,-0.81862 3.24341,-2.3369 5.59997,-4.10662z" id="svg_25"/>
   <path fill="#FFFFFF" d="m514.65454,186.23767c3.22974,3.13701 6.04639,6.20291 9.13245,8.9682c2.47839,2.22086 3.01324,3.91554 0.2063,6.39118c-3.34955,2.95416 -6.31519,6.34361 -9.10822,9.19806c-4.4259,-4.49158 -8.68854,-8.81746 -13.15884,-13.35412c3.62021,-3.26843 8.12591,-7.33634 12.92831,-11.20332z" id="svg_28"/>
   <path fill="#FFFFFF" d="m493.74286,202.75674c-2.87671,3.00245 -5.50275,5.75722 -8.0445,8.42359c-4.29077,-4.37296 -8.28314,-8.44179 -12.07125,-12.30246c3.83291,-3.78205 8.05258,-7.94573 12.14691,-11.98572c3.492,3.51926 7.53561,7.59444 11.97009,12.06352c-1.01117,0.95801 -2.38089,2.25571 -4.00125,3.80107z" id="svg_29"/>
   <path fill="#FFFFFF" d="m878.81901,9.13582c0,0 112.26843,-4.67869 111.2192,131.00335c-1.04924,135.68205 -100.72682,138.02139 -101.77606,139.19106c-1.04924,1.16967 -240.27543,0 -240.27543,0c0,0 0,-271.36409 0,-271.36409c0,0 230.83229,1.16967 230.83229,1.16967l0,0.00001z" id="svg_189"/>
   <path fill="#F8D46F" d="m774.61311,63.68464c-8.00412,-0.03621 -16.01008,-0.19308 -24.01167,-0.05831c-4.0654,0.06849 -7.43249,-0.99454 -9.78397,-4.68294c-2.90592,-4.55822 -6.85332,-6.03432 -12.06003,-5.84192c-10.817,0.39971 -21.65713,0.04931 -32.48224,0.28771c-1.9011,0.04186 -4.05713,1.05863 -5.60309,2.30966c-3.18526,2.57764 -8.02214,2.83151 -10.80584,0.05584c-3.5997,-3.58929 -3.96052,-10.27509 -0.78936,-14.62646c2.50194,-3.43309 7.05124,-4.33791 10.39916,-1.40578c2.78014,2.43488 5.65603,2.91322 9.03737,2.86656c11.92523,-0.16457 23.85568,0.02802 35.77849,-0.22238c4.90493,-0.10302 8.49318,1.69247 10.9651,6.10373c1.66968,2.97961 3.96674,4.20987 7.36125,4.0813c7.05412,-0.26716 14.12298,-0.09606 21.86892,-0.10105c0.8484,-0.04156 1.01363,-0.0872 1.47899,-0.02298c0.71761,0.09116 1.13508,0.07245 1.98773,0.16207c12.75065,0.04285 25.06616,-0.02261 37.60301,0.05682c0.86945,0.38156 1.51761,0.61822 2.34889,1.16751c1.07347,3.2003 2.72375,6.08357 2.73866,8.97629c0.18223,35.48731 0.12508,70.97601 0.1298,106.46434c0.00161,11.99605 0.11098,23.99382 -0.05703,35.9872c-0.05489,3.92204 1.237,5.36576 4.92992,5.20614c6.2726,-0.27115 12.55893,-0.18285 19.27031,-0.14177c23.0287,0.0976 45.62667,0.13053 68.22397,0.00647c1.70242,-0.00931 3.94459,-0.61539 4.99296,-1.84696c2.74803,-3.22805 5.6623,-3.68756 9.3872,-1.78154c5.00223,3.94359 5.17231,8.8611 3.29135,14.45033c-1.00569,1.16474 -1.76461,2.14149 -2.88181,3.15706c-2.9047,-0.0821 -6.48105,0.8757 -7.79538,-0.5359c-3.30627,-3.55089 -7.00613,-3.0795 -10.84824,-3.09647c-5.9589,-0.02631 -11.9188,-0.08876 -17.87665,-0.00748c-6.55252,0.08939 -13.10331,0.32408 -20.08993,0.44315c-10.80297,0.00952 -21.17082,0.07138 -31.97644,0.05115c-7.87628,-0.12838 -15.31474,-0.17462 -22.92013,-0.42217c-0.48872,-0.27569 -0.81063,-0.35008 -1.36564,-0.62816c-1.04972,-1.38945 -1.86617,-2.57521 -2.63291,-4.22847c0.03774,-48.27793 0.0351,-96.08835 -0.02053,-143.89871c-0.00224,-1.91003 -0.50823,-3.8194 -1.00949,-5.88852c-0.45776,-0.68666 -0.68562,-1.21386 -1.12727,-2.09899c-12.02775,-0.33742 -23.84158,-0.3169 -35.65548,-0.29636l0.00002,-0.00001l0.00002,0z" id="svg_4"/>
   <path fill="#9127ED" d="m844.48673,210.2024c-6.28059,0.06278 -12.56693,-0.02552 -18.83953,0.24562c-3.69292,0.15961 -4.98481,-1.2841 -4.92992,-5.20614c0.16801,-11.99338 0.05863,-23.99114 0.05703,-35.9872c-0.00472,-35.48833 0.05241,-70.97704 -0.1298,-106.46434c-0.01491,-2.89271 -1.66519,-5.77599 -2.35616,-9.0284c1.49579,-0.63097 2.79205,-0.89718 3.56133,-1.05517c0,-11.48862 0,-22.30845 0,-33.12826c5.03826,-0.06173 10.0765,-0.12347 15.55532,0.30255c0.43578,56.81057 0.44465,113.13344 0.3897,169.45621c-0.00305,3.11606 0.12199,5.75589 3.85747,6.33434c0.22962,2.51659 -0.26939,5.41141 0.85425,6.64917c2.40512,2.64935 1.93037,4.40191 -1.13974,6.64183c1.64136,0.19329 2.38278,0.28062 3.11789,0.58589c-0.00638,0.21792 0.00218,0.65392 0.00218,0.65392l-0.00001,-0.00001z" id="svg_5"/>
   <path fill="#8422F0" d="m821.19066,270.98193c-1.61259,0.2099 -3.2252,0.41981 -5.22611,0.5804c-0.38827,-0.04931 -0.33355,-0.10906 -0.33355,-0.10906c-5.21017,0.09634 -10.4204,0.19267 -16.29167,0.17865c-0.7443,-1.57957 -0.9,-3.04877 -0.90023,-4.51801c-0.0096,-52.23282 0.0126,-104.46569 -0.05822,-156.69839c-0.00317,-2.33375 -0.8324,-4.66624 -1.35943,-7.26268c-0.37756,-0.71873 -0.67261,-1.17412 -0.61069,-1.694c1.02762,-0.67525 2.33446,-1.74297 2.27801,-1.83141c-3.31305,-5.1888 -0.7855,-10.88729 -1.2806,-16.29402c-0.47457,-5.18373 -0.56871,-10.4454 3.18036,-14.92985c7.77915,-0.05679 8.05849,0.23852 8.05913,8.15094c0.00368,47.28525 0.0249,94.57053 -0.02682,141.8557c-0.00419,3.86111 0.60162,6.96565 5.1115,7.84088c1.06132,0.04499 1.76962,0.06365 2.47512,0.5496c-0.00461,11.43786 -0.00655,22.40841 -0.00828,33.37898c-0.00046,2.80417 -0.00012,5.60835 -0.00012,8.73203c0.91785,0.38067 2.95471,1.22547 4.99159,2.07026l0,-0.00001z" id="svg_6"/>
   <path fill="#F7D56E" d="m796.05379,101.52335c0.29506,0.45537 0.59011,0.91075 0.76491,1.90664c0.09459,2.99624 0.49505,5.45182 0.49684,7.90774c0.03683,50.93765 0.02848,101.87535 0.02864,152.81302c0,0.99877 0.30697,2.17188 -0.08151,2.95574c-0.59429,1.19918 -1.95414,3.14706 -2.48722,2.97968c-1.47013,-0.46171 -2.9971,-1.62105 -3.88146,-2.96391c-0.59108,-0.89761 -0.1266,-2.58066 -0.12664,-3.91224c-0.00363,-48.44073 0.00684,-96.88148 -0.05973,-145.32213c-0.00248,-1.82278 -0.7504,-3.64442 -1.08026,-5.46384c0.07076,0.00275 0.02237,0.14386 -0.03269,-0.13834c-0.36754,-0.43559 -0.68008,-0.58895 -0.92168,-0.77197c0.07094,-0.02965 0.06871,0.13209 -0.12473,-0.24363c-0.62525,-0.54775 -1.0568,-0.86912 -1.48901,-0.8702c-14.57194,-0.0362 -29.14463,-0.10648 -43.71506,0.04833c-1.44833,0.01539 -2.88349,1.43004 -4.32474,2.19527c0,0 -0.00972,-0.18739 -0.19593,-0.1096c-0.37664,0.39521 -0.56703,0.71264 -0.75748,1.03008c0,0 -0.0123,-0.12511 -0.30949,-0.10203c-0.71276,0.78796 -1.12837,1.55286 -1.54401,2.31777c0.08745,0.26581 0.02008,0.47583 -0.71473,0.76865c-0.73388,0.57717 -0.95512,1.01579 -1.17635,1.45443c0,0.00001 -0.00581,0.21611 -0.45886,0.31261c-3.47185,0.73226 -6.486,1.88687 -9.51039,1.91792c-17.09269,0.1755 -34.18817,0.04649 -51.28218,0.12686c-1.97618,0.00929 -4.57513,-0.0427 -5.80493,1.16819c-3.44274,3.38975 -6.94887,3.19043 -10.83892,1.65629c0,0 -0.30581,-0.03609 -0.36852,-0.5865c-0.36087,-1.83286 -0.86703,-3.10629 -0.91703,-4.39954c-0.13135,-3.39494 -1.01886,-6.99773 2.60867,-9.36535c3.39672,-2.21704 6.02633,-1.31484 8.93916,1.15629c1.27348,1.08037 3.46829,1.28559 5.24746,1.29478c17.25011,0.08903 34.501,0.08081 51.75123,0.00351c1.61144,-0.00721 3.22029,-0.67871 4.83037,-1.04176c1.7981,-2.27494 3.38423,-4.80651 5.46454,-6.73974c1.52997,-1.42179 3.69441,-2.88181 5.5971,-2.91377c11.43876,-0.19211 22.88353,0.02366 34.96872,0.19716c0.64245,0.09432 1.01604,-0.08891 1.18266,-0.04237c0.16663,0.04655 0.34632,-0.26537 0.68332,0.02566c6.57057,0.35971 12.80422,0.42838 19.16317,0.62772c0.12538,0.13067 0.47676,0.12268 0.47676,0.12268l-0.00001,-0.00009l-0.00001,-0.00001z" id="svg_7"/>
   <path fill="#7619F9" d="m766.24617,260.64575c2.2565,-0.05349 4.51298,-0.10698 7.30164,0.02543c0.87542,0.22992 1.08313,0.05458 1.15528,-0.34008c0.00523,-3.82937 0.01054,-7.65872 -0.05144,-11.99483c-0.17193,-0.68645 -0.29896,-0.84607 -0.44839,-0.9856c-0.23983,-0.04541 -0.47963,-0.09083 -1.16726,-0.63968c-2.77007,-1.03126 -5.09244,-1.55908 -7.71436,-2.15499c0,-2.73996 0,-5.3599 0,-7.97983c2.24356,-0.1012 4.4871,-0.2024 7.22052,-0.07984c0.72877,0.11633 0.96772,0.00891 1.20662,-0.09848c0,0 0.10662,-0.19699 0.32025,-0.22667c0.36353,-0.14546 0.50465,-0.27214 0.6371,-0.40973c0,0 -0.02722,-0.27646 0.20725,-0.44885c0.43298,-0.49275 0.36472,-0.75319 0.02968,-0.95377c-0.48256,-3.95433 -0.96513,-7.90867 -1.8742,-12.18521c-0.72906,-0.52177 -0.96985,-0.44046 -1.14878,-0.07828c-1.94832,0.05005 -3.8966,0.10008 -6.52709,-0.16145c-2.29062,-0.58609 -3.89908,-0.86059 -6.23318,-1.25894c1.21569,-1.9475 2.06253,-3.30405 2.77259,-4.44153c-0.6946,-0.85122 -1.26638,-1.55195 -2.38642,-2.92457c4.45696,0 8.02185,0.16774 11.5589,-0.09096c1.23855,-0.09058 2.40897,-1.23021 3.61052,-1.89079c-0.09229,-4.59761 -0.18463,-9.19522 -0.87124,-14.27828c-4.06695,-3.88385 -3.89164,-6.94491 -0.06938,-9.6485c0.48049,-6.15049 0.96099,-12.301 1.49154,-19.09291c-3.49004,-0.39912 -6.31632,-0.72233 -9.62294,-1.45569c-2.75931,-3.19904 -5.10499,-5.9895 -0.31214,-8.61532c3.02248,-0.23597 6.04497,-0.47193 8.89363,-0.6943c0.53821,-3.67288 1.08544,-6.7056 1.40305,-9.76511c0.34413,-3.3148 -0.77084,-5.51936 -4.33704,-5.45983c-1.71932,0.02874 -3.43969,-0.00997 -5.57834,-0.52153c-0.40862,-3.37334 -0.39856,-6.24333 -0.38849,-9.1133c2.91484,-0.2908 5.82972,-0.58164 9.34324,-1.41212c0.71893,-4.18212 0.69839,-7.83951 1.03901,-11.45866c0.11307,-1.20133 0.92503,-3.0171 1.80834,-3.33658c5.68968,-2.05797 8.54387,0.22943 8.54432,6.53367c0.00282,40.62282 0.00179,81.24562 0.00098,121.86845c-0.00012,7.15893 -0.11617,14.32066 0.04373,21.4755c0.06898,3.08845 -1.0007,4.07926 -3.83278,3.99125c-5.64602,-0.17541 -11.29997,-0.06318 -16.95893,-0.49712c0.30593,-3.3519 0.62009,-6.27643 0.93417,-9.20093l0.00004,0.00001l0.00001,-0.00004z" id="svg_8"/>
   <path fill="#CD44D2" d="m931.05978,220.94654c1.63417,-5.40122 1.46409,-10.31873 -3.33124,-14.49219c-0.73182,-4.34036 -1.46778,-8.18357 -1.77887,-12.0564c8.95027,0.28743 17.47571,0.60449 26.04504,1.30866c2.7878,11.46082 3.58319,22.45156 -1.26611,33.65399c1.55339,-0.61475 2.90713,-1.15049 4.28964,-1.69761c0.48831,0.88585 0.94683,1.71772 1.40535,2.54957c-0.16352,0.47431 -0.32699,0.94864 -0.97081,1.33629c-1.20735,1.06933 -1.93453,2.22529 -2.66168,3.38126c-1.43556,1.69318 -2.87116,3.38639 -4.86656,5.25072c-0.94846,0.71875 -1.33706,1.26641 -1.72561,1.81404c-0.00005,-0.00001 0.02415,0.21932 -0.40558,0.24865c-4.19274,2.77877 -7.95578,5.52822 -12.70325,8.99692c0,-6.9864 0.25644,-12.43377 -0.08279,-17.83905c-0.26225,-4.17892 -1.27077,-8.30517 -1.94752,-12.45485l0,0.00001l0,-0.00001z" id="svg_10"/>
   <path fill="#B739DA" d="m916.11236,263.0168c-0.74068,0.38703 -1.48135,0.77408 -2.69377,0.9693c-1.00178,0.26822 -1.53192,0.72819 -2.06203,1.18815c0,0 0.00707,0.09144 -0.43348,0.09127c-6.52449,1.22617 -12.58799,2.60015 -18.70972,3.55304c-1.21001,0.18839 -3.8352,-1.36597 -3.78549,-1.90796c0.3813,-4.1571 1.25558,-8.26402 1.99159,-12.38353c0.33157,-1.85629 0.69701,-3.70578 0.98514,-5.91174c-0.61616,-2.96401 -1.17048,-5.57462 -1.70414,-8.59258c0.02567,-4.82806 0.03061,-9.24878 0.44798,-13.68495c2.34287,-0.03781 4.27324,-0.06021 6.6429,-0.06426c4.63698,0.02378 8.86199,-0.26557 13.01993,0.16848c1.86771,0.19497 3.60132,1.83631 5.34308,3.22878c-0.18131,3.15965 -0.43004,5.9128 -0.41105,8.66385c0.03084,4.45986 1.05063,9.11741 0.1363,13.32033c-0.87864,4.03917 -1.30419,7.34428 1.25396,10.80391c-0.01656,0.18543 -0.02122,0.55794 -0.02122,0.55791z" id="svg_11"/>
   <path fill="#791AFA" d="m796.41074,101.45884c-0.35695,0.06453 -0.70833,0.07252 -0.98418,-0.37525c-1.56031,-1.178 -2.89223,-2.60956 -4.121,-2.5161c-5.09319,0.38734 -10.15526,1.23549 -15.22872,1.91445c0,0 -0.17969,0.31191 -0.313,-0.21097c-0.36956,-3.64225 -0.60575,-6.76158 -0.842,-9.88091c-0.21347,-0.35833 -0.42687,-0.71665 -1.0001,-1.32073c-0.66167,-0.42193 -0.88591,-0.33051 -1.03251,0.02854c-1.02307,0.03316 -2.04613,0.06631 -3.44746,-0.41629c-0.37652,-3.68649 -0.37486,-6.85724 -0.37313,-10.02796c1.02503,-0.05476 2.05005,-0.10951 3.52997,0.04092c0.45489,0.20519 0.8264,0.26244 0.8264,0.26244c0,0 0.27353,-0.29876 0.27353,-0.29877c0.26657,-0.55277 0.53313,-1.10553 1.19176,-2.27768c0.67238,-2.98216 0.95264,-5.34491 1.2615,-7.94859c8.27028,0 16.15065,0 24.031,0c-3.34337,4.4561 -3.24923,9.71777 -2.77466,14.9015c0.4951,5.40673 -2.03245,11.10521 1.2806,16.29402c0.05644,0.08847 -1.2504,1.15616 -2.27801,1.83143l0,-0.00002l0.00001,0z" id="svg_12"/>
   <path fill="#661EC3" d="m765.32027,270.27406c5.65067,0.00655 11.30462,-0.10566 16.95064,0.06976c2.8321,0.088 3.90178,-0.90281 3.83278,-3.99125c-0.15991,-7.15483 -0.04385,-14.31657 -0.04373,-21.4755c0.00081,-40.62282 0.00183,-81.24562 -0.00098,-121.86845c-0.00046,-6.30424 -2.85464,-8.59164 -8.54432,-6.53367c-0.88331,0.31947 -1.69528,2.13524 -1.80834,3.33658c-0.34061,3.61915 -0.32008,7.27654 -0.71623,11.21325c-0.23821,-5.82147 -0.20046,-11.93718 0.18515,-18.72688c4.75406,-0.66672 9.16022,-0.65941 13.56642,-0.65211c0,0 0.00224,-0.16172 0.02215,0.11987c0.30863,0.45514 0.59723,0.62868 0.88588,0.80223c0,0 0.04839,-0.14112 0.00794,0.31874c0.01305,4.44943 0.11029,8.43895 0.11334,12.42855c0.03768,48.73454 0.06152,97.4691 0.0889,146.20364c-10.72103,-0.08109 -21.4421,-0.16215 -32.30036,-0.58223c2.49544,-0.44684 5.12812,-0.55468 7.76074,-0.66251l0.00001,-0.00001l0.00001,0.00001z" id="svg_13"/>
   <path fill="#8E24EE" d="m821.45578,271.06949c-2.30201,-0.93237 -4.33889,-1.77718 -5.25672,-2.15783c0,-3.12368 -0.00033,-5.92786 0.00012,-8.73203c0.00173,-10.97056 0.00368,-21.94112 0.44856,-33.39043c6.74693,-0.46315 13.05082,-0.44754 19.35242,0.01924c-0.00299,0.78105 -0.00432,1.11091 -0.00449,1.44081c-0.00519,12.07481 -0.00512,12.07481 11.29732,12.34481c0.00121,0.46804 0.00559,0.65523 -0.42036,0.91222c-4.16012,0.0264 -7.8899,-0.01699 -11.78638,-0.11189c-0.40548,-0.06867 -0.62347,-0.00552 -1.1507,0.28776c-0.8015,0.21696 -1.27306,0.28406 -1.92324,0.16376c-0.63555,0.12188 -1.09263,0.43115 -1.55102,1.032c-0.01347,0.6797 -0.02543,1.0678 -0.25904,1.45978c-0.22164,0.00386 -0.66478,0.00017 -0.97548,0.26335c-0.30287,8.34038 -0.2951,16.41758 -0.1878,24.89072c-0.66179,0.92673 -1.42313,1.45753 -2.48009,1.69541c-1.33108,-0.43437 -2.36646,-0.57586 -3.40178,-0.71735c-0.47877,0.2291 -0.95748,0.45816 -1.70133,0.59968l-0.00001,0.00001l0.00001,-0.00002z" id="svg_14"/>
   <path fill="#871FF5" d="m821.46314,19.5005c0.38654,10.89779 0.38654,21.71763 0.38654,33.20624c-0.76926,0.15798 -2.06552,0.4242 -3.7444,0.74254c-1.03072,-0.18454 -1.67889,-0.4212 -2.81161,-1.12876c-4.42204,-0.64704 -8.35953,-0.82318 -12.30514,-1.42154c-0.31536,-5.29989 -0.74137,-10.17334 -0.89649,-15.05648c-0.1535,-4.83107 -0.03355,-9.67193 -0.03181,-14.80195c0.005,-0.68477 0.00829,-1.07609 0.01162,-1.4674c1.00921,-0.04986 2.01846,-0.09974 3.48981,0.0569c0.46209,0.20651 0.88284,0.27313 0.88284,0.27313c0,0 0.31254,-0.34683 0.31254,-0.34683c1.62019,-0.04819 3.24032,-0.09639 5.33849,0.26575c2.00408,0.18514 3.5302,-0.04005 5.05638,-0.26524c1.30822,-0.04478 2.61645,-0.08956 4.31126,-0.05636l-0.00002,-0.00001l-0.00001,0z" id="svg_15"/>
   <path fill="#6417C9" d="m800.58853,68.40352c-8.28605,0.02835 -16.1664,0.02835 -24.43669,0.02835c-0.30886,2.60368 -0.58913,4.96645 -1.13895,7.61412c-0.24866,-3.38139 -0.22779,-7.04771 0.28774,-11.20535c12.05705,-0.49479 23.61944,-0.49826 35.18177,-0.50171c0.22785,0.5272 0.4557,1.05439 0.84833,2.21351c0.15398,48.94996 0.13539,97.26799 0.17054,145.58601c0.00102,1.39901 0.57042,2.79755 0.87479,4.1963c0.81656,1.18576 1.63302,2.37151 2.66881,4.01017c0.21922,0.45289 0.24021,0.95184 -0.10725,1.02326c-0.75115,1.66645 -1.15471,3.26148 -1.55834,4.8565c-4.15683,-0.84887 -4.76264,-3.95343 -4.75844,-7.81454c0.05173,-47.28517 0.03049,-94.57045 0.02682,-141.8557c-0.00064,-7.91242 -0.27998,-8.20773 -8.05913,-8.15094l0.00001,0.00001z" id="svg_16"/>
   <path fill="#C13ED2" d="m916.15015,262.27345c-2.57474,-3.27421 -2.14918,-6.5793 -1.27054,-10.61848c0.91432,-4.20294 -0.10545,-8.86047 -0.1363,-13.32033c-0.019,-2.75104 0.22974,-5.5042 0.70275,-8.50649c4.90953,2.36324 8.30706,0.9157 12.84341,-5.57537c0.75892,-0.97676 1.51783,-1.95349 2.52352,-3.11822c0.92353,3.96165 1.93204,8.0879 2.1943,12.26684c0.33924,5.40529 0.08279,10.85265 0.08279,17.83905c4.74746,-3.4687 8.5105,-6.21813 12.59915,-8.99681c-5.72329,4.93384 -11.77224,9.89689 -18.29517,15.00503c-0.6527,0.25887 -0.78245,0.41768 -0.86329,0.62155c-0.17721,0.08937 -0.35443,0.17875 -1.07739,0.35063c-0.96249,0.36545 -1.37917,0.64838 -1.79585,0.93132c-0.23907,0.3037 -0.47813,0.60739 -1.30598,0.99748c-1.52674,0.65638 -2.46466,1.22637 -3.40264,1.79635c-0.16944,0.07885 -0.33884,0.15769 -1.07254,0.28314c-0.9516,0.04583 -1.33894,0.0451 -1.72623,0.04434l0,-0.00001l0.00001,-0.00001z" id="svg_17"/>
   <path fill="#E5BF70" d="m977.5398,178.41546c-0.05012,0.29519 -0.10017,0.59037 -0.45828,1.46135c-0.38164,1.17209 -0.45512,1.76835 -0.52865,2.3646c-0.07375,0.33453 -0.14746,0.66904 -0.52197,1.59618c-0.32669,0.91998 -0.35254,1.24729 -0.37836,1.57463c-0.06095,0.29551 -0.12194,0.59104 -0.53971,1.43883c-0.47358,1.15252 -0.59028,1.75279 -0.70702,2.35302c0,0 -0.02141,0.25379 -0.40189,0.16314c-0.60575,-0.1403 -0.83107,-0.18998 -1.06393,-0.64535c0.32688,-2.19453 0.66138,-3.98335 1.24517,-6.04294c1.62444,-7.88774 3.84741,-15.46172 4.1928,-23.13084c0.65575,-14.56049 0.67053,-29.15344 -2.56513,-43.57642c-3.01811,-13.45333 -6.98467,-26.39118 -14.22655,-38.391c-4.73013,-7.44031 -9.41821,-14.52423 -13.80796,-21.65366c0.13056,-1.14674 0.30638,-2.53997 -0.26583,-3.29739c-2.19758,-2.90885 -4.63497,-5.61386 -6.93433,-8.43518c0.04851,-0.04026 0.14587,-0.12037 0.14587,-0.12037c5.92576,6.76807 12.45733,13.05408 17.65484,20.4017c11.85197,16.75474 18.78205,35.96213 21.68693,56.58329c2.4531,17.41368 2.33147,34.92071 -1.81905,52.83365c-0.45437,1.91687 -0.58068,3.21981 -0.70696,4.52275l-0.00001,0l0.00001,0.00001z" id="svg_18"/>
   <path fill="#D248C9" d="m956.72916,230.10309c-0.7641,-0.72237 -1.22261,-1.55425 -1.71093,-2.44009c-1.38251,0.54712 -2.73624,1.08286 -4.28964,1.69761c4.8493,-11.20243 4.0539,-22.19315 1.70736,-33.65961c7.86805,-0.39534 15.33879,-0.39791 22.80955,-0.40048c-3.56074,13.04627 -10.25118,24.24442 -18.51634,34.80258l0,-0.00001z" id="svg_19"/>
   <path fill="#9C2CE8" d="m860.49098,271.01646c-1.94377,0.05027 -3.88751,0.10052 -6.47973,-0.13889c-2.01765,-0.15253 -3.38688,-0.01539 -4.75615,0.12175c-1.66018,0.05502 -3.32036,0.11 -5.60263,-0.11736c-1.68787,-0.15231 -2.75362,-0.02227 -3.81932,0.10775c-0.28354,0.06692 -0.5671,0.13387 -1.3508,-0.04921c-0.43061,-0.74212 -0.36109,-1.23426 -0.07693,-2.05419c0.32032,-5.37591 0.42595,-10.42398 0.96524,-15.50434c9.40923,-0.03229 18.38481,-0.03229 27.22575,-0.03229c0.56927,3.37022 1.19166,5.93512 1.39896,8.53724c0.33284,4.17779 0.82185,8.68601 -5.54192,7.53564c-0.5527,-0.0999 -1.30361,1.03341 -1.96248,1.5939l0.00001,0l0.00001,0z" id="svg_20"/>
   <path fill="#BD59E7" d="m841.65894,195.29874c-3.74228,-0.20562 -3.8673,-2.84547 -3.86425,-5.96151c0.05494,-56.32277 0.04608,-112.64564 0.04782,-169.42876c-0.00293,-0.46029 0.26409,-0.73617 0.42153,-0.74432c0.15742,-0.00814 0.10092,-0.06601 0.10092,-0.06601c0.29229,-0.07284 0.58457,-0.14565 1.22245,0.25019c0.42859,1.02064 0.51167,1.57261 0.4992,2.57197c-0.04011,25.06397 0.01541,49.68059 0.02358,74.56202c0.02272,0.42843 0.09281,0.59203 0.07618,0.92245c-0.08666,0.16681 -0.0283,0.54265 -0.2038,1.00345c-0.19498,30.02694 -0.14298,59.59356 -0.31524,89.15869c-0.02433,4.17209 1.40109,4.89995 4.96402,4.85895c14.088,-0.16224 28.1796,0.01809 42.06346,0.29184c-0.98055,0.9627 -1.75477,1.70497 -2.95598,2.49639c-2.68797,0.06669 -4.94906,0.08422 -7.65096,0.09716c-5.80234,-0.0062 -11.16383,-0.00778 -16.96371,-0.0155c-6.11395,-0.00307 -11.78962,-0.00002 -17.46521,0.00299l0.00001,0l-0.00002,0z" id="svg_21"/>
   <path fill="#A636D8" d="m860.92679,271.10659c0.22308,-0.65063 0.97401,-1.78396 1.5267,-1.68406c6.36378,1.15037 5.87478,-3.35785 5.54192,-7.53564c-0.2073,-2.60213 -0.82969,-5.16703 -1.39896,-8.53724c-8.84094,0 -17.81651,0 -27.29699,-0.04743c-0.50483,-0.04743 -0.63757,-0.21232 -0.33762,-0.50015c11.84588,-0.35895 23.39188,-0.46076 34.93782,-0.45476c1.18452,0.00061 2.36887,0.6462 3.70545,1.32185c5.9955,5.06077 10.12707,3.54493 13.86141,-4.70045c-0.35006,1.85258 -0.71549,3.70208 -1.04706,5.55836c-0.73601,4.1195 -1.61029,8.22642 -1.99159,12.38353c-0.04971,0.54197 2.57548,2.09635 3.78549,1.90796c6.12173,-0.95289 12.18524,-2.32687 18.66807,-3.56563c-9.90026,4.31961 -20.61323,6.26171 -31.66683,6.18046c-5.9509,-0.04375 -11.90141,-0.15553 -18.28781,-0.32681l-0.00001,0l0.00002,0.00001z" id="svg_22"/>
   <path fill="#7F1CFB" d="m802.05849,21.33402c0,4.83656 -0.11997,9.67742 0.03355,14.50849c0.15512,4.88313 0.58113,9.75659 0.45691,15.05995c-5.1631,0.42532 -9.89462,0.42498 -14.62757,-0.04337c-0.00127,-10.73987 -0.00114,-21.01169 -0.00104,-31.28351c2.85632,-0.04777 5.7127,-0.09555 9.07961,0.27857c2.02651,0.77454 3.54257,1.12722 5.05856,1.47989l-0.00001,0l-0.00001,-0.00001z" id="svg_23"/>
   <path fill="#791AFA" d="m787.6102,19.49517c0.31002,10.3522 0.3099,20.62405 -0.11756,31.36717c-3.60947,0.85388 -6.79169,1.23644 -9.97384,1.61903c-0.41749,0.01872 -0.83498,0.03743 -1.55125,-0.5211c-0.29874,-10.81275 -0.29874,-21.04823 -0.29874,-30.9925c4.04768,-0.62296 7.20137,-1.10833 10.35503,-1.59371c0.42543,0.01359 0.85085,0.02717 1.58637,0.12112l-0.00001,0l0,-0.00001z" id="svg_24"/>
   <path fill="#DF69D5" d="m884.1658,195.16493c0.77421,-0.74227 1.54844,-1.48452 2.81334,-2.56862c0.99107,-0.70514 1.49149,-1.06846 2.27629,-1.2405c4.6326,0.14459 8.98065,0.09368 13.32884,0.05201c12.68033,-0.12149 25.36074,-0.23928 38.47693,-0.27675c11.77919,-0.01995 23.12248,-0.12165 34.78794,-0.11209c0.54787,0.11693 0.77364,0.12257 0.99948,0.12824c-0.25046,0.88399 -0.50086,1.76799 -1.0431,3.07337c-0.29188,0.42139 -0.36501,0.65677 -0.36501,0.65677c0,0 0.03474,0.27988 -0.08009,0.35153c-7.58565,0.0742 -15.05639,0.07676 -22.96841,0.08496c-8.96661,-0.31141 -17.49206,-0.62845 -26.87967,-0.94454c-7.78099,0.30557 -14.69974,0.61014 -22.06271,0.91054c-6.72409,-0.0411 -13.004,-0.07802 -19.28384,-0.11492l-0.00001,0z" id="svg_26"/>
   <path fill="#ECCE85" d="m790.2806,271.62184c-0.4481,-48.83759 -0.47191,-97.57215 -0.50961,-146.30668c-0.00305,-3.98962 -0.10029,-7.97913 -0.18406,-12.4313c0.37025,1.35955 1.11818,3.18121 1.12065,5.00398c0.06658,48.44065 0.0561,96.88141 0.05973,145.32213c0.00005,1.33159 -0.46443,3.01463 0.12664,3.91224c0.88436,1.34288 2.41133,2.50221 3.88146,2.96391c0.53308,0.16739 1.89293,-1.78048 2.48722,-2.97968c0.38849,-0.78386 0.08151,-1.95697 0.08151,-2.95574c-0.00017,-50.93769 0.00817,-101.87536 -0.02864,-152.81302c-0.00179,-2.45591 -0.40225,-4.91149 -0.41421,-7.64437c0.64717,2.05591 1.47641,4.38841 1.47957,6.72216c0.07083,52.23271 0.04861,104.46558 0.05822,156.69839c0.00024,1.46923 0.15593,2.93843 0.25254,4.42868c-2.65442,0.07479 -5.32237,0.12855 -8.41102,0.07928l0.00001,0.00002z" id="svg_27"/>
   <path fill="#C645C5" d="m722.81913,271.05667c-1.18015,0.70793 -2.48992,1.24968 -3.51788,2.15254c-4.3519,3.82221 -8.1757,3.9197 -11.56844,0.14564c-3.23561,-3.59916 -3.20144,-10.78596 0.06801,-14.29929c3.47308,-3.73218 7.87708,-3.62425 11.94767,0.2648c0.44603,0.42613 1.00277,0.72185 1.84108,1.60347c0.63176,3.7279 0.93066,6.93037 1.22958,10.13285l-0.00001,-0.00001z" id="svg_30"/>
   <path fill="#D248C9" d="m680.45504,217.05246c-4.79636,2.2345 -7.04831,1.34223 -10.09577,-4.00048c-2.271,-3.98123 -1.41404,-8.63446 2.16755,-11.77003c3.2611,-2.855 7.38203,-2.77689 10.35272,0.20341c0.56439,0.56614 1.10765,1.15588 1.97135,2.32245c0.31134,3.49543 0.31197,6.40316 0.3126,9.3109c-0.44781,0.33512 -0.89561,0.67024 -1.91271,1.12862c-1.31145,1.01725 -2.05361,1.9112 -2.79573,2.80516l0,-0.00002z" id="svg_31"/>
   <path fill="#C645C5" d="m714.38728,29.1046c-2.06098,1.38083 -3.97353,3.43265 -6.21649,3.99095c-3.70234,0.92155 -7.10229,-0.16587 -8.79842,-4.46125c-1.97498,-5.00132 -1.10322,-10.58407 2.41673,-13.03973c3.47438,-2.42388 6.96402,-2.29919 10.18207,0.81473c0.79108,0.76552 1.78913,1.29036 2.73911,2.29469c-1.32306,1.74459 -3.88445,3.23246 -3.781,4.46954c0.15087,1.80267 2.21909,3.42486 3.465,5.32575c-0.0049,0.20172 -0.00703,0.60533 -0.00703,0.60533l0.00001,0l0,-0.00001z" id="svg_32"/>
   <path fill="#D248C9" d="m708.71975,146.28437c-0.48229,0.30428 -0.96462,0.60859 -1.86996,0.93616c-0.59781,0.05421 -0.73613,0.1464 -0.83814,0.29988c-4.53624,0.84815 -7.63501,-1.67202 -8.9888,-5.68218c-1.25403,-3.71441 -0.9604,-7.83193 2.62012,-11.20638c0.50231,-0.45324 0.60001,-0.60947 0.62221,-0.81885c0.17544,-0.08987 0.35081,-0.17974 0.97622,-0.39135c0.67634,-0.22718 0.82491,-0.40555 0.89562,-0.65687c0.42256,-0.09775 0.84511,-0.1955 1.8444,-0.02511c1.91621,0.40077 3.25562,0.53341 4.59509,0.66604c0.22278,0.09255 0.44551,0.1851 0.93562,0.53392c0.2675,0.2563 0.27185,0.30124 0.27185,0.30124c0.4901,0.51377 0.9802,1.02752 1.43906,2.24798c-0.21295,3.76235 -0.39465,6.818 -0.71829,10.15923c-0.68963,1.40248 -1.23734,2.51934 -1.78503,3.63623l0.00001,0.00002l0.00001,0.00002z" id="svg_33"/>
   <path fill="#D248C9" d="m678.02058,179.34662c-0.43373,-4.59894 -1.70271,-9.40596 3.32253,-12.93388c0.7202,-0.27629 0.87796,-0.45419 0.96847,-0.69915c0.42248,-0.10271 0.84504,-0.20539 1.8104,-0.06882c2.89555,1.39032 5.24826,2.54135 7.60089,3.6924c0,0.00001 0.04189,-0.01795 0.0824,0.34516c0.86731,1.15822 1.69406,1.95334 1.87554,2.12791c-0.38366,3.28495 -0.68705,5.88283 -0.9905,8.48073c0,0 0.01266,0.03022 -0.32727,0.01447c-1.06518,0.6278 -1.79051,1.27139 -2.51582,1.91494c-0.21024,0.29509 -0.42047,0.5902 -1.28436,0.95943c-2.74482,0.06989 -4.83595,0.06563 -6.92712,0.0614c-0.95609,-0.8112 -1.91214,-1.62242 -2.99925,-2.92445c-0.23463,-0.71663 -0.39627,-0.8764 -0.61593,-0.97014l0.00001,0.00001l0.00001,0z" id="svg_34"/>
   <path fill="#9E31D9" d="m721.92126,170.54124c2.92813,-2.82832 5.81621,-5.70547 8.80165,-8.46404c1.45678,-1.34608 3.09515,-2.47101 4.85413,-3.40747c-0.60461,1.40604 -1.41202,2.52349 -2.62756,4.20588c2.91439,1.64758 5.42905,3.06919 7.94371,4.4908c-2.9099,2.79953 -5.89078,5.52153 -8.70682,8.42351c-2.19126,2.25813 -3.89516,5.27771 -8.02012,4.02012c-0.99903,-3.39262 -1.62204,-6.33071 -2.24499,-9.26881l0,0.00001z" id="svg_35"/>
   <path fill="#9932CC" d="m713.44206,210.33559c2.12675,0.377 4.244,0.99412 6.38196,1.08908c8.89002,0.3949 17.78638,0.63239 26.99434,1.18919c0.11461,0.47925 -0.12388,0.62449 -0.84073,0.69555c-5.87675,-0.00172 -11.31436,-0.00172 -16.75399,-0.00172c-0.12427,2.82132 -0.2272,5.15748 -0.35218,7.99422c5.10884,0 9.9185,0 14.73493,0.1983c0.00686,0.1983 0.01272,0.59509 0.01272,0.59509c-9.46952,0.09864 -18.93901,0.19726 -28.82138,-0.20205c-0.15846,-1.25687 -0.10443,-2.23293 0.38319,-2.73892c2.81449,-2.92047 2.85844,-5.2503 -0.98504,-7.13107c-0.40892,-0.20012 -0.51001,-1.1081 -0.75384,-1.68764l-0.00001,-0.00001l0.00002,0z" id="svg_36"/>
   <path fill="#C645C5" d="m735.06017,91.32413c-3.49924,3.12875 -7.16938,3.31563 -10.13859,0.51626c-3.21011,-3.02655 -4.0394,-9.58094 -1.72605,-13.64218c1.88084,-3.30195 6.24291,-4.86407 9.78727,-3.37274c0.96927,0.40783 1.78239,1.23343 2.41196,2.20323c-3.29429,0.25984 -4.47088,1.41828 -3.48325,4.84684c0.5114,1.77492 0.52697,3.9601 0.05628,5.74967c-0.87364,3.32043 0.82003,3.64407 3.0924,3.69893l-0.00001,0l0,-0.00001z" id="svg_37"/>
   <path fill="#B739DA" d="m713.44349,210.32403c0.2424,0.59112 0.3435,1.49909 0.75241,1.69921c3.84349,1.88077 3.79953,4.21059 0.98504,7.13107c-0.48763,0.506 -0.54165,1.48205 -0.81128,2.60324c-0.71129,0.3341 -1.40729,0.30595 -2.48447,-0.12032c-0.91933,-0.73761 -1.45748,-1.07709 -1.99557,-1.41657c0,0 -0.14182,0.00899 -0.17624,-0.38114c-0.91438,-1.13247 -1.79441,-1.87482 -2.67439,-2.6172c0,0 -0.121,0.0163 -0.16042,-0.36801c-0.93698,-1.11586 -1.83451,-1.84746 -2.73209,-2.57903c-0.4977,-0.30722 -0.99545,-0.61442 -1.94436,-1.3456c-0.95001,-3.41444 -1.44885,-6.40488 -1.94769,-9.3953c1.01144,-0.05063 2.02295,-0.10128 3.49452,0.05156c0.46018,0.20348 0.88239,0.27663 0.88239,0.27663c0,0 0.31071,-0.34954 0.31071,-0.34954c0.7271,-0.0158 1.45426,-0.03158 2.58912,0.2378c0.54028,0.46349 0.71087,0.57797 0.91956,0.62867c0.6333,0.50597 1.26668,1.01192 2.00702,2.17093c1.06046,1.69153 2.01391,2.73004 2.9673,3.76853c0,0.00001 0.01985,-0.00647 0.0184,0.00506l0.00002,0.00002l0,-0.00001z" id="svg_38"/>
   <path fill="#8523EC" d="m746.41676,213.31112c0.27773,-0.07277 0.51622,-0.218 0.82899,-0.62102c7.30619,-0.23231 14.49979,-0.23053 21.6912,-0.36277c1.67369,-0.03079 3.33993,-0.51754 5.39399,-0.89738c-0.81709,0.55773 -1.98751,1.69734 -3.22606,1.78793c-3.53705,0.2587 -7.10193,0.09096 -11.5589,0.09096c1.12003,1.37263 1.69183,2.07335 2.38642,2.92457c-0.71007,1.13747 -1.5569,2.49403 -2.77259,4.44153c2.33411,0.39836 3.94257,0.67285 5.82065,1.18455c-6.64894,0.28224 -13.56751,0.32727 -20.92365,0.30404c-0.43769,-0.06826 -0.44354,-0.46504 -0.18977,-0.88126c1.0191,-2.93455 1.7844,-5.45285 2.54971,-7.97115z" id="svg_39"/>
   <path fill="#8F2BDF" d="m765.31043,29.05582c-7.24078,0.0583 -14.48155,0.11659 -21.94947,-0.22474c0.75483,-0.76191 1.79999,-1.56092 2.70816,-1.41305c4.6443,0.7561 5.60655,-1.78268 5.10425,-5.91926c-0.11714,-0.96429 -0.02415,-1.95729 -0.02785,-2.93708c4.43018,-0.05207 8.86039,-0.10414 13.67131,0.28375c0.41842,3.69677 0.45599,6.95357 0.49361,10.21036l-0.00001,0.00001z" id="svg_40"/>
   <path fill="#8A27E4" d="m764.88909,236.48939c0.43256,2.70672 0.43256,5.32665 0.43256,8.06661c2.62193,0.59591 4.94429,1.12373 7.37904,2.00111c-7.41794,0.44671 -14.94834,0.54386 -22.6844,0.31076c0.87272,-3.66592 1.95109,-7.00163 3.02951,-10.33735c3.80355,-0.04264 7.60711,-0.08529 11.8433,-0.04112l0,-0.00001z" id="svg_41"/>
   <path fill="#B03DD0" d="m714.82248,29.18895c-0.43521,-0.08435 -0.43307,-0.48796 -0.02935,-0.68124c1.63797,-0.32768 2.98797,-0.17099 4.08119,-0.66008c1.97169,-0.88207 4.71764,-1.73192 5.38191,-3.38845c0.54361,-1.35561 -1.47041,-3.86516 -2.35063,-5.86318c8.18641,-0.06903 16.3728,-0.13804 24.69246,0.12449c-0.95223,0.4272 -2.03698,0.59438 -3.12335,0.60725c-9.18559,0.10887 -9.1857,0.10041 -6.43837,9.71958c-7.25953,0.07532 -14.51912,0.15065 -22.21386,0.1416l0,0.00002l0.00001,0.00001z" id="svg_42"/>
   <path fill="#8021EB" d="m765.66071,29.13677c-0.3879,-3.33775 -0.42549,-6.59453 -0.40891,-10.21499c0.77059,-0.41218 1.48705,-0.4607 2.77767,-0.21635c1.91933,0.10388 3.26455,-0.08515 4.60972,-0.27416c4.3184,0.10211 8.63686,0.2042 13.16998,0.62455c-2.939,0.80361 -6.09268,1.28897 -10.14037,1.91194c0,9.94427 0,20.17977 -0.00138,30.88265c-0.16658,0.51302 -0.33181,0.55864 -0.74489,0.5359c-0.32935,-7.65535 -0.41087,-15.24234 -0.92703,-23.20436c-0.72008,-0.54283 -0.94839,-0.46466 -1.11958,-0.14051c-1.02807,0.05486 -2.05615,0.10971 -3.55304,-0.03723c-0.76835,-0.3656 -1.00385,-0.27853 -1.17526,0.05941c-0.71219,0.05135 -1.42446,0.10272 -2.48693,0.07313l0,0.00001l0.00002,0.00001z" id="svg_43"/>
   <path fill="#C13ED2" d="m699.81885,203.45732c0.93445,3.06749 1.43332,6.05793 2.11041,9.36137c-5.17932,0.36071 -10.53702,0.40843 -16.33022,0.3781c-0.43618,-2.98583 -0.43682,-5.89358 -0.44005,-9.23642c4.73967,-0.48342 9.48203,-0.53177 14.65986,-0.50304l0,-0.00001z" id="svg_44"/>
   <path fill="#8F2BDF" d="m741.22677,167.35755c-2.84826,-1.41276 -5.36293,-2.83436 -8.27731,-4.48192c1.21553,-1.6824 2.02295,-2.79986 2.96973,-4.20806c4.88693,-0.62625 9.63444,-0.96175 14.75905,-0.84873c0.41271,3.40543 0.44839,6.36235 0.48405,9.31925c-3.20067,0.07021 -6.4013,0.14042 -9.93553,0.21948l0,-0.00002z" id="svg_45"/>
   <path fill="#B03DD0" d="m723.24411,271.13922c-0.72388,-3.28501 -1.02279,-6.48749 -1.3244,-10.11423c4.42368,-0.47046 8.85013,-0.51666 13.711,-0.04636c0.43442,3.22002 0.43442,5.9235 0.43442,8.5828c-1.83647,0.5923 -3.23849,1.04445 -4.6405,1.49663c-2.58521,0.05457 -5.17035,0.10912 -8.18052,0.08114l0,0.00001z" id="svg_46"/>
   <path fill="#B739DA" d="m721.48587,170.47188c1.05834,3.00746 1.68135,5.94555 2.31058,9.2572c-1.62405,0.42134 -3.25431,0.46911 -5.58818,0.19563c-4.4745,-0.53392 -8.24537,-0.74658 -11.99427,-0.95798c0.25005,-3.26023 0.44901,-5.8543 0.64797,-8.44838c4.72944,-0.03859 9.45901,-0.0772 14.62389,-0.04645l0.00001,0l0,-0.00001z" id="svg_47"/>
   <path fill="#BA41C8" d="m706.42838,170.43891c0.23463,2.67351 0.03567,5.26758 -0.21437,8.52782c3.74889,0.2114 7.51977,0.42406 11.59156,0.88551c-7.87588,0.31657 -16.0526,0.3843 -24.67231,0.44539c-0.13947,-2.60452 0.16392,-5.2024 0.54758,-8.48737c-0.18147,-0.17458 -1.00823,-0.96969 -1.88417,-2.10575c4.69988,-0.00899 9.44893,0.32299 14.63172,0.7344z" id="svg_48"/>
   <path fill="#B03DD0" d="m732.26105,236.51878c3.49568,-0.04193 6.99134,-0.08384 10.91556,0.38866c0.4038,3.48402 0.37894,6.4536 0.19069,9.49419c-0.38112,0.19501 -0.53481,0.37914 -0.62457,0.62334c-1.96932,0.05287 -3.93861,0.10574 -6.61223,-0.14492c-2.71512,-0.41481 -4.72594,-0.52611 -6.70851,-1.07928c0.0164,-3.11448 0.00454,-5.78709 0.30168,-8.47143c1.05177,-0.27803 1.79458,-0.54431 2.53739,-0.81058l0,0.00001l0,0.00001z" id="svg_49"/>
   <path fill="#A62FE6" d="m737.43687,29.12241c-3.14785,-9.69422 -3.14775,-9.68577 6.03785,-9.79464c1.08636,-0.01287 2.17111,-0.18006 3.5554,-0.52405c1.31881,-0.29227 2.33878,-0.33619 3.73711,-0.31108c0.382,1.04884 0.28902,2.04184 0.40617,3.00613c0.50231,4.13656 -0.45995,6.67535 -5.10425,5.91926c-0.90817,-0.14786 -1.95334,0.65115 -3.13768,1.31831c-1.83291,0.35695 -3.46351,0.40904 -5.49457,0.38607l-0.00001,-0.00001l-0.00001,0.00001z" id="svg_50"/>
   <path fill="#C43ED7" d="m750.21945,182.5527c0.42094,-0.05927 0.84183,-0.11857 1.80361,0.1007c1.35782,0.38078 2.17486,0.48298 2.99183,0.58518c0.54315,0.15472 1.08624,0.3094 1.72928,1.16545c0.66427,4.80847 1.2287,8.91561 1.82646,13.20466c0.03331,0.18191 0.10898,0.54375 0.10898,0.54371c-0.16888,0.33199 -0.33774,0.66398 -1.14672,1.07481c-6.44606,1.70606 -6.63398,1.73879 -7.58363,-4.39414c-0.58717,-3.79202 -0.49735,-7.70196 -0.71145,-11.55896c0.00005,0 0.03004,0.04343 0.21457,-0.02294c0.44949,-0.20368 0.64367,-0.41438 0.76709,-0.69847l0,0.00001l0,-0.00001z" id="svg_51"/>
   <path fill="#8523EC" d="m764.88897,132.60826c0.42502,2.94404 0.41496,5.81402 0.40633,9.11824c-4.44331,0.80269 -8.88806,1.17115 -13.7506,1.27555c-0.41772,-0.26406 -0.4351,-0.65137 -0.28366,-0.98977c0.69211,-3.31623 1.23278,-6.29407 1.77348,-9.27188c3.80648,-0.06871 7.61292,-0.13745 11.85446,-0.13211l-0.00001,-0.00001l0,-0.00001z" id="svg_52"/>
   <path fill="#8422F0" d="m751.59696,167.20559c-0.4703,-3.02443 -0.50599,-5.98134 -0.48522,-9.3098c4.62307,-0.36942 9.18979,-0.36728 13.988,-0.01228c-4.56132,2.97869 -2.21565,5.76914 0.1328,8.8925c-4.35402,0.38867 -8.77754,0.44288 -13.63558,0.42959z" id="svg_53"/>
   <path fill="#C43ED7" d="m710.64672,142.36257c0.1817,-3.05567 0.36341,-6.11132 0.69788,-9.53035c1.16341,-0.349 2.17399,-0.33462 3.68107,0.10871c3.89463,0.74256 7.29284,1.05621 10.68749,1.81079c0.00454,2.50104 0.01266,4.56107 -0.26985,6.90164c-5.12588,0.42342 -9.96124,0.56632 -14.79657,0.70922l-0.00001,-0.00001z" id="svg_54"/>
   <path fill="#A62FE6" d="m725.73391,141.37284c-0.00811,-2.06006 -0.01622,-4.1201 0.40455,-6.62043c3.60689,-0.99208 6.78496,-1.54387 9.96297,-2.09567c1.30432,-0.04367 2.60862,-0.08731 4.29549,0.39549c0.38014,3.43059 0.37768,6.33467 -0.06139,9.25208c-5.15822,-0.30163 -9.87994,-0.61656 -14.60163,-0.93148l0,-0.00001l0.00001,0.00001z" id="svg_55"/>
   <path fill="#DBBA7F" d="m882.48353,17.89662c21.88078,0.81055 40.61391,9.8107 57.18533,25.05528c0.09591,0.37058 0.03148,0.47099 -0.28176,0.35831c-0.96592,-0.20535 -1.61858,-0.29803 -2.39786,-0.66679c-0.70702,-1.05377 -1.14109,-2.08507 -1.88981,-2.5711c-11.49386,-7.46181 -22.61443,-15.79861 -36.3439,-18.22513c-2.6313,-0.46508 -5.30482,-0.66182 -8.31102,-0.9775c-1.29158,0.01371 -2.23099,0.02257 -3.27179,-0.33216c-1.65477,-0.76472 -3.20806,-1.16586 -5.07283,-1.57991c-1.05794,-0.29099 -1.80437,-0.56903 -2.18549,-0.89568c1.09993,-0.0875 1.83458,-0.12639 2.56915,-0.16528l-0.00002,-0.00002l0.00001,-0.00001z" id="svg_56"/>
   <path fill="#8523EC" d="m765.31198,269.84667c-2.62432,0.53522 -5.25701,0.64306 -8.18421,0.9928c-0.72451,0.27552 -1.15454,0.30907 -2.11788,0.07498c-1.31012,-0.38505 -2.08682,-0.50244 -2.87784,-1.05654c0.25616,-3.36016 0.52664,-6.28362 0.79713,-9.20707c4.15977,-0.06002 8.31954,-0.12004 12.89817,-0.09258c0.10473,3.01202 -0.20942,5.93654 -0.51536,9.28844l0,-0.00001l0,-0.00002z" id="svg_57"/>
   <path fill="#ECCE85" d="m656.53306,123.48984c3.78314,1.2289 7.28927,1.42822 10.73202,-1.96153c1.22981,-1.21089 3.82877,-1.15891 5.80493,-1.16819c17.09403,-0.08037 34.18949,0.04862 51.28218,-0.12686c3.02439,-0.03104 6.03854,-1.18567 9.41878,-1.87054c-2.09418,0.98015 -4.54209,2.87541 -7.00659,2.89989c-17.58544,0.17465 -35.17522,-0.14566 -52.76101,0.01084c-2.48917,0.02216 -5.1494,1.43429 -7.40388,2.80661c-3.51311,2.13842 -6.70654,2.63225 -10.06643,-0.59021l0,-0.00001z" id="svg_58"/>
   <path fill="#A636D8" d="m750.25898,89.07522c-2.91954,0.04793 -5.83917,0.09585 -9.11287,-0.4539c0.36951,-4.68124 -0.67117,-7.98111 -4.14538,-10.20011c4.42622,0.01821 8.8525,0.03643 13.72396,0.5102c1.31922,3.80954 2.40626,7.18606 -0.46571,10.14379l0.00001,0.00001l-0.00001,0z" id="svg_59"/>
   <path fill="#B545B1" d="m729.3938,246.24268c2.01075,0.11127 4.02156,0.22256 6.31885,0.56786c-3.63871,0.63707 -7.44485,0.19032 -10.86753,3.84487c-2.97669,3.1784 -6.81291,1.11917 -9.48214,-1.89751c-2.77905,-3.14067 -2.57951,-10.47348 0.13762,-13.89364c2.66104,-3.34955 6.63026,-4.03161 10.03887,-1.8695c1.94602,1.23436 4.01316,2.25375 6.37369,3.44697c-0.39492,0.34336 -1.13774,0.60963 -2.52019,0.84517c-1.76351,-0.88227 -2.78854,-2.17061 -4.03348,-2.48749c-2.09942,-0.5344 -5.34147,-1.45819 -6.28611,-0.39761c-1.45938,1.63836 -1.59636,4.78496 -1.87997,7.34355c-0.14827,1.338 0.49205,2.82203 0.94833,4.17476c0.48142,1.42736 0.92479,3.67879 1.82117,3.95054c1.36726,0.41449 3.17566,-0.38273 4.67513,-0.99863c1.65678,-0.68053 3.1764,-1.73672 4.75574,-2.62931l0,-0.00001z" id="svg_60"/>
   <path fill="#ECCE85" d="m728.07768,110.29064c-1.17027,0.31842 -2.77911,0.98993 -4.39056,0.99713c-17.25024,0.07731 -34.50112,0.08552 -51.75123,-0.00351c-1.77916,-0.00919 -3.97398,-0.21441 -5.24746,-1.29478c-2.91284,-2.47113 -5.54245,-3.37332 -8.93916,-1.15629c-3.62755,2.36763 -2.74004,5.97042 -2.60867,9.36535c0.05,1.29325 0.55615,2.56668 0.89447,4.23811c-3.37092,-3.83601 -3.50476,-9.7035 -0.27543,-13.45232c3.33687,-3.87367 6.81994,-3.73054 11.95404,0.13181c1.15621,0.8698 2.85811,1.29199 4.31007,1.2952c18.53791,0.04095 37.07601,-0.03204 56.05393,-0.12073l0,0.00002l0.00001,0z" id="svg_61"/>
   <path fill="#9A2AEB" d="m740.77212,142.29102c0.00249,-2.90412 0.00494,-5.80821 0.00581,-9.13855c2.88929,-0.48694 5.78019,-0.54763 9.23742,-0.36001c1.04546,0.1474 1.52444,0.04644 2.0035,-0.05451c0.16933,-0.04622 0.33873,-0.09244 0.76186,-0.0681c-0.28689,3.04835 -0.82756,6.0262 -1.9466,9.3389c-3.73957,0.31735 -6.90079,0.29981 -10.062,0.28226l-0.00001,0l0.00001,0z" id="svg_62"/>
   <path fill="#CD44D2" d="m721.49566,18.5273c1.29016,2.06673 3.30418,4.57628 2.76057,5.9319c-0.66427,1.65654 -3.41023,2.50639 -5.38191,3.38845c-1.09321,0.48909 -2.4432,0.3324 -4.07634,0.45834c-1.64959,-1.70758 -3.71782,-3.32979 -3.86869,-5.13246c-0.10345,-1.23707 2.45793,-2.72494 4.08475,-4.32361c2.19499,-0.27903 4.1333,-0.33519 6.48163,-0.3226l-0.00001,-0.00001l0,-0.00001z" id="svg_63"/>
   <path fill="#8F2BDF" d="m750.68142,89.15824c2.44954,-3.04074 1.36248,-6.41728 0.47721,-10.1529c4.41776,-0.43482 8.84686,-0.48801 13.60721,-0.0994c-1.33027,1.01035 -2.99171,1.57886 -5.35228,2.38662c0.3848,2.50906 0.7886,5.14203 1.19247,7.77498c-3.16743,0.05789 -6.33474,0.11578 -9.92459,0.09067l0,0.00001l-0.00001,0.00001z" id="svg_64"/>
   <path fill="#C43ED7" d="m736.89044,78.16299c3.58451,2.47722 4.62519,5.77709 3.89181,10.36071c-1.71645,1.18001 -3.42328,1.85998 -5.4261,2.6702c-2.56834,0.07534 -4.262,-0.24829 -3.38837,-3.56873c0.47071,-1.78956 0.45512,-3.97477 -0.05628,-5.74967c-0.98763,-3.42855 0.18895,-4.587 3.58992,-4.50676c0.66749,0.18142 0.97311,0.35873 1.38901,0.79423l0,0.00001l0.00001,0z" id="svg_65"/>
   <path fill="#A636D8" d="m731.85409,271.13789c0.97254,-0.532 2.37456,-0.98416 4.21103,-1.57646c0,-2.65929 0,-5.36278 -0.00218,-8.4991c2.2347,-0.49551 4.47151,-0.55816 7.12426,-0.1063c0.9943,3.98903 -1.57835,8.84061 4.12905,10.0738c-5.01092,0.06263 -10.02184,0.12529 -15.46216,0.10807l-0.00001,-0.00001z" id="svg_66"/>
   <path fill="#B545B1" d="m748.90806,183.3271c0.54384,3.80401 0.45404,7.71395 1.04118,11.50597c0.94965,6.13294 1.13757,6.1002 7.32024,4.4806c-2.53417,2.70458 -7.32524,2.82666 -9.95124,0.27081c-3.89732,-3.79327 -4.50826,-10.03901 -1.28687,-14.15937c0.66174,-0.84637 1.68849,-1.37171 2.8767,-2.09803l-0.00001,0.00001z" id="svg_67"/>
   <path fill="#871FF5" d="m760.97783,89.14091c-0.77566,-2.70629 -1.17947,-5.33925 -1.56427,-7.84833c2.36058,-0.80777 4.02203,-1.37629 5.78486,-2.29887c1.11001,-0.40715 2.11864,-0.46024 3.49872,-0.42673c0.36979,3.25735 0.36813,6.42809 0.3683,10.03087c-1.01513,0.48961 -2.03221,0.54717 -3.51248,0.39814c-0.77326,-0.37834 -1.01489,-0.28852 -1.1882,0.0629c-1.00507,0.05178 -2.01013,0.10357 -3.38692,0.08204l-0.00001,-0.00001l0,-0.00001z" id="svg_68"/>
   <path fill="#9E31D9" d="m743.53075,246.33062c0.02481,-2.96958 0.04967,-5.93917 0.07543,-9.34802c2.86386,-0.49552 5.72673,-0.55174 9.01458,-0.53002c-0.65339,3.41367 -1.73174,6.74939 -3.03393,10.33405c-1.88198,0.29621 -3.54026,0.34348 -5.60477,0.14146c-0.40626,-0.24926 -0.45133,-0.59746 -0.45133,-0.59746l0.00001,0l0.00001,-0.00001z" id="svg_69"/>
   <path fill="#8F2BDF" d="m747.69806,271.10757c-6.08923,-1.31093 -3.51657,-6.16252 -4.09866,-10.06916c2.85401,-0.46918 5.71161,-0.50625 8.94946,-0.46546c0.10984,3.00134 -0.16065,5.92478 -0.61278,9.36808c-0.44471,0.65586 -0.63508,0.86595 -0.75287,1.15004c-1.03446,0.0314 -2.06887,0.06283 -3.48514,0.01651l0,-0.00001l-0.00001,0z" id="svg_70"/>
   <path fill="#ECCE85" d="m788.54823,111.27005c-4.21277,0.36843 -8.61892,0.36112 -13.34877,0.53925c-11.98714,0.34362 -23.65057,0.50185 -35.74701,0.74712c1.00823,-0.67819 2.44338,-2.09285 3.89171,-2.10823c14.57043,-0.15483 29.14311,-0.08453 43.71506,-0.04833c0.43222,0.00108 0.86375,0.32244 1.48901,0.8702l-0.00001,0z" id="svg_71"/>
   <path fill="#A62FE6" d="m758.53732,197.42676c-0.56444,-4.10712 -1.12888,-8.21427 -1.68608,-12.74078c2.26467,0.62065 4.52202,1.66073 7.31615,3.11364c0.73112,3.36968 0.92554,6.32651 1.11991,9.28333c-1.63584,0.06774 -3.27163,0.1355 -5.57323,0.2353c-0.83613,0.05755 -1.00644,0.08302 -1.17676,0.10851l0.00001,0z" id="svg_72"/>
   <path fill="#ECCE85" d="m838.19083,269.2141c-0.06957,0.49212 -0.13907,0.98426 -0.14407,1.71607c-3.59573,0.38273 -7.25609,0.52582 -11.11758,0.64403c-0.2012,-0.02487 -0.07463,-0.09414 -0.07463,-0.09414c0.76128,-0.53079 1.5226,-1.06157 2.28958,-2.42564c0.13487,-8.79436 0.26409,-16.7555 0.39333,-24.71659c0,0 0.44315,0.00372 0.83763,0.28792c0.25,6.91104 0.045,13.53714 -0.02101,20.16481c-0.06025,6.05048 0.62392,6.50544 6.08416,4.62951c0.47893,-5.41191 0.95276,-10.7654 1.4633,-15.65277c0.12088,5.45967 0.20512,10.45323 0.28929,15.44681z" id="svg_73"/>
   <path fill="#8523EC" d="m765.70428,197.16445c-0.61134,-3.0383 -0.80576,-5.99515 -1.16455,-9.3017c2.68434,-0.39941 5.53307,-0.44911 8.80848,-0.48065c-3.39567,2.72176 -3.57098,5.78282 0.13716,9.42673c-2.2977,0.30938 -4.83087,0.37325 -7.78111,0.35563l0.00001,0z" id="svg_74"/>
   <path fill="#A13DBD" d="m740.33553,142.30431c3.5978,0.00427 6.75902,0.0218 10.34714,0.04284c0.42694,0.00352 0.4443,0.39082 0.44183,0.58464c-11.34633,0.26436 -22.69142,0.45717 -34.03316,0.32461c-3.06639,-0.03583 -5.64153,0.38505 -8.01385,2.99049c0.18993,-1.0794 0.73762,-2.19629 1.42727,-3.59876c4.97726,-0.42849 9.81262,-0.57138 14.9385,-0.99479c5.0123,0.03441 9.73404,0.34933 14.89226,0.65098l0.00001,0.00001l0,-0.00001z" id="svg_75"/>
   <path fill="#9C8970" d="m884.80588,18.9699c-0.45539,0.34529 -1.19005,0.38419 -2.7286,0.44634c-8.97534,0.01177 -17.14666,0.00028 -25.75803,-0.06846c-5.35775,-0.20578 -10.27552,-0.35432 -15.19328,-0.50285c14.46692,-0.06047 28.93381,-0.12094 43.67989,0.12497l0.00001,0z" id="svg_76"/>
   <path fill="#A13DBD" d="m735.66713,132.55512c-2.74372,0.65343 -5.92179,1.20521 -9.52512,1.75634c-3.82353,-0.31432 -7.22172,-0.62796 -10.74266,-1.304c6.52933,-0.42626 13.18143,-0.49012 20.26778,-0.45231l0,-0.00001l0,-0.00001z" id="svg_77"/>
   <path fill="#963DAE" d="m810.26859,63.98101c-11.34853,0.36139 -22.91093,0.36486 -34.89633,0.4114c-0.42307,0.04306 -0.7004,-0.27781 -0.72981,-0.4928c11.78454,-0.23549 23.59838,-0.25602 35.62613,0.08138l0,0.00001z" id="svg_78"/>
   <path fill="#DBBA7F" d="m840.95377,18.80254c5.08997,0.19093 10.00774,0.33946 15.0682,0.81358c-1.53711,0.44298 -3.21996,0.52473 -4.89601,0.68523c-3.43101,0.32853 -6.85833,0.69936 -10.45003,1.09063c-0.16283,0.03787 -0.49379,0.08099 -0.49379,0.08099c-0.08307,-0.55198 -0.16616,-1.10395 -0.14736,-2.06993c0.28234,-0.59968 0.49729,-0.67598 0.91899,-0.60049l0,-0.00001z" id="svg_79"/>
   <path fill="#BA41C8" d="m691.67491,168.98853c-2.30465,-0.80238 -4.65735,-1.95341 -7.2268,-3.36624c2.24832,0.83136 4.71358,1.92446 7.2268,3.36624z" id="svg_80"/>
   <path fill="#8021EB" d="m816.76224,19.47668c-1.13654,0.30537 -2.66266,0.53057 -4.26645,0.4163c1.2405,-0.3918 2.55862,-0.44413 4.26645,-0.4163z" id="svg_81"/>
   <path fill="#8422F0" d="m774.84302,90.83994c0.31508,2.66943 0.55126,5.78876 0.7542,9.38446c-0.03331,0.47636 -0.40691,0.65959 -0.60218,0.58802c-0.20713,-3.2219 -0.21898,-6.37225 -0.15202,-9.97249z" id="svg_82"/>
   <path fill="#8021EB" d="m802.06021,21.04055c-1.5177,-0.05921 -3.03376,-0.41189 -4.63733,-1.11413c1.23129,-0.40505 2.55017,-0.46052 4.25896,-0.43464c0.38666,0.47269 0.38337,0.864 0.37837,1.54878l0,-0.00001z" id="svg_83"/>
   <path fill="#8F2BDF" d="m772.44044,18.20651c-1.14643,0.41376 -2.49166,0.60277 -4.05701,0.5728c1.13936,-0.41185 2.49878,-0.60471 4.05701,-0.5728z" id="svg_84"/>
   <path fill="#BA41C8" d="m681.82707,183.55397c1.89987,-0.30852 3.99101,-0.30426 6.47351,-0.30953c-1.8332,0.20109 -4.0577,0.4117 -6.47351,0.30953z" id="svg_85"/>
   <path fill="#C13ED2" d="m953.08197,234.84254c0.43625,-1.0684 1.16341,-2.22437 2.12699,-3.27464c-0.45437,1.13282 -1.14522,2.15994 -2.12699,3.27464z" id="svg_86"/>
   <path fill="#9932CC" d="m713.37762,209.99869c-0.90593,-0.71823 -1.85938,-1.75674 -2.81841,-3.14639c0.91997,0.70795 1.8455,1.76704 2.81841,3.14639z" id="svg_87"/>
   <path fill="#C13ED2" d="m680.77067,217.1104c0.42647,-0.9519 1.16865,-1.84584 2.21771,-2.7641c-0.42945,0.92447 -1.1657,1.87324 -2.21771,2.7641z" id="svg_88"/>
   <path fill="#A636D8" d="m919.24502,261.99904c0.64189,-0.62304 1.57979,-1.19302 2.82646,-1.78332c-0.63762,0.59861 -1.58395,1.21749 -2.82646,1.78332z" id="svg_89"/>
   <path fill="#9932CC" d="m707.10157,217.53129c0.81744,0.43341 1.69747,1.17577 2.62101,2.23353c-0.82382,-0.43127 -1.69119,-1.17792 -2.62101,-2.23353z" id="svg_90"/>
   <path fill="#9932CC" d="m704.21919,214.57474c0.82491,0.43214 1.72243,1.16373 2.66696,2.2154c-0.83349,-0.42526 -1.71387,-1.17062 -2.66696,-2.2154z" id="svg_91"/>
   <path fill="#D19851" d="m980.36293,179.58238c-0.09528,-1.09019 0.03101,-2.39313 0.36811,-3.93411c0.09172,1.08174 -0.02744,2.40154 -0.36811,3.93411z" id="svg_92"/>
   <path fill="#A13DBD" d="m708.42078,129.06917c-1.18372,0.20396 -2.52313,0.07131 -4.11449,-0.28992c1.15166,-0.16794 2.55524,-0.10731 4.11449,0.28992z" id="svg_93"/>
   <path fill="#A636D8" d="m849.63068,271.08889c0.99373,-0.2267 2.36295,-0.36387 3.96956,-0.29332c-1.03982,0.26607 -2.31691,0.32449 -3.96956,0.29332z" id="svg_94"/>
   <path fill="#ECCE85" d="m736.49142,115.64989c0.13677,-0.63515 0.55236,-1.40005 1.32215,-2.1707c-0.11168,0.67648 -0.5775,1.35872 -1.32215,2.1707z" id="svg_95"/>
   <path fill="#C13ED2" d="m946.47463,241.98226c0.11283,-0.53502 0.50143,-1.08267 1.14257,-1.6901c-0.12059,0.5193 -0.49379,1.09838 -1.14257,1.6901z" id="svg_96"/>
   <path fill="#A636D8" d="m911.64504,265.16362c0.2416,-0.44935 0.77174,-0.90931 1.45949,-1.15227c-0.28527,0.52523 -0.72813,0.83343 -1.45949,1.15227z" id="svg_97"/>
   <path fill="#9932CC" d="m709.91635,220.51874c0.51138,0.04141 1.04953,0.38089 1.64492,0.97649c-0.50121,-0.05537 -1.05973,-0.36688 -1.64492,-0.97649z" id="svg_98"/>
   <path fill="#BA41C8" d="m690.12879,182.13711c0.44378,-0.56028 1.16909,-1.20386 2.22214,-1.84325c-0.42836,0.58944 -1.18446,1.1747 -2.22214,1.84325z" id="svg_99"/>
   <path fill="#661EC3" d="m751.54885,271.18298c-0.24788,-0.37599 -0.05748,-0.58607 0.4015,-0.80523c0.97272,0.03427 1.74943,0.15165 2.7389,0.48687c-0.78308,0.28198 -1.77889,0.34612 -3.14038,0.31835l0,0.00001l-0.00001,0z" id="svg_100"/>
   <path fill="#A636D8" d="m840.18985,271.07798c0.70904,-0.2183 1.77479,-0.34834 3.05356,-0.27921c-0.7569,0.25528 -1.72692,0.31136 -3.05356,0.27921z" id="svg_101"/>
   <path fill="#D19851" d="m977.19986,190.44373c-0.07577,-0.46021 0.04091,-1.06048 0.36237,-1.78889c0.07987,0.4642 -0.045,1.05655 -0.36237,1.78889z" id="svg_102"/>
   <path fill="#D19851" d="m979.36493,183.52678c-0.13699,-0.50195 -0.06352,-1.09822 0.16416,-1.85109c0.11822,0.48119 0.08228,1.11899 -0.16416,1.85109z" id="svg_103"/>
   <path fill="#B545B1" d="m754.85827,182.92829c-0.66036,0.20809 -1.47739,0.10588 -2.51922,-0.22444c0.63763,-0.18072 1.50011,-0.13327 2.51922,0.22444z" id="svg_104"/>
   <path fill="#8422F0" d="m826.55888,271.18716c0.29569,0.29291 0.1691,0.36216 0.17427,0.37908c-0.85696,-0.06164 -1.71916,-0.14019 -3.07864,-0.65756c0.53791,-0.29735 1.57329,-0.15587 2.90437,0.2785l0,-0.00001z" id="svg_105"/>
   <path fill="#A636D8" d="m916.13359,262.45889c0.40386,-0.18467 0.79121,-0.18394 1.46881,-0.1828c-0.12284,0.29364 -0.53595,0.5869 -1.21956,0.81045c-0.27048,-0.0697 -0.26583,-0.44221 -0.24925,-0.62765z" id="svg_106"/>
   <path fill="#8523EC" d="m751.73791,132.64111c-0.19811,0.1978 -0.6771,0.29877 -1.29573,0.2417c0.24527,-0.21821 0.63002,-0.27839 1.29573,-0.2417z" id="svg_107"/>
   <path fill="#A636D8" d="m923.92856,259.15211c0.14569,-0.28288 0.56237,-0.56582 1.237,-0.86598c-0.15,0.27715 -0.558,0.57153 -1.237,0.86598z" id="svg_108"/>
   <path fill="#D19851" d="m978.44739,186.75093c-0.16748,-0.28638 -0.14165,-0.61369 -0.00712,-1.0604c0.19079,0.13111 0.29936,0.37657 0.34292,0.63439c0.01957,0.11559 -0.09091,0.25594 -0.33579,0.42599l0,0.00001l-0.00001,0z" id="svg_109"/>
   <path fill="#8F2BDF" d="m773.49861,78.59223c0.19994,0.06596 -0.07359,0.36472 -0.07359,0.36472c0,0 -0.37151,-0.05724 -0.44839,-0.1765c-0.07687,-0.11925 0.32208,-0.25419 0.52197,-0.18822l0.00001,0z" id="svg_110"/>
   <path fill="#E5BF70" d="m939.789,43.26743c0.35151,-0.06745 0.60501,0.07146 0.85995,0.58415c0.07509,0.22249 -0.02227,0.30259 -0.21956,0.21926c-0.39264,-0.25228 -0.56992,-0.4405 -0.72906,-0.64796c0,0 0.06444,-0.10041 0.08866,-0.15547l0,0.00001z" id="svg_111"/>
   <path fill="#8A27E4" d="m774.12008,247.54099c0.23262,-0.05075 0.35966,0.10885 0.52606,0.43132c-0.23083,0.15017 -0.45448,0.02224 -0.52606,-0.43132z" id="svg_112"/>
   <path fill="#8523EC" d="m774.48222,260.38163c0.14874,0.34414 -0.05898,0.51948 -0.51577,0.36549c-0.11352,-0.10995 0.29494,-0.31499 0.51577,-0.36549z" id="svg_113"/>
   <path fill="#8F2BDF" d="m773.08625,29.10861c-0.03913,-0.39131 0.18918,-0.46948 0.55465,-0.17729c0.08004,0.12439 -0.34436,0.24445 -0.55465,0.17729z" id="svg_114"/>
   <path fill="#8F2BDF" d="m768.36894,29.12728c-0.04988,-0.40159 0.18562,-0.48865 0.57319,-0.19946c0.08804,0.1254 -0.35184,0.2631 -0.57319,0.19946z" id="svg_115"/>
   <path fill="#A636D8" d="m926.7183,257.91248c-0.10668,-0.24614 0.02307,-0.40496 0.3389,-0.5836c0.21352,0.24656 0.11732,0.47681 -0.3389,0.5836z" id="svg_116"/>
   <path fill="#8021EB" d="m806.52953,19.49211c0.2275,0.06423 -0.08504,0.41107 -0.08504,0.41107c0,0 -0.42077,-0.06663 -0.50833,-0.20375c-0.08762,-0.13712 0.36589,-0.27156 0.59339,-0.20731l0,-0.00001l-0.00001,0z" id="svg_117"/>
   <path fill="#DBBA7F" d="m838.36332,19.03707c0.00161,0.06109 0.05812,0.11895 0.08315,0.08643c0.02502,-0.03253 -0.08475,-0.14752 -0.08315,-0.08643z" id="svg_118"/>
   <path fill="#ECCE85" d="m738.33232,113.49793c-0.07583,-0.25144 0.11455,-0.56886 0.57715,-0.94195c0.07779,0.2549 -0.11658,0.56544 -0.57715,0.94195z" id="svg_119"/>
   <path fill="#ECCE85" d="m815.607,271.48557c0.02399,-0.03231 -0.03073,0.02744 -0.05523,0.02636c-0.02445,-0.00104 0.03118,0.00598 0.05523,-0.02636z" id="svg_120"/>
   <path fill="#A13DBD" d="m700.08743,129.75565c0.15551,0.26676 0.05782,0.42299 -0.24788,0.56276c-0.29147,-0.26084 -0.22399,-0.4798 0.24788,-0.56276z" id="svg_121"/>
   <path fill="#B545B1" d="m758.57063,197.60869c0.13699,-0.20742 0.30731,-0.23289 0.73469,-0.25314c0.22675,0.33556 0.07445,0.58073 -0.41266,0.76884c-0.21305,0.02805 -0.28872,-0.33379 -0.32203,-0.5157z" id="svg_122"/>
   <path fill="#D19851" d="m976.84019,191.11755c-0.21744,0.02401 -0.44321,0.01838 -0.98935,-0.19721c-0.32037,-0.20994 -0.30177,-0.41306 -0.30177,-0.41306c0.22532,0.04965 0.45064,0.09933 0.97565,0.33402c0.29983,0.18502 0.30709,0.24655 0.31547,0.27625l0,0.00001z" id="svg_123"/>
   <path fill="#9932CC" d="m704.71734,203.443c0.22474,0.07003 -0.08597,0.41957 -0.08597,0.41957c0,0 -0.4222,-0.07313 -0.50592,-0.21382c-0.08372,-0.14069 0.36715,-0.27578 0.59189,-0.20574z" id="svg_124"/>
   <path fill="#9932CC" d="m708.45156,204.1773c-0.20949,0.15151 -0.3801,0.03701 -0.57864,-0.28862c0.22205,-0.29585 0.43723,-0.21794 0.57864,0.28862z" id="svg_125"/>
   <path fill="#B545B1" d="m749.97878,182.50096c0.11727,0.33584 -0.07693,0.54656 -0.54776,0.73586c-0.03487,-0.22784 0.13612,-0.50772 0.54776,-0.73586z" id="svg_126"/>
   <path fill="#8523EC" d="m772.13746,222.16024c-0.03843,-0.42709 0.20236,-0.50839 0.58268,-0.16841c0.07774,0.14041 -0.3653,0.23332 -0.58268,0.16841z" id="svg_127"/>
   <path fill="#BA41C8" d="m677.96931,179.55833c0.27095,-0.11796 0.43257,0.04182 0.58457,0.4388c-0.26514,0.20375 -0.49327,0.07099 -0.58457,-0.4388z" id="svg_128"/>
   <path fill="#BA41C8" d="m682.10641,165.65867c0.11467,0.2999 -0.04309,0.47779 -0.43785,0.63687c-0.18648,-0.29078 -0.0523,-0.53745 0.43785,-0.63687z" id="svg_129"/>
   <path fill="#A13DBD" d="m706.1324,147.6609c-0.01876,-0.29397 0.11957,-0.38615 0.4195,-0.41052c0.1237,0.3107 -0.0176,0.49219 -0.4195,0.41052z" id="svg_130"/>
   <path fill="#A13DBD" d="m709.90674,130.19393c-0.12272,0.04698 -0.1271,0.00205 -0.13866,0.01253c-0.01156,0.01047 0.07427,-0.25018 0.07427,-0.25018c0,0 0.18706,0.19068 0.06439,0.23765z" id="svg_131"/>
   <path fill="#B545B1" d="m743.36728,246.40163c0.16347,-0.07099 0.20851,0.27719 0.20651,0.45292c-0.00201,0.1757 -0.41807,0.3091 -0.62458,0.23977c-0.11675,-0.31356 0.03695,-0.49767 0.41807,-0.69269z" id="svg_132"/>
   <path fill="#A13DBD" d="m701.93726,128.71431c0.12905,0.30183 -0.0195,0.4802 -0.41449,0.62371c-0.20237,-0.29722 -0.07457,-0.53464 0.41449,-0.62371z" id="svg_133"/>
   <path fill="#ECCE85" d="m734.63612,117.84335c-0.09344,-0.27925 0.12779,-0.71789 0.69412,-1.27665c0.10362,0.29236 -0.13792,0.70481 -0.69412,1.27665z" id="svg_134"/>
   <path fill="#8A27E4" d="m774.88043,234.59498c0.3977,-0.03558 0.46593,0.22487 0.13705,0.63322c-0.13037,0.08802 -0.19965,-0.39706 -0.13705,-0.63322z" id="svg_135"/>
   <path fill="#8A27E4" d="m774.5482,235.77289c0.0255,0.12615 -0.11565,0.25282 -0.38101,0.44373c-0.12636,-0.18698 -0.01347,-0.35614 0.38101,-0.44373z" id="svg_136"/>
   <path fill="#D248C9" d="m975.57657,194.89568c-0.13608,-0.01832 -0.06296,-0.25369 -0.02141,-0.29655c0.04154,-0.04285 0.29408,0.06488 0.29408,0.06488c0,0 -0.13659,0.25 -0.27266,0.23167z" id="svg_137"/>
   <path fill="#8A27E4" d="m773.53257,236.31954c-0.02268,0.1857 -0.26162,0.29313 -0.57267,0.24522c-0.07214,-0.15533 0.35645,-0.32352 0.57267,-0.24522z" id="svg_138"/>
   <path fill="#8F2BDF" d="m773.09435,89.22652c-0.0585,-0.48774 0.16572,-0.57916 0.54029,-0.26801c-0.06329,0.22219 -0.19925,0.30947 -0.54029,0.26801z" id="svg_139"/>
   <path fill="#8F2BDF" d="m764.58938,89.12685c-0.05131,-0.4194 0.19033,-0.50921 0.58653,-0.20497c0.08614,0.13247 -0.36191,0.27299 -0.58653,0.20497z" id="svg_140"/>
   <path fill="#BD3ED5" d="m903.89385,195.28403c6.91874,-0.30458 13.83747,-0.60914 21.19361,-0.88507c1.1733,3.87184 1.90927,7.71505 2.43821,11.78816c-3.72894,-1.40889 -6.64319,-0.94941 -9.39124,2.27866c-1.04837,1.23157 -3.29055,1.83762 -4.99296,1.84696c-22.59729,0.12406 -45.19526,0.09112 -68.22397,-0.00647c-0.43077,-0.10386 -0.43936,-0.53985 0.0069,-0.75729c5.80378,-0.23692 11.16125,-0.2564 16.96078,-0.25831c6.7452,0.00482 13.04847,-0.00793 19.79264,-0.00789c4.18789,0.0139 7.9406,0.1583 11.68075,-0.01126c10.48938,-0.47564 10.48691,-0.52673 10.51233,-11.50373c0.00189,-0.82793 0.01501,-1.65582 0.02296,-2.48373l0,-0.00002l-0.00001,0z" id="svg_141"/>
   <path fill="#963DAE" d="m927.93118,224.2916c-4.17806,6.45226 -7.57558,7.89979 -12.43241,5.12913c-2.08619,-1.1424 -3.81978,-2.78376 -5.6875,-2.97873c-4.15794,-0.43405 -8.38294,-0.14469 -13.02632,-0.58596c-0.20144,-3.27549 -1.83227,-3.61155 -3.96518,-3.57539c-4.50113,0.07632 -9.00907,0.14461 -13.5049,-0.03841c-2.52912,-0.10296 -5.0398,-0.71324 -7.55879,-1.09498c6.55153,-0.1714 13.10233,-0.40609 19.65483,-0.49548c5.95786,-0.0813 11.91774,-0.01883 17.87665,0.00748c3.8421,0.01698 7.54197,-0.45442 10.84824,3.09647c1.31432,1.4116 4.89067,0.4538 7.79538,0.53588l-0.00001,0z" id="svg_142"/>
   <path fill="#7D24BA" d="m871.32101,221.09492c2.95407,0.43407 5.46477,1.04435 7.99389,1.14732c4.49583,0.18302 9.00375,0.11472 13.5049,0.03841c2.13291,-0.03616 3.76374,0.29988 3.52589,3.55707c-1.92399,0.43988 -3.85436,0.46227 -6.63958,0.47814c-9.66994,-0.01786 -18.48515,-0.02918 -27.35021,-0.42499c-1.52093,-1.44599 -2.94889,-3.33376 -4.47098,-3.42342c-6.0208,-0.35465 -12.07115,-0.14596 -18.11204,-0.41946c0.00218,-0.45547 0.00581,-0.63764 0.00937,-0.8198c10.36792,-0.06188 20.73578,-0.12373 31.53876,-0.13325l0,-0.00001l0,-0.00001z" id="svg_143"/>
   <path fill="#A06C99" d="m812.42583,215.86725c-0.35414,-0.93124 -0.92353,-2.32978 -0.92455,-3.72879c-0.03516,-48.31802 -0.01657,-96.63605 0.05943,-145.42653c0.33643,1.43722 0.8424,3.34658 0.84465,5.25661c0.05563,47.81035 0.05829,95.62076 0.02049,143.89871l-0.00001,0z" id="svg_144"/>
   <path fill="#661EC3" d="m839.34457,221.14607c0.43412,0.26427 0.43049,0.44645 0.28699,1.1922c-0.99384,1.68368 -1.8478,2.80377 -2.93399,3.94392c-0.23216,0.02008 -0.69516,0.0751 -0.69516,0.0751c-6.30384,-0.01563 -12.60774,-0.03124 -19.35191,-0.0354c-1.14857,-0.0072 -1.85684,-0.02584 -2.91817,-0.07085c0.05056,-1.62139 0.45413,-3.21642 1.53912,-4.94623c0.89412,-0.21638 1.10695,-0.29801 1.31984,-0.37962c7.43853,0.04625 14.87699,0.09249 22.75327,0.22086l0.00001,0.00001z" id="svg_145"/>
   <path fill="#8021EB" d="m777.95395,52.58971c2.74701,-0.49091 5.92922,-0.87349 9.54008,-1.25932c5.16028,-0.00293 9.89179,-0.00259 15.06297,-0.00572c4.37715,0.1727 8.31466,0.34882 12.51545,0.85096c-12.05232,0.39148 -24.36783,0.45695 -37.11848,0.41409l-0.00001,-0.00001z" id="svg_146"/>
   <path fill="#963DAE" d="m816.42445,220.7239c-0.04603,0.28293 -0.25886,0.36455 -0.80546,0.50953c-0.3339,0.06334 -0.35489,-0.4356 -0.34097,-0.6848c0.33579,-0.1748 0.65771,-0.10041 1.14643,0.17528z" id="svg_147"/>
   <path fill="#9D2FEC" d="m861.44317,209.27306c-5.35751,0.01948 -10.71498,0.03896 -16.51238,0.05797c-1.18135,-0.08782 -1.92278,-0.17515 -3.56414,-0.36845c3.07013,-2.23992 3.54486,-3.99248 1.13974,-6.64183c-1.12364,-1.23775 -0.62463,-4.13258 -0.85425,-6.64917c5.68237,-0.37586 11.35803,-0.37889 17.47302,0.04688c1.06559,4.80411 1.69177,9.17937 2.31801,13.5546z" id="svg_148"/>
   <path fill="#8422F0" d="m776.41385,100.77295c4.73647,-0.96999 9.79852,-1.81814 14.89172,-2.20549c1.22877,-0.09344 2.56071,1.33811 3.99562,2.38545c-6.08313,0.24841 -12.31676,0.17974 -18.88734,-0.17997l0.00001,0l-0.00001,0.00001z" id="svg_149"/>
   <path fill="#ECCE85" d="m789.59466,112.28567c-0.23361,0.10866 -0.52221,-0.06488 -0.90172,-0.49039c0.22164,-0.09856 0.53417,0.0548 0.90172,0.49039z" id="svg_150"/>
   <path fill="#FCD571" d="m837.86482,253.3012c-0.47382,5.35347 -0.94764,10.70696 -1.42658,16.11887c-5.46023,1.87592 -6.14441,1.42096 -6.08416,-4.62951c0.066,-6.62768 0.27098,-13.25377 0.24263,-20.16865c-0.16086,-0.6762 -0.14892,-1.06432 0.16709,-1.79007c0.6783,-0.49127 1.05265,-0.64491 1.42703,-0.79856c0.47163,-0.06711 0.94321,-0.13419 1.89725,-0.21647c0.78055,0.01905 1.00805,-0.09953 1.16488,-0.37094c3.72973,0.04337 7.45953,0.08676 11.94451,0.2745c9.15394,0.18483 17.55311,0.28226 25.95085,0.20593c1.29568,-0.01178 2.81041,-0.5009 3.83957,-1.31552c5.56218,-4.40297 6.90746,-4.48797 12.69185,-0.18073c0.55437,2.61061 1.10868,5.22122 1.72486,8.18525c-3.67242,8.5988 -7.804,10.11462 -13.86935,4.65174c-0.84782,-1.13404 -1.47168,-1.88363 -2.09982,-1.88775c-11.61688,-0.07672 -23.23473,-0.10873 -34.85082,0.01458c-0.91024,0.00967 -1.80903,1.23368 -2.70782,1.90075c0.00529,0.00745 -0.01197,0.00655 -0.01197,0.00655l-0.00001,0l0.00001,0.00002z" id="svg_151"/>
   <path fill="#AB39DC" d="m889.70046,240.02274c-5.80509,-3.89991 -7.15038,-3.81491 -12.71256,0.58806c-1.02916,0.81462 -2.5439,1.30373 -3.83957,1.31552c-8.39773,0.07633 -16.79689,-0.02108 -25.52047,-0.2757c-0.32927,-0.40133 -0.33366,-0.58854 0.1053,-1.0549c3.26472,-0.28053 6.10631,-0.50461 8.90209,-0.2213c2.86225,0.29002 4.04792,-1.06789 4.24327,-3.80248c0.2424,-3.39428 0.39355,-6.79593 0.81997,-10.21971c0.39292,-0.04253 0.5501,-0.05971 0.70724,-0.07692c8.81523,0.01135 17.63044,0.02268 26.88796,0.05599c0.4374,4.44268 0.43245,8.8634 0.40679,13.69147l0,-0.00001l-0.00001,0z" id="svg_152"/>
   <path fill="#9A2AEB" d="m861.46269,226.37757c-0.19063,3.39845 -0.34178,6.80009 -0.58417,10.19438c-0.19535,2.73459 -1.38101,4.09251 -4.24327,3.80248c-2.79579,-0.28331 -5.63738,-0.05922 -8.89899,-0.05954c-11.74571,0.00918 -11.74576,0.00918 -11.74058,-12.06564c0.00017,-0.32989 0.0015,-0.65975 0.00449,-1.44081c0.00224,-0.45113 0.46524,-0.50615 1.13964,-0.50283c8.55722,0.02621 16.44006,0.04909 24.32289,0.07198l-0.00001,-0.00002z" id="svg_153"/>
   <path fill="#8422F0" d="m829.22676,244.60102c0.18147,7.69791 0.05224,15.65902 -0.18216,24.05745c-0.11295,-7.63987 -0.12071,-15.71707 0.18216,-24.05745z" id="svg_154"/>
   <path fill="#AB39DC" d="m832.01231,241.8459c-0.19585,0.34105 -0.57019,0.49468 -1.24712,0.69437c0.15449,-0.26323 0.61157,-0.57249 1.24712,-0.69437z" id="svg_155"/>
   <path fill="#AB39DC" d="m835.08625,241.39437c0.00989,0.32292 -0.2176,0.4415 -0.66824,0.27259c0.04477,-0.27812 0.26278,-0.34127 0.66824,-0.27259z" id="svg_156"/>
   <path fill="#FEA461" d="m964.22988,79.31676c7.19981,11.64341 11.16636,24.58125 14.18448,38.03459c3.23566,14.42298 3.22087,29.01593 2.56513,43.57642c-0.34539,7.66912 -2.56835,15.2431 -4.6429,23.11894c-6.08433,0.24323 -11.46931,0.22755 -16.80869,-0.15561c0.60857,-2.03114 1.66991,-3.70111 1.65121,-5.35735c-0.10093,-8.93562 -0.6077,-17.86686 -0.66421,-26.8018c-0.01754,-2.77677 0.93481,-5.56043 1.44314,-8.34092c0.43706,-0.01337 0.87416,-0.02675 1.31121,-0.04012c0.59258,1.83151 1.18515,3.66303 1.77779,5.49454c0.34269,-0.06687 0.68532,-0.13375 1.02801,-0.20059c0,-2.11393 0,-4.22786 0.00093,-6.80417c0.41496,-14.29255 -2.21277,-27.56121 -6.31689,-40.74376c-0.50644,-4.47389 -1.30132,-8.70789 -2.01921,-12.95649c-1.02997,-6.09526 1.73469,-9.82198 6.49003,-8.82363l0,-0.00001l-0.00002,-0.00001z" id="svg_157"/>
   <path fill="#FDB162" d="m961.58628,77.58068c-4.71327,-0.64193 -7.47795,3.08479 -6.44798,9.18005c0.7179,4.24861 1.51277,8.4826 1.76215,12.74343c-2.28303,-3.74039 -3.8642,-7.6218 -5.89014,-11.22168c-1.48838,-2.64474 -3.5592,-4.92075 -5.39401,-7.72363c-3.15386,-4.12317 -6.28415,-7.88376 -9.42834,-11.96974c-0.02543,-0.75982 -0.03711,-1.19422 -0.04614,-2.03931c-0.25787,-4.13139 -0.72192,-7.85267 -0.71312,-11.57267c0.00679,-2.86089 -0.19201,-6.18515 3.89941,-7.00791c2.93342,2.69786 5.54268,5.35058 8.15192,8.00331c4.68803,7.08392 9.37611,14.16784 14.10623,21.60815l-0.00001,0.00001l0.00002,-0.00001z" id="svg_158"/>
   <path fill="#E2914F" d="m959.48225,184.25859c5.38503,0.01567 10.76999,0.03134 16.60507,0.05889c0.1156,1.80072 -0.21892,3.58953 -0.5458,5.78406c0.00754,0.40572 -0.01104,0.60885 -0.01276,0.70751c-11.34507,0.20038 -22.68837,0.30208 -34.46746,-0.04964c-0.75063,-2.43904 -1.06542,-4.42464 -1.02814,-6.42648c1.69678,-0.33391 3.04148,-0.6516 4.74539,-0.80485c5.14072,0.35314 9.92224,0.54183 14.70369,0.7305l0,0.00001z" id="svg_159"/>
   <path fill="#FDDF6B" d="m947.77833,55.92702c-2.90752,-2.60721 -5.51678,-5.25994 -8.5845,-8.26333c-1.01081,-1.79865 -1.56324,-3.24664 -2.1061,-4.70628c0.00955,-0.01165 0.02807,-0.0379 0.02807,-0.0379c0.6527,0.09267 1.30535,0.18535 2.27128,0.3907c0.47239,0.32012 0.64965,0.50834 0.99379,0.80089c2.49666,2.90463 4.93405,5.60966 7.13163,8.51851c0.57221,0.75742 0.39637,2.15068 0.26583,3.29739l0,0.00001l-0.00001,0z" id="svg_160"/>
   <path fill="#A636D8" d="m838.40545,268.88629c-0.29878,-4.66575 -0.38303,-9.65932 -0.5039,-15.119c-0.03672,-0.46609 -0.01945,-0.4652 0.17399,-0.51657c0.19351,-0.05138 0.58636,-0.16082 0.58636,-0.16082c0,0 0.13274,0.16489 0.20398,0.24462c-0.03447,5.1278 -0.1401,10.17587 -0.46041,15.55177l-0.00001,-0.00001l0,0.00001z" id="svg_161"/>
   <path fill="#E3BE51" d="m840.08657,21.92032c0.09556,-0.44736 0.42652,-0.49049 0.98389,-0.53232c4.38773,-0.6856 4.39406,1.87163 4.38491,4.80626c-0.06006,19.24843 0.10885,38.49919 -0.13504,57.74437c-0.05755,4.53892 1.30046,5.77553 5.34002,5.44986c4.51225,-0.36376 9.06764,-0.1249 13.9205,-0.12089c0.73872,0.04231 1.16123,0.05717 1.53925,0.46084c-0.33316,2.46844 -0.62186,4.54804 -1.35178,6.6323c-8.4978,-0.04464 -16.55432,-0.09393 -24.61086,-0.14322c-0.05547,-24.61662 -0.11099,-49.23322 -0.07088,-74.29719l-0.00001,0z" id="svg_163"/>
   <path fill="#B135E0" d="m903.44962,195.27986c0.43629,0.83209 0.42318,1.65998 0.42128,2.48791c-0.02543,10.977 -0.02296,11.0281 -10.51233,11.50373c-3.74014,0.16956 -7.49285,0.02515 -11.68673,-0.3644c-2.01236,-4.78938 -3.57778,-9.19033 -5.14314,-13.59128c2.26104,-0.01753 4.52214,-0.03504 7.21011,-0.10174c6.70683,-0.01227 12.98672,0.02465 19.71082,0.06575l0,0.00001l-0.00001,0.00001z" id="svg_164"/>
   <path fill="#A62FE6" d="m876.08785,195.31125c2.00621,4.40553 3.57164,8.80645 5.14302,13.58306c-6.29723,0.38839 -12.60049,0.40115 -19.34569,0.39632c-1.06824,-4.39282 -1.69442,-8.76806 -2.32157,-13.56605c5.36041,-0.42112 10.72189,-0.41953 16.52423,-0.41333l0.00001,0z" id="svg_165"/>
   <path fill="#DBBA7F" d="m840.11015,96.48233c8.10384,-0.21553 16.16037,-0.16625 25.07541,-0.11818c3.71594,0.22477 6.57345,0.45077 8.994,0.73419c-8.24256,0.20626 -16.04823,0.35506 -23.85385,0.50387c-2.05639,0.07193 -4.11276,0.14386 -6.82721,-0.03201c-1.51386,-0.27592 -2.36972,-0.30408 -3.22553,-0.33223c-0.07002,-0.16361 -0.1401,-0.3272 -0.16283,-0.75564z" id="svg_166"/>
   <path fill="#D19851" d="m840.18635,97.4048c0.94247,-0.13866 1.79834,-0.11052 2.88406,0.04506c-0.60841,0.28059 -1.44666,0.43374 -2.59867,0.54226c-0.3137,-0.04466 -0.37203,-0.42051 -0.28537,-0.58731l-0.00001,0l-0.00001,0z" id="svg_167"/>
   <path fill="#ECCE85" d="m838.96183,252.80207c-0.29994,0.28782 -0.6928,0.39728 -0.8916,0.44121c0.70536,-0.6157 1.60415,-1.83972 2.51438,-1.84938c11.61608,-0.12332 23.23394,-0.09132 34.85082,-0.01458c0.62813,0.00413 1.25202,0.75369 1.94769,1.55841c-1.11461,0.05579 -2.29896,-0.5898 -3.48347,-0.59041c-11.54594,-0.006 -23.09194,0.0958 -34.93782,0.45476l0.00001,-0.00001l0,-0.00001z" id="svg_168"/>
   <path fill="#D19851" d="m889.25542,191.35581c8.63318,-3.83373 15.71433,-9.84149 21.37946,-18.05845c9.17604,-13.30944 10.18425,-38.04231 2.27985,-52.37971c-6.49968,-11.7897 -15.58827,-19.52996 -28.18587,-23.01035c6.46855,-0.00714 12.51992,1.76048 17.43038,6.55772c2.30367,2.25055 4.31306,1.93899 6.65474,-0.01922c0.69224,0.38155 1.14448,0.65398 1.74712,1.22381c18.0779,25.744 17.22227,51.59602 0.79395,78.59594c5.9024,0 10.98864,0 16.51146,0.01992c4.22934,0.03452 8.02196,0.04909 11.81459,0.06366c0.31479,1.98562 0.62957,3.97124 0.9443,6.32849c-12.6804,0.4909 -25.36081,0.60868 -38.04114,0.73018c-4.3482,0.04166 -8.69624,0.09258 -13.32884,-0.05201l0,0.00001l0,0.00001z" id="svg_169"/>
   <path fill="#9A2AEB" d="m745.97764,213.30938c-0.32618,2.52004 -1.09149,5.03836 -2.11738,7.77458c-5.07029,0.21793 -9.87994,0.21793 -14.98879,0.21793c0.12498,-2.83674 0.22791,-5.1729 0.35218,-7.99422c5.43963,0 10.87726,0 16.75399,0.0017l0,0.00001z" id="svg_170"/>
   <path fill="#CD44D2" d="m729.42198,245.80077c-1.60753,1.3345 -3.12714,2.39069 -4.78393,3.07122c-1.49947,0.6159 -3.30787,1.41313 -4.67513,0.99863c-0.89637,-0.27175 -1.33975,-2.52318 -1.82117,-3.95054c-0.45627,-1.35273 -1.0966,-2.83675 -0.94833,-4.17476c0.2836,-2.55858 0.42059,-5.70518 1.87997,-7.34355c0.94466,-1.06058 4.1867,-0.13679 6.28611,0.39761c1.24493,0.3169 2.26995,1.60522 3.72449,2.49925c0.34252,2.71507 0.35438,5.38767 0.33798,8.50215l0.00001,-0.00001z" id="svg_171"/>
   <path fill="#FEE065" d="m864.26464,89.24016c-4.53664,0.02342 -9.09205,-0.21545 -13.60428,0.14832c-4.03958,0.32567 -5.39757,-0.91095 -5.34002,-5.44986c0.24389,-19.24518 0.07498,-38.49593 0.13504,-57.74437c0.00915,-2.93463 0.00282,-5.49186 -4.22207,-4.84414c3.03433,-0.34944 6.46166,-0.72027 9.89266,-1.0488c1.67605,-0.16049 3.3589,-0.24224 5.33595,-0.62797c8.46873,-0.25685 16.64006,-0.24537 25.25009,-0.20854c1.18503,0.3034 1.93147,0.58146 2.99022,1.12142c0.31227,0.26193 0.31398,0.76016 0.08056,1.01992c-2.54546,0.08639 -4.86604,-0.31681 -7.16804,-0.22024c-9.6066,0.40303 -10.50981,1.47591 -10.51038,11.78496c-0.00081,13.82704 -0.06864,27.65466 0.03528,41.48081c0.03854,5.12841 0.30552,10.21492 -2.87495,14.58845l-0.00004,0.00001l-0.00002,0.00002z" id="svg_172"/>
   <path fill="#FECE64" d="m889.87567,22.28079c0.93936,-0.00886 1.87878,-0.01772 3.39545,0.27343c4.54798,1.7892 8.51861,3.2784 12.33834,5.13594c-0.68079,7.12756 -1.21058,13.88677 -2.1424,20.64414c-4.5309,-0.3381 -8.65981,-0.67437 -12.84657,-1.36465c-0.94672,-1.63687 -2.43221,-2.82728 -2.62382,-4.21825c-0.93976,-6.82138 -3.34612,-13.78546 1.06605,-20.41233c0.4519,-0.02657 0.63239,-0.04244 0.81294,-0.0583l0.00001,0.00001z" id="svg_173"/>
   <path fill="#FDDF6B" d="m903.1589,25.94213c-3.9707,-1.48919 -7.94136,-2.97837 -12.13714,-4.77245c2.42893,0.01567 5.10246,0.21243 7.73375,0.6775c13.72948,2.42653 24.85004,10.76334 36.3439,18.22513c0.74873,0.48605 1.1828,1.51734 1.88981,2.5711c0.1266,0.27611 0.10805,0.30237 -0.25679,0.30876c-2.08019,-0.73396 -3.90482,-1.27569 -5.48859,-2.25539c-3.45524,-2.13737 -6.78789,-4.49758 -10.36337,-7.03914c-6.03565,-2.75345 -11.87862,-5.23449 -17.72159,-7.71552l0.00001,0.00001z" id="svg_174"/>
   <path fill="#FDDF6B" d="m889.77422,21.91718c-0.07911,0.37946 -0.25961,0.39532 -1.03747,0.38648c-1.63849,-0.33556 -2.6795,-0.64642 -3.72059,-0.95728c0,0 -0.00173,-0.49822 -0.00249,-0.74722c1.55247,0.15214 3.10575,0.55328 4.76052,1.318l0.00001,0l0.00001,0.00001z" id="svg_175"/>
   <path fill="#761EC6" d="m861.69848,226.35222c-8.11862,0.00246 -16.00146,-0.02041 -24.32651,-0.0667c0.4118,-1.14349 1.26576,-2.26356 2.2611,-3.67395c6.1807,-0.2901 12.23104,-0.49878 18.25184,-0.14414c1.52209,0.08965 2.95004,1.97743 4.47098,3.42342c-0.1073,0.40165 -0.26448,0.41882 -0.65741,0.46136l0,0.00001z" id="svg_176"/>
   <path fill="#FEAF62" d="m959.52787,183.89109c-4.82707,0.17882 -9.6086,-0.00986 -14.80271,-0.71498c-3.76749,-3.29918 -2.1909,-7.09008 -2.19401,-10.53086c-0.02232,-24.2536 0.02992,-48.50741 -0.05081,-72.76073c-0.01427,-4.28317 0.73508,-7.32969 5.71753,-6.19544c8.29112,14.69547 14.61946,29.77844 16.13073,46.76247c0.05955,0.66947 1.14109,1.23664 1.74642,1.85149c0,2.11392 0,4.22784 0,6.34178c-0.34269,0.06685 -0.68532,0.13371 -1.02801,0.20059c-0.59262,-1.83151 -1.18521,-3.66303 -1.77779,-5.49454c-0.43704,0.01337 -0.87415,0.02675 -1.31121,0.04012c-0.50833,2.78051 -1.4607,5.56416 -1.44314,8.34092c0.0565,8.93496 0.56329,17.86618 0.66421,26.8018c0.0187,1.65626 -1.04263,3.32622 -1.65121,5.35735l0.00001,0.00001l0,0.00001z" id="svg_177"/>
   <path fill="#FDD46B" d="m966.07597,141.84066c-0.60627,-0.15247 -1.6878,-0.71963 -1.74735,-1.38911c-1.51127,-16.98404 -7.83961,-32.06699 -16.15754,-47.10956c-0.97888,-1.96457 -1.98176,-3.16698 -2.77836,-4.50736c-1.65616,-2.78656 -3.20293,-5.64629 -4.46226,-8.45156c2.65857,0.65559 4.98469,1.28681 7.31085,1.91802c1.81133,2.44031 3.88216,4.7163 5.37054,7.36106c2.02594,3.59988 3.60712,7.48128 5.63605,11.45504c4.61531,13.16225 7.24302,26.4309 6.82806,40.72348l0,-0.00001z" id="svg_178"/>
   <path fill="#FEBF64" d="m921.07319,33.93006c3.38278,2.26915 6.71545,4.62935 10.17067,6.76672c1.58376,0.9797 3.40838,1.52143 5.47903,2.26705c0.9077,1.45322 1.46013,2.90121 2.14677,4.65472c-3.63296,1.17343 -3.43417,4.49769 -3.44095,7.35858c-0.0088,3.72 0.45523,7.44128 0.43671,11.44692c-1.03118,0.02752 -1.7832,-0.22987 -2.67651,-0.78722c-4.4501,-3.76178 -8.75884,-7.22362 -13.10307,-11.04335c-5.09176,-8.46129 -4.75257,-15.1948 0.98735,-20.66341l0,-0.00001l0,0.00001z" id="svg_179"/>
   <path fill="#FDDF6B" d="m920.12129,54.95137c4.30879,3.46183 8.61753,6.92367 13.09571,11.03004c1.10782,1.40738 2.0463,2.17024 2.98479,2.93312c3.13037,3.76058 6.26069,7.52117 9.41453,11.64434c-2.30269,-0.26862 -4.6288,-0.89984 -7.60602,-1.59774c-2.93768,-2.04908 -5.22438,-4.03146 -7.5452,-6.36289c-5.04032,-4.11872 -10.04647,-7.8884 -15.20238,-11.96232c-7.47702,-5.71607 -15.73275,-8.68767 -24.60477,-10.95489c-3.68704,-1.01758 -7.13461,-1.74926 -10.58214,-2.48096c0.04431,-0.4187 0.08861,-0.83741 0.13291,-1.25611c2.62266,0 5.24533,0 7.86798,0c4.12899,0.33628 8.25792,0.67255 13.01975,1.28843c6.76357,2.75943 12.89416,5.23919 19.02481,7.71897l0.00001,0.00001l0.00002,0z" id="svg_180"/>
   <path fill="#FDD46B" d="m938.78951,69.96878c-0.92469,-0.43745 -1.86316,-1.20033 -2.82969,-2.30777c0.72392,-0.08719 1.47595,0.17023 2.50448,0.55338c0.28808,0.56017 0.29976,0.99457 0.3252,1.7544l0.00001,-0.00001z" id="svg_181"/>
   <path fill="#FEB863" d="m933.10074,74.32693c2.28671,1.98239 4.57341,3.96477 7.17869,5.98947c1.91035,2.87196 3.45713,5.73168 5.11329,8.51824c0.7966,1.34037 1.79947,2.54278 2.73579,4.15476c-4.91305,-0.43457 -5.66242,2.61197 -5.64815,6.89512c0.08073,24.25333 0.02848,48.50713 0.05081,72.76073c0.00311,3.44079 -1.57347,7.23168 1.83475,10.36641c-1.29124,0.66965 -2.63594,0.98736 -4.33267,1.32128c-4.14475,0.00163 -7.93738,-0.01294 -12.15738,-0.44277c0.197,-5.96254 1.32623,-11.50623 1.36117,-17.05764c0.18153,-28.91519 0.08676,-57.83234 0.08135,-86.74881c-0.00052,-2.86781 -0.40695,-6.00147 3.78238,-5.75683l0,0.00002l-0.00001,0z" id="svg_182"/>
   <path fill="#E1B24D" d="m908.57406,104.33673c-2.10178,2.06732 -4.11116,2.37887 -6.41483,0.12832c-4.91046,-4.79726 -10.96183,-6.56486 -17.74771,-6.71652c-0.73831,0.23995 -1.20195,0.26702 -2.24303,-0.02377c-2.90236,-0.43987 -5.22715,-0.56185 -7.55199,-0.68384c-2.85747,-0.22601 -5.715,-0.45199 -8.98974,-0.68142c-0.12854,-2.08302 0.16017,-4.16263 0.93469,-6.63775c7.09537,-0.36991 13.70485,-0.34433 20.5253,-0.04904c1.79003,0.96078 3.3401,1.74143 4.95314,2.32721c6.64687,2.41397 12.29173,6.3109 16.53412,12.3368l0.00001,0l0.00002,0z" id="svg_183"/>
   <path fill="#D19851" d="m874.17958,97.09835c2.76179,0.06455 5.08658,0.18653 7.65757,0.50844c-10.0739,0.24275 -20.39402,0.28557 -31.11273,0.16192c7.40694,-0.3153 15.21262,-0.46411 23.45518,-0.67036l-0.00001,0l-0.00001,0z" id="svg_184"/>
   <path fill="#FED764" d="m886.87585,89.40299c-6.60953,-0.02558 -13.21899,-0.05116 -20.26991,-0.07004c-0.86386,-0.00818 -1.28637,-0.02304 -2.02509,-0.06536c2.86428,-4.40097 2.5973,-9.48746 2.55875,-14.6159c-0.10392,-13.82616 -0.03606,-27.65379 -0.03528,-41.48081c0.00057,-10.30905 0.90379,-11.38192 10.51038,-11.78496c2.302,-0.09657 4.6226,0.30664 7.16804,0.22024c1.27451,0.05108 2.31553,0.36194 3.6825,0.7082c-3.81471,6.65156 -1.40834,13.61563 -0.46859,20.43701c0.1916,1.39097 1.67709,2.58138 2.62382,4.21825c-2.5649,0.354 -5.18756,0.354 -7.81023,0.354c-0.04431,0.4187 -0.08861,0.83741 -0.13291,1.25611c3.44751,0.73168 6.89508,1.46338 10.36043,2.75665c-1.08527,1.74553 -3.09417,2.88789 -3.14446,4.12016c-0.3287,8.05668 -0.27768,16.13296 -0.25662,24.20255c0.00931,3.57823 0.95219,7.38176 -2.76087,9.74388l0.00002,0.00001z" id="svg_185"/>
   <path fill="#FEBF64" d="m933.06663,73.97788c-4.15523,0.10438 -3.74878,3.23805 -3.74827,6.10585c0.00541,28.91647 0.10017,57.83362 -0.08135,86.74881c-0.03492,5.5514 -1.16416,11.0951 -1.79787,17.03768c-5.09544,0.39534 -10.18167,0.39534 -16.08408,0.39534c16.42832,-26.99993 17.28395,-52.85193 -0.47111,-78.78731c0.59515,-1.33024 1.33329,-2.14752 1.39245,-3.01682c0.7123,-10.46473 1.53722,-20.93003 1.84906,-31.41136c0.11266,-3.78695 0.75207,-6.73218 3.88849,-8.73032c5.0062,3.76968 10.01235,7.53938 15.05266,11.65809l0,0.00001l0.00001,0.00002z" id="svg_186"/>
   <path fill="#FECA64" d="m917.86425,62.01558c-2.98671,2.30234 -3.62613,5.24758 -3.73877,9.03452c-0.31185,10.48133 -1.13676,20.94663 -1.84906,31.41136c-0.05916,0.86928 -0.7973,1.68659 -1.54287,2.7194c-0.77508,-0.08105 -1.22733,-0.35349 -1.91957,-0.73503c-4.48233,-6.13501 -10.12718,-10.03194 -16.77406,-12.44592c-1.61306,-0.5858 -3.16311,-1.36643 -4.95314,-2.32721c3.50211,-2.63183 2.55925,-6.43536 2.54994,-10.01359c-0.02106,-8.0696 -0.07211,-16.14589 0.25662,-24.20255c0.05029,-1.23228 2.05921,-2.37463 3.384,-3.83428c8.85418,1.70562 17.10991,4.67723 24.58692,10.3933z" id="svg_187"/>
   <path fill="#FEC663" d="m922.66677,55.952c-6.09521,-2.1219 -12.2258,-4.60165 -18.5874,-7.35923c0.2989,-7.037 0.8287,-13.79621 1.50949,-20.92377c5.99394,2.11268 11.83691,4.59372 17.87257,7.34718c-5.54722,5.74103 -5.88639,12.47454 -0.79465,20.93584l0,-0.00001z" id="svg_188"/>
  </g>
 </g>

</svg>